NotoSansTamil-Light.ufo
<glyph name="quotedbl.tamil" format="2">
  <advance width="361"/>
  <unicode hex="0022"/>
  <outline>
    <contour>
      <point x="98" y="542" type="line"/>
      <point x="119" y="542" type="line"/>
      <point x="123" y="800" type="line"/>
      <point x="95" y="800" type="line"/>
    </contour>
    <contour>
      <point x="242" y="542" type="line"/>
      <point x="263" y="542" type="line"/>
      <point x="267" y="800" type="line"/>
      <point x="239" y="800" type="line"/>
    </contour>
  </outline>
</glyph>
<glyph name="parenright.tamil" format="2">
  <advance width="275"/>
  <unicode hex="0029"/>
  <outline>
    <contour>
      <point x="215" y="280" type="curve" smooth="yes"/>
      <point x="215" y="491"/>
      <point x="159" y="666"/>
      <point x="63" y="800" type="curve"/>
      <point x="30" y="800" type="line"/>
      <point x="137" y="656"/>
      <point x="188" y="478"/>
      <point x="188" y="279" type="curve" smooth="yes"/>
      <point x="188" y="81"/>
      <point x="137" y="-100"/>
      <point x="30" y="-244" type="curve"/>
      <point x="63" y="-244" type="line"/>
      <point x="159" y="-109"/>
      <point x="215" y="69"/>
    </contour>
  </outline>
</glyph>
<glyph name="comma.tamil" format="2">
  <advance width="206"/>
  <unicode hex="002C"/>
  <outline>
    <contour>
      <point x="119" y="116" type="line"/>
      <point x="94" y="116" type="line"/>
      <point x="87" y="44"/>
      <point x="64" y="-60"/>
      <point x="37" y="-129" type="curve"/>
      <point x="59" y="-129" type="line"/>
      <point x="89" y="-60"/>
      <point x="114" y="25"/>
      <point x="125" y="107" type="curve"/>
    </contour>
  </outline>
</glyph>
<glyph name="hyphen.tamil" format="2">
  <advance width="320"/>
  <unicode hex="002D"/>
  <outline>
    <contour>
      <point x="40" y="290" type="line"/>
      <point x="280" y="290" type="line"/>
      <point x="280" y="316" type="line"/>
      <point x="40" y="316" type="line"/>
    </contour>
  </outline>
</glyph>
<glyph name="slash.tamil" format="2">
  <advance width="345"/>
  <unicode hex="002F"/>
  <outline>
    <contour>
      <point x="26" y="-244" type="line"/>
      <point x="53" y="-244" type="line"/>
      <point x="319" y="800" type="line"/>
      <point x="292" y="800" type="line"/>
    </contour>
  </outline>
</glyph>
<glyph name="zero.tamil" format="2">
  <advance width="572"/>
  <unicode hex="0030"/>
  <outline>
    <contour>
      <point x="286" y="-10" type="curve" smooth="yes"/>
      <point x="437" y="-10"/>
      <point x="508" y="112"/>
      <point x="508" y="360" type="curve" smooth="yes"/>
      <point x="508" y="577"/>
      <point x="460" y="725"/>
      <point x="287" y="725" type="curve" smooth="yes"/>
      <point x="119" y="725"/>
      <point x="63" y="571"/>
      <point x="63" y="360" type="curve" smooth="yes"/>
      <point x="63" y="106"/>
      <point x="142" y="-10"/>
    </contour>
    <contour>
      <point x="286" y="16" type="curve" smooth="yes"/>
      <point x="156" y="16"/>
      <point x="90" y="125"/>
      <point x="90" y="360" type="curve" smooth="yes"/>
      <point x="90" y="557"/>
      <point x="137" y="699"/>
      <point x="287" y="699" type="curve" smooth="yes"/>
      <point x="441" y="699"/>
      <point x="481" y="564"/>
      <point x="481" y="360" type="curve" smooth="yes"/>
      <point x="481" y="127"/>
      <point x="423" y="16"/>
    </contour>
  </outline>
</glyph>
<glyph name="one.tamil" format="2">
  <advance width="572"/>
  <unicode hex="0031"/>
  <outline>
    <contour>
      <point x="324" y="0" type="line"/>
      <point x="324" y="714" type="line"/>
      <point x="301" y="714" type="line"/>
      <point x="106" y="572" type="line"/>
      <point x="122" y="551" type="line"/>
      <point x="245" y="642" type="line" smooth="yes"/>
      <point x="270" y="661"/>
      <point x="283" y="671"/>
      <point x="299" y="685" type="curve" smooth="yes"/>
      <point x="298" y="658"/>
      <point x="298" y="620"/>
      <point x="298" y="563" type="curve" smooth="yes"/>
      <point x="298" y="0" type="line"/>
    </contour>
  </outline>
</glyph>
<glyph name="four.tamil" format="2">
  <advance width="572"/>
  <unicode hex="0034"/>
  <outline>
    <contour>
      <point x="394" y="0" type="line"/>
      <point x="420" y="0" type="line"/>
      <point x="420" y="193" type="line"/>
      <point x="550" y="193" type="line"/>
      <point x="550" y="219" type="line"/>
      <point x="420" y="219" type="line"/>
      <point x="420" y="718" type="line"/>
      <point x="392" y="718" type="line"/>
      <point x="23" y="217" type="line"/>
      <point x="23" y="193" type="line"/>
      <point x="394" y="193" type="line"/>
    </contour>
    <contour>
      <point x="56" y="219" type="line"/>
      <point x="330" y="592" type="line" smooth="yes"/>
      <point x="357" y="629"/>
      <point x="373" y="652"/>
      <point x="393" y="685" type="curve"/>
      <point x="395" y="685" type="line"/>
      <point x="394" y="634"/>
      <point x="394" y="610"/>
      <point x="394" y="524" type="curve" smooth="yes"/>
      <point x="394" y="219" type="line"/>
    </contour>
  </outline>
</glyph>
<glyph name="five.tamil" format="2">
  <advance width="572"/>
  <unicode hex="0035"/>
  <outline>
    <contour>
      <point x="250" y="-10" type="curve" smooth="yes"/>
      <point x="404" y="-10"/>
      <point x="503" y="76"/>
      <point x="503" y="217" type="curve" smooth="yes"/>
      <point x="503" y="354"/>
      <point x="418" y="427"/>
      <point x="272" y="427" type="curve" smooth="yes"/>
      <point x="209" y="427"/>
      <point x="161" y="418"/>
      <point x="124" y="407" type="curve"/>
      <point x="150" y="688" type="line"/>
      <point x="460" y="688" type="line"/>
      <point x="460" y="714" type="line"/>
      <point x="126" y="714" type="line"/>
      <point x="96" y="393" type="line"/>
      <point x="115" y="378" type="line"/>
      <point x="161" y="392"/>
      <point x="212" y="401"/>
      <point x="271" y="401" type="curve" smooth="yes"/>
      <point x="406" y="401"/>
      <point x="476" y="331"/>
      <point x="476" y="217" type="curve" smooth="yes"/>
      <point x="476" y="91"/>
      <point x="387" y="16"/>
      <point x="251" y="16" type="curve" smooth="yes"/>
      <point x="178" y="16"/>
      <point x="117" y="36"/>
      <point x="72" y="63" type="curve"/>
      <point x="72" y="32" type="line"/>
      <point x="114" y="8"/>
      <point x="172" y="-10"/>
    </contour>
  </outline>
</glyph>
<glyph name="eight.tamil" format="2">
  <advance width="572"/>
  <unicode hex="0038"/>
  <outline>
    <contour>
      <point x="281" y="-10" type="curve" smooth="yes"/>
      <point x="406" y="-10"/>
      <point x="505" y="59"/>
      <point x="505" y="181" type="curve" smooth="yes"/>
      <point x="505" y="284"/>
      <point x="432" y="341"/>
      <point x="316" y="382" type="curve"/>
      <point x="417" y="423"/>
      <point x="481" y="473"/>
      <point x="481" y="561" type="curve" smooth="yes"/>
      <point x="481" y="666"/>
      <point x="408" y="724"/>
      <point x="285" y="724" type="curve" smooth="yes"/>
      <point x="170" y="724"/>
      <point x="89" y="660"/>
      <point x="89" y="558" type="curve" smooth="yes"/>
      <point x="89" y="460"/>
      <point x="167" y="414"/>
      <point x="253" y="381" type="curve"/>
      <point x="140" y="340"/>
      <point x="66" y="284"/>
      <point x="66" y="174" type="curve" smooth="yes"/>
      <point x="66" y="62"/>
      <point x="152" y="-10"/>
    </contour>
    <contour>
      <point x="281" y="16" type="curve" smooth="yes"/>
      <point x="169" y="16"/>
      <point x="93" y="76"/>
      <point x="93" y="175" type="curve" smooth="yes"/>
      <point x="93" y="282"/>
      <point x="170" y="328"/>
      <point x="283" y="367" type="curve"/>
      <point x="311" y="357" type="line"/>
      <point x="420" y="318"/>
      <point x="478" y="268"/>
      <point x="478" y="180" type="curve" smooth="yes"/>
      <point x="478" y="72"/>
      <point x="395" y="16"/>
    </contour>
    <contour>
      <point x="288" y="395" type="curve"/>
      <point x="184" y="431"/>
      <point x="116" y="474"/>
      <point x="116" y="559" type="curve" smooth="yes"/>
      <point x="116" y="650"/>
      <point x="187" y="698"/>
      <point x="285" y="698" type="curve" smooth="yes"/>
      <point x="391" y="698"/>
      <point x="454" y="654"/>
      <point x="454" y="560" type="curve" smooth="yes"/>
      <point x="454" y="479"/>
      <point x="383" y="432"/>
    </contour>
  </outline>
</glyph>
<glyph name="greater.tamil" format="2">
  <advance width="572"/>
  <unicode hex="003E"/>
  <outline>
    <contour>
      <point x="57" y="127" type="line"/>
      <point x="515" y="342" type="line"/>
      <point x="515" y="364" type="line"/>
      <point x="57" y="579" type="line"/>
      <point x="57" y="551" type="line"/>
      <point x="482" y="353" type="line"/>
      <point x="57" y="155" type="line"/>
    </contour>
  </outline>
</glyph>
<glyph name="bracketleft.tamil" format="2">
  <advance width="307"/>
  <unicode hex="005B"/>
  <outline>
    <contour>
      <point x="94" y="-244" type="line"/>
      <point x="266" y="-244" type="line"/>
      <point x="266" y="-218" type="line"/>
      <point x="120" y="-218" type="line"/>
      <point x="120" y="774" type="line"/>
      <point x="266" y="774" type="line"/>
      <point x="266" y="800" type="line"/>
      <point x="94" y="800" type="line"/>
    </contour>
  </outline>
</glyph>
<glyph name="backslash.tamil" format="2">
  <advance width="345"/>
  <unicode hex="005C"/>
  <outline>
    <contour>
      <point x="292" y="-244" type="line"/>
      <point x="319" y="-244" type="line"/>
      <point x="53" y="800" type="line"/>
      <point x="26" y="800" type="line"/>
    </contour>
  </outline>
</glyph>
<glyph name="asciicircum.tamil" format="2">
  <advance width="572"/>
  <unicode hex="005E"/>
  <outline>
    <contour>
      <point x="47" y="278" type="line"/>
      <point x="76" y="278" type="line"/>
      <point x="285" y="688" type="line"/>
      <point x="494" y="278" type="line"/>
      <point x="523" y="278" type="line"/>
      <point x="297" y="719" type="line"/>
      <point x="273" y="719" type="line"/>
    </contour>
  </outline>
</glyph>
<glyph name="underscore.tamil" format="2">
  <advance width="444"/>
  <unicode hex="005F"/>
  <outline>
    <contour>
      <point x="-2" y="-115" type="line"/>
      <point x="446" y="-115" type="line"/>
      <point x="446" y="-90" type="line"/>
      <point x="-2" y="-90" type="line"/>
    </contour>
  </outline>
</glyph>
<glyph name="bar.tamil" format="2">
  <advance width="512"/>
  <unicode hex="007C"/>
  <outline>
    <contour>
      <point x="243" y="-244" type="line"/>
      <point x="269" y="-244" type="line"/>
      <point x="269" y="800" type="line"/>
      <point x="243" y="800" type="line"/>
    </contour>
  </outline>
</glyph>
<glyph name="braceright.tamil" format="2">
  <advance width="344"/>
  <unicode hex="007D"/>
  <outline>
    <contour>
      <point x="39" y="800" type="curve"/>
      <point x="39" y="774" type="line"/>
      <point x="145" y="774"/>
      <point x="177" y="748"/>
      <point x="177" y="661" type="curve" smooth="yes"/>
      <point x="177" y="401" type="line" smooth="yes"/>
      <point x="177" y="326"/>
      <point x="198" y="292"/>
      <point x="255" y="279" type="curve"/>
      <point x="255" y="277" type="line"/>
      <point x="197" y="266"/>
      <point x="177" y="220"/>
      <point x="177" y="152" type="curve" smooth="yes"/>
      <point x="177" y="-102" type="line" smooth="yes"/>
      <point x="177" y="-183"/>
      <point x="135" y="-218"/>
      <point x="39" y="-218" type="curve"/>
      <point x="39" y="-244" type="line"/>
      <point x="147" y="-244"/>
      <point x="203" y="-195"/>
      <point x="203" y="-108" type="curve" smooth="yes"/>
      <point x="203" y="148" type="line" smooth="yes"/>
      <point x="203" y="234"/>
      <point x="233" y="265"/>
      <point x="314" y="265" type="curve"/>
      <point x="314" y="291" type="line"/>
      <point x="233" y="291"/>
      <point x="203" y="320"/>
      <point x="203" y="405" type="curve" smooth="yes"/>
      <point x="203" y="667" type="line" smooth="yes"/>
      <point x="203" y="765"/>
      <point x="156" y="800"/>
    </contour>
  </outline>
</glyph>
<glyph name="asciitilde.tamil" format="2">
  <advance width="572"/>
  <unicode hex="007E"/>
  <outline>
    <contour>
      <point x="280" y="341" type="curve" smooth="yes"/>
      <point x="320" y="321"/>
      <point x="357" y="308"/>
      <point x="401" y="308" type="curve" smooth="yes"/>
      <point x="445" y="308"/>
      <point x="486" y="327"/>
      <point x="516" y="356" type="curve"/>
      <point x="516" y="388" type="line"/>
      <point x="478" y="349"/>
      <point x="440" y="334"/>
      <point x="401" y="334" type="curve" smooth="yes"/>
      <point x="361" y="334"/>
      <point x="328" y="347"/>
      <point x="292" y="365" type="curve" smooth="yes"/>
      <point x="252" y="385"/>
      <point x="215" y="398"/>
      <point x="171" y="398" type="curve" smooth="yes"/>
      <point x="127" y="398"/>
      <point x="86" y="379"/>
      <point x="56" y="350" type="curve"/>
      <point x="56" y="318" type="line"/>
      <point x="94" y="357"/>
      <point x="132" y="372"/>
      <point x="171" y="372" type="curve" smooth="yes"/>
      <point x="211" y="372"/>
      <point x="244" y="359"/>
    </contour>
  </outline>
</glyph>
<glyph name="uni00B2" format="2">
  <advance width="312"/>
  <unicode hex="00B2"/>
  <outline>
    <contour>
      <point x="17" y="369" type="line"/>
      <point x="297" y="369" type="line"/>
      <point x="297" y="394" type="line"/>
      <point x="54" y="394" type="line"/>
      <point x="157" y="499" type="line"/>
      <point x="245" y="589"/>
      <point x="285" y="629"/>
      <point x="285" y="694" type="curve" smooth="yes"/>
      <point x="285" y="760"/>
      <point x="239" y="808"/>
      <point x="159" y="808" type="curve" smooth="yes"/>
      <point x="112" y="808"/>
      <point x="69" y="792"/>
      <point x="33" y="762" type="curve" smooth="yes"/>
      <point x="46" y="742" type="line" smooth="yes"/>
      <point x="83" y="770"/>
      <point x="117" y="783"/>
      <point x="159" y="783" type="curve" smooth="yes"/>
      <point x="224" y="783"/>
      <point x="258" y="746"/>
      <point x="258" y="694" type="curve" smooth="yes"/>
      <point x="258" y="641"/>
      <point x="226" y="604"/>
      <point x="140" y="516" type="curve" smooth="yes"/>
      <point x="17" y="390" type="line"/>
    </contour>
  </outline>
</glyph>
<glyph name="uni00B3" format="2">
  <advance width="329"/>
  <unicode hex="00B3"/>
  <outline>
    <contour>
      <point x="149" y="366" type="curve" smooth="yes"/>
      <point x="245" y="366"/>
      <point x="302" y="412"/>
      <point x="302" y="493" type="curve" smooth="yes"/>
      <point x="302" y="550"/>
      <point x="271" y="584"/>
      <point x="216" y="596" type="curve" smooth="yes"/>
      <point x="216" y="598" type="line" smooth="yes"/>
      <point x="260" y="608"/>
      <point x="292" y="645"/>
      <point x="292" y="701" type="curve" smooth="yes"/>
      <point x="292" y="767"/>
      <point x="243" y="805"/>
      <point x="168" y="805" type="curve" smooth="yes"/>
      <point x="114" y="805"/>
      <point x="70" y="789"/>
      <point x="33" y="764" type="curve" smooth="yes"/>
      <point x="43" y="742" type="line" smooth="yes"/>
      <point x="81" y="765"/>
      <point x="118" y="780"/>
      <point x="168" y="780" type="curve" smooth="yes"/>
      <point x="230" y="780"/>
      <point x="265" y="749"/>
      <point x="265" y="701" type="curve" smooth="yes"/>
      <point x="265" y="641"/>
      <point x="225" y="607"/>
      <point x="154" y="607" type="curve" smooth="yes"/>
      <point x="87" y="607" type="line"/>
      <point x="87" y="582" type="line"/>
      <point x="154" y="582" type="line" smooth="yes"/>
      <point x="236" y="582"/>
      <point x="275" y="554"/>
      <point x="275" y="493" type="curve" smooth="yes"/>
      <point x="275" y="429"/>
      <point x="231" y="391"/>
      <point x="149" y="391" type="curve" smooth="yes"/>
      <point x="103" y="391"/>
      <point x="64" y="402"/>
      <point x="24" y="419" type="curve" smooth="yes"/>
      <point x="24" y="391" type="line" smooth="yes"/>
      <point x="58" y="376"/>
      <point x="102" y="366"/>
    </contour>
  </outline>
</glyph>
<glyph name="divide.tamil" format="2">
  <advance width="572"/>
  <unicode hex="00F7"/>
  <outline>
    <contour>
      <point x="56" y="340" type="line"/>
      <point x="516" y="340" type="line"/>
      <point x="516" y="366" type="line"/>
      <point x="56" y="366" type="line"/>
    </contour>
    <contour>
      <point x="285" y="144" type="curve" smooth="yes"/>
      <point x="309" y="144"/>
      <point x="312" y="158"/>
      <point x="312" y="175" type="curve" smooth="yes"/>
      <point x="312" y="191"/>
      <point x="309" y="206"/>
      <point x="285" y="206" type="curve" smooth="yes"/>
      <point x="265" y="206"/>
      <point x="260" y="191"/>
      <point x="260" y="175" type="curve" smooth="yes"/>
      <point x="260" y="158"/>
      <point x="265" y="144"/>
    </contour>
    <contour>
      <point x="285" y="500" type="curve" smooth="yes"/>
      <point x="309" y="500"/>
      <point x="312" y="514"/>
      <point x="312" y="531" type="curve" smooth="yes"/>
      <point x="312" y="547"/>
      <point x="309" y="562"/>
      <point x="285" y="562" type="curve" smooth="yes"/>
      <point x="265" y="562"/>
      <point x="260" y="547"/>
      <point x="260" y="531" type="curve" smooth="yes"/>
      <point x="260" y="514"/>
      <point x="265" y="500"/>
    </contour>
  </outline>
</glyph>
<glyph name="danda.tamil" format="2">
  <advance width="308"/>
  <unicode hex="0964"/>
  <outline>
    <contour>
      <point x="188" y="-49" type="line"/>
      <point x="214" y="-49" type="line"/>
      <point x="214" y="595" type="line"/>
      <point x="188" y="595" type="line"/>
    </contour>
  </outline>
</glyph>
<glyph name="anusvaratamil" format="2">
  <advance width="324"/>
  <unicode hex="0B82"/>
  <outline>
    <contour>
      <point x="65" y="736" type="curve" smooth="yes"/>
      <point x="65" y="673"/>
      <point x="106" y="638"/>
      <point x="163" y="638" type="curve" smooth="yes"/>
      <point x="219" y="638"/>
      <point x="260" y="673"/>
      <point x="260" y="736" type="curve" smooth="yes"/>
      <point x="260" y="797"/>
      <point x="219" y="835"/>
      <point x="163" y="835" type="curve" smooth="yes"/>
      <point x="106" y="835"/>
      <point x="65" y="797"/>
    </contour>
    <contour>
      <point x="92" y="736" type="curve" smooth="yes"/>
      <point x="92" y="786"/>
      <point x="122" y="810"/>
      <point x="163" y="810" type="curve" smooth="yes"/>
      <point x="200" y="810"/>
      <point x="233" y="786"/>
      <point x="233" y="736" type="curve" smooth="yes"/>
      <point x="233" y="686"/>
      <point x="200" y="662"/>
      <point x="163" y="662" type="curve" smooth="yes"/>
      <point x="122" y="662"/>
      <point x="92" y="686"/>
    </contour>
  </outline>
</glyph>
<glyph name="visargatamil" format="2">
  <advance width="830"/>
  <unicode hex="0B83"/>
  <outline>
    <contour>
      <point x="202" y="-12" type="curve" smooth="yes"/>
      <point x="283" y="-12"/>
      <point x="353" y="44"/>
      <point x="353" y="162" type="curve" smooth="yes"/>
      <point x="353" y="280"/>
      <point x="282" y="336"/>
      <point x="201" y="336" type="curve" smooth="yes"/>
      <point x="120" y="336"/>
      <point x="51" y="280"/>
      <point x="51" y="162" type="curve" smooth="yes"/>
      <point x="51" y="44"/>
      <point x="121" y="-12"/>
    </contour>
    <contour>
      <point x="202" y="13" type="curve" smooth="yes"/>
      <point x="134" y="13"/>
      <point x="79" y="60"/>
      <point x="79" y="162" type="curve" smooth="yes"/>
      <point x="79" y="264"/>
      <point x="134" y="311"/>
      <point x="202" y="311" type="curve" smooth="yes"/>
      <point x="270" y="311"/>
      <point x="325" y="264"/>
      <point x="325" y="162" type="curve" smooth="yes"/>
      <point x="325" y="60"/>
      <point x="270" y="13"/>
    </contour>
    <contour>
      <point x="628" y="-12" type="curve" smooth="yes"/>
      <point x="709" y="-12"/>
      <point x="779" y="44"/>
      <point x="779" y="162" type="curve" smooth="yes"/>
      <point x="779" y="280"/>
      <point x="708" y="336"/>
      <point x="627" y="336" type="curve" smooth="yes"/>
      <point x="546" y="336"/>
      <point x="477" y="280"/>
      <point x="477" y="162" type="curve" smooth="yes"/>
      <point x="477" y="44"/>
      <point x="547" y="-12"/>
    </contour>
    <contour>
      <point x="628" y="13" type="curve" smooth="yes"/>
      <point x="560" y="13"/>
      <point x="505" y="60"/>
      <point x="505" y="162" type="curve" smooth="yes"/>
      <point x="505" y="264"/>
      <point x="560" y="311"/>
      <point x="628" y="311" type="curve" smooth="yes"/>
      <point x="696" y="311"/>
      <point x="751" y="264"/>
      <point x="751" y="162" type="curve" smooth="yes"/>
      <point x="751" y="60"/>
      <point x="696" y="13"/>
    </contour>
    <contour>
      <point x="415" y="476" type="curve" smooth="yes"/>
      <point x="496" y="476"/>
      <point x="566" y="532"/>
      <point x="566" y="650" type="curve" smooth="yes"/>
      <point x="566" y="768"/>
      <point x="495" y="824"/>
      <point x="414" y="824" type="curve" smooth="yes"/>
      <point x="333" y="824"/>
      <point x="264" y="768"/>
      <point x="264" y="650" type="curve" smooth="yes"/>
      <point x="264" y="532"/>
      <point x="334" y="476"/>
    </contour>
    <contour>
      <point x="415" y="501" type="curve" smooth="yes"/>
      <point x="347" y="501"/>
      <point x="292" y="548"/>
      <point x="292" y="650" type="curve" smooth="yes"/>
      <point x="292" y="752"/>
      <point x="347" y="799"/>
      <point x="415" y="799" type="curve" smooth="yes"/>
      <point x="483" y="799"/>
      <point x="538" y="752"/>
      <point x="538" y="650" type="curve" smooth="yes"/>
      <point x="538" y="548"/>
      <point x="483" y="501"/>
    </contour>
  </outline>
</glyph>
<glyph name="atamil" format="2">
  <advance width="1058"/>
  <unicode hex="0B85"/>
  <outline>
    <contour>
      <point x="296" y="-96" type="curve" smooth="yes"/>
      <point x="317" y="-96" type="line" smooth="yes"/>
      <point x="546" y="-96"/>
      <point x="703" y="-2"/>
      <point x="753" y="151" type="curve"/>
      <point x="756" y="163" type="line"/>
      <point x="764" y="193"/>
      <point x="769" y="225"/>
      <point x="769" y="259" type="curve" smooth="yes"/>
      <point x="769" y="441"/>
      <point x="664" y="558"/>
      <point x="488" y="558" type="curve" smooth="yes"/>
      <point x="394" y="558"/>
      <point x="316" y="508"/>
      <point x="316" y="406" type="curve" smooth="yes"/>
      <point x="316" y="315"/>
      <point x="367" y="265"/>
      <point x="452" y="265" type="curve" smooth="yes"/>
      <point x="534" y="265"/>
      <point x="587" y="311"/>
      <point x="587" y="410" type="curve" smooth="yes"/>
      <point x="587" y="463"/>
      <point x="565" y="515"/>
      <point x="528" y="544" type="curve"/>
      <point x="494" y="542" type="line"/>
      <point x="540" y="512"/>
      <point x="560" y="461"/>
      <point x="560" y="407" type="curve" smooth="yes"/>
      <point x="560" y="338"/>
      <point x="529" y="290"/>
      <point x="451" y="290" type="curve" smooth="yes"/>
      <point x="370" y="290"/>
      <point x="343" y="344"/>
      <point x="343" y="406" type="curve" smooth="yes"/>
      <point x="343" y="499"/>
      <point x="414" y="533"/>
      <point x="486" y="533" type="curve" smooth="yes"/>
      <point x="500" y="533"/>
      <point x="514" y="532"/>
      <point x="527" y="531" type="curve" smooth="yes"/>
      <point x="670" y="515"/>
      <point x="742" y="406"/>
      <point x="742" y="258" type="curve" smooth="yes"/>
      <point x="742" y="224"/>
      <point x="737" y="192"/>
      <point x="728" y="163" type="curve"/>
      <point x="725" y="150" type="line"/>
      <point x="673" y="6"/>
      <point x="518" y="-71"/>
      <point x="314" y="-71" type="curve" smooth="yes"/>
      <point x="295" y="-71" type="line" smooth="yes"/>
      <point x="144" y="-71"/>
      <point x="53" y="-14"/>
      <point x="53" y="66" type="curve" smooth="yes"/>
      <point x="53" y="91"/>
      <point x="62" y="111"/>
      <point x="79" y="124" type="curve" smooth="yes"/>
      <point x="98" y="139"/>
      <point x="126" y="144"/>
      <point x="179" y="144" type="curve" smooth="yes"/>
      <point x="958" y="144" type="line"/>
      <point x="951" y="169" type="line"/>
      <point x="183" y="169" type="line" smooth="yes"/>
      <point x="118" y="169"/>
      <point x="85" y="161"/>
      <point x="63" y="144" type="curve" smooth="yes"/>
      <point x="40" y="126"/>
      <point x="27" y="100"/>
      <point x="27" y="68" type="curve" smooth="yes"/>
      <point x="27" y="-30"/>
      <point x="126" y="-96"/>
    </contour>
    <contour>
      <point x="938" y="-154" type="line"/>
      <point x="964" y="-154" type="line"/>
      <point x="964" y="546" type="line"/>
      <point x="938" y="546" type="line"/>
    </contour>
  </outline>
</glyph>
<glyph name="aatamil" format="2">
  <advance width="1229"/>
  <unicode hex="0B86"/>
  <outline>
    <contour>
      <point x="296" y="-96" type="curve" smooth="yes"/>
      <point x="317" y="-96" type="line" smooth="yes"/>
      <point x="546" y="-96"/>
      <point x="703" y="-2"/>
      <point x="753" y="151" type="curve"/>
      <point x="756" y="163" type="line" smooth="yes"/>
      <point x="764" y="193"/>
      <point x="769" y="225"/>
      <point x="769" y="259" type="curve" smooth="yes"/>
      <point x="769" y="441"/>
      <point x="664" y="558"/>
      <point x="488" y="558" type="curve" smooth="yes"/>
      <point x="394" y="558"/>
      <point x="316" y="508"/>
      <point x="316" y="406" type="curve" smooth="yes"/>
      <point x="316" y="315"/>
      <point x="367" y="265"/>
      <point x="452" y="265" type="curve" smooth="yes"/>
      <point x="534" y="265"/>
      <point x="587" y="311"/>
      <point x="587" y="410" type="curve" smooth="yes"/>
      <point x="587" y="463"/>
      <point x="565" y="515"/>
      <point x="528" y="544" type="curve"/>
      <point x="494" y="542" type="line"/>
      <point x="540" y="512"/>
      <point x="560" y="461"/>
      <point x="560" y="407" type="curve" smooth="yes"/>
      <point x="560" y="338"/>
      <point x="529" y="290"/>
      <point x="451" y="290" type="curve" smooth="yes"/>
      <point x="370" y="290"/>
      <point x="343" y="344"/>
      <point x="343" y="406" type="curve" smooth="yes"/>
      <point x="343" y="499"/>
      <point x="414" y="533"/>
      <point x="486" y="533" type="curve" smooth="yes"/>
      <point x="500" y="533"/>
      <point x="514" y="532"/>
      <point x="527" y="531" type="curve" smooth="yes"/>
      <point x="670" y="515"/>
      <point x="742" y="406"/>
      <point x="742" y="258" type="curve" smooth="yes"/>
      <point x="742" y="224"/>
      <point x="737" y="192"/>
      <point x="728" y="163" type="curve"/>
      <point x="725" y="150" type="line"/>
      <point x="673" y="6"/>
      <point x="518" y="-71"/>
      <point x="314" y="-71" type="curve" smooth="yes"/>
      <point x="295" y="-71" type="line" smooth="yes"/>
      <point x="144" y="-71"/>
      <point x="53" y="-14"/>
      <point x="53" y="66" type="curve" smooth="yes"/>
      <point x="53" y="91"/>
      <point x="62" y="111"/>
      <point x="79" y="124" type="curve" smooth="yes"/>
      <point x="98" y="139"/>
      <point x="126" y="144"/>
      <point x="179" y="144" type="curve" smooth="yes"/>
      <point x="958" y="144" type="line"/>
      <point x="951" y="169" type="line"/>
      <point x="183" y="169" type="line" smooth="yes"/>
      <point x="118" y="169"/>
      <point x="85" y="161"/>
      <point x="63" y="144" type="curve" smooth="yes"/>
      <point x="40" y="126"/>
      <point x="27" y="100"/>
      <point x="27" y="68" type="curve" smooth="yes"/>
      <point x="27" y="-30"/>
      <point x="126" y="-96"/>
    </contour>
    <contour>
      <point x="872" y="-321" type="curve" smooth="yes"/>
      <point x="876" y="-321" type="line" smooth="yes"/>
      <point x="1081" y="-321"/>
      <point x="1225" y="-228"/>
      <point x="1225" y="-74" type="curve" smooth="yes"/>
      <point x="1225" y="26"/>
      <point x="1164" y="82"/>
      <point x="1078" y="82" type="curve" smooth="yes"/>
      <point x="1026" y="82"/>
      <point x="985" y="56"/>
      <point x="951" y="28" type="curve"/>
      <point x="959" y="5" type="line"/>
      <point x="995" y="35"/>
      <point x="1030" y="57"/>
      <point x="1077" y="57" type="curve" smooth="yes"/>
      <point x="1150" y="57"/>
      <point x="1198" y="12"/>
      <point x="1198" y="-72" type="curve" smooth="yes"/>
      <point x="1198" y="-214"/>
      <point x="1068" y="-296"/>
      <point x="876" y="-296" type="curve" smooth="yes"/>
      <point x="873" y="-296" type="line" smooth="yes"/>
      <point x="706" y="-296"/>
      <point x="643" y="-235"/>
      <point x="643" y="-168" type="curve" smooth="yes"/>
      <point x="643" y="-115"/>
      <point x="675" y="-83"/>
      <point x="736" y="-83" type="curve" smooth="yes"/>
      <point x="773" y="-83"/>
      <point x="798" y="-89"/>
      <point x="829" y="-101" type="curve"/>
      <point x="835" y="-76" type="line"/>
      <point x="802" y="-64"/>
      <point x="770" y="-58"/>
      <point x="735" y="-58" type="curve" smooth="yes"/>
      <point x="659" y="-58"/>
      <point x="616" y="-104"/>
      <point x="616" y="-167" type="curve" smooth="yes"/>
      <point x="616" y="-256"/>
      <point x="701" y="-321"/>
    </contour>
    <contour>
      <point x="938" y="-124" type="line"/>
      <point x="964" y="-124" type="line"/>
      <point x="964" y="546" type="line"/>
      <point x="938" y="546" type="line"/>
    </contour>
  </outline>
</glyph>
<glyph name="itamil" format="2">
  <advance width="1066"/>
  <unicode hex="0B87"/>
  <outline>
    <contour>
      <point x="239" y="-321" type="curve" smooth="yes"/>
      <point x="317" y="-321"/>
      <point x="391" y="-299"/>
      <point x="460" y="-259" type="curve"/>
      <point x="575" y="-192"/>
      <point x="667" y="-79"/>
      <point x="711" y="58" type="curve"/>
      <point x="731" y="118"/>
      <point x="744" y="183"/>
      <point x="744" y="249" type="curve" smooth="yes"/>
      <point x="744" y="421"/>
      <point x="650" y="558"/>
      <point x="477" y="558" type="curve" smooth="yes"/>
      <point x="369" y="558"/>
      <point x="288" y="506"/>
      <point x="288" y="404" type="curve" smooth="yes"/>
      <point x="288" y="312"/>
      <point x="339" y="263"/>
      <point x="424" y="263" type="curve" smooth="yes"/>
      <point x="506" y="263"/>
      <point x="559" y="309"/>
      <point x="559" y="408" type="curve" smooth="yes"/>
      <point x="559" y="461"/>
      <point x="537" y="515"/>
      <point x="500" y="544" type="curve"/>
      <point x="466" y="542" type="line"/>
      <point x="512" y="512"/>
      <point x="532" y="459"/>
      <point x="532" y="405" type="curve" smooth="yes"/>
      <point x="532" y="336"/>
      <point x="501" y="288"/>
      <point x="423" y="288" type="curve" smooth="yes"/>
      <point x="342" y="288"/>
      <point x="315" y="342"/>
      <point x="315" y="404" type="curve" smooth="yes"/>
      <point x="315" y="497"/>
      <point x="390" y="533"/>
      <point x="481" y="533" type="curve" smooth="yes"/>
      <point x="486" y="533"/>
      <point x="490" y="533"/>
      <point x="495" y="533" type="curve"/>
      <point x="505" y="532" type="line"/>
      <point x="624" y="520"/>
      <point x="717" y="421"/>
      <point x="717" y="248" type="curve" smooth="yes"/>
      <point x="717" y="189"/>
      <point x="707" y="128"/>
      <point x="688" y="70" type="curve"/>
      <point x="645" y="-60"/>
      <point x="556" y="-178"/>
      <point x="438" y="-243" type="curve"/>
      <point x="378" y="-276"/>
      <point x="313" y="-296"/>
      <point x="238" y="-296" type="curve" smooth="yes"/>
      <point x="135" y="-296"/>
      <point x="77" y="-245"/>
      <point x="77" y="-140" type="curve" smooth="yes"/>
      <point x="77" y="-62"/>
      <point x="117" y="-5"/>
      <point x="177" y="35" type="curve"/>
      <point x="252" y="85"/>
      <point x="357" y="106"/>
      <point x="448" y="106" type="curve" smooth="yes"/>
      <point x="531" y="106"/>
      <point x="623" y="89"/>
      <point x="695" y="51" type="curve"/>
      <point x="770" y="11"/>
      <point x="823" y="-52"/>
      <point x="823" y="-140" type="curve" smooth="yes"/>
      <point x="823" y="-243"/>
      <point x="765" y="-296"/>
      <point x="662" y="-296" type="curve" smooth="yes"/>
      <point x="589" y="-296"/>
      <point x="521" y="-276"/>
      <point x="457" y="-242" type="curve"/>
      <point x="341" y="-180"/>
      <point x="243" y="-71"/>
      <point x="181" y="56" type="curve"/>
      <point x="130" y="157"/>
      <point x="104" y="260"/>
      <point x="104" y="375" type="curve" smooth="yes"/>
      <point x="104" y="636"/>
      <point x="285" y="814"/>
      <point x="533" y="814" type="curve" smooth="yes"/>
      <point x="654" y="814"/>
      <point x="744" y="779"/>
      <point x="808" y="720" type="curve" smooth="yes"/>
      <point x="909" y="627"/>
      <point x="948" y="481"/>
      <point x="948" y="294" type="curve" smooth="yes"/>
      <point x="948" y="0" type="line"/>
      <point x="974" y="0" type="line"/>
      <point x="974" y="312" type="line" smooth="yes"/>
      <point x="974" y="494"/>
      <point x="931" y="642"/>
      <point x="828" y="737" type="curve" smooth="yes"/>
      <point x="759" y="801"/>
      <point x="663" y="839"/>
      <point x="534" y="839" type="curve" smooth="yes"/>
      <point x="246" y="839"/>
      <point x="77" y="625"/>
      <point x="77" y="375" type="curve" smooth="yes"/>
      <point x="77" y="251"/>
      <point x="106" y="145"/>
      <point x="160" y="42" type="curve"/>
      <point x="223" y="-87"/>
      <point x="315" y="-191"/>
      <point x="438" y="-259" type="curve"/>
      <point x="509" y="-298"/>
      <point x="585" y="-321"/>
      <point x="663" y="-321" type="curve" smooth="yes"/>
      <point x="785" y="-321"/>
      <point x="850" y="-253"/>
      <point x="850" y="-140" type="curve" smooth="yes"/>
      <point x="850" y="-39"/>
      <point x="788" y="31"/>
      <point x="704" y="74" type="curve"/>
      <point x="628" y="114"/>
      <point x="533" y="131"/>
      <point x="449" y="131" type="curve" smooth="yes"/>
      <point x="354" y="131"/>
      <point x="247" y="110"/>
      <point x="166" y="57" type="curve"/>
      <point x="97" y="13"/>
      <point x="50" y="-51"/>
      <point x="50" y="-140" type="curve" smooth="yes"/>
      <point x="50" y="-260"/>
      <point x="119" y="-321"/>
    </contour>
  </outline>
</glyph>
<glyph name="iitamil" format="2">
  <advance width="611"/>
  <unicode hex="0B88"/>
  <outline>
    <contour>
      <point x="94" y="0" type="line"/>
      <point x="120" y="0" type="line"/>
      <point x="120" y="521" type="line"/>
      <point x="367" y="521" type="line"/>
      <point x="367" y="0" type="line"/>
      <point x="393" y="0" type="line"/>
      <point x="393" y="521" type="line"/>
      <point x="588" y="521" type="line"/>
      <point x="588" y="546" type="line"/>
      <point x="94" y="546" type="line"/>
    </contour>
    <contour>
      <point x="243" y="243" type="curve" smooth="yes"/>
      <point x="265" y="243"/>
      <point x="279" y="256"/>
      <point x="279" y="281" type="curve" smooth="yes"/>
      <point x="279" y="306"/>
      <point x="265" y="319"/>
      <point x="243" y="319" type="curve" smooth="yes"/>
      <point x="221" y="319"/>
      <point x="207" y="306"/>
      <point x="207" y="281" type="curve" smooth="yes"/>
      <point x="207" y="256"/>
      <point x="221" y="243"/>
    </contour>
    <contour>
      <point x="516" y="243" type="curve" smooth="yes"/>
      <point x="538" y="243"/>
      <point x="552" y="256"/>
      <point x="552" y="281" type="curve" smooth="yes"/>
      <point x="552" y="306"/>
      <point x="538" y="319"/>
      <point x="516" y="319" type="curve" smooth="yes"/>
      <point x="494" y="319"/>
      <point x="480" y="306"/>
      <point x="480" y="281" type="curve" smooth="yes"/>
      <point x="480" y="256"/>
      <point x="494" y="243"/>
    </contour>
  </outline>
</glyph>
<glyph name="utamil" format="2">
  <advance width="1010"/>
  <unicode hex="0B89"/>
  <outline>
    <contour>
      <point x="265" y="558" type="curve" smooth="yes"/>
      <point x="137" y="558"/>
      <point x="57" y="506"/>
      <point x="57" y="404" type="curve" smooth="yes"/>
      <point x="57" y="313"/>
      <point x="108" y="263"/>
      <point x="193" y="263" type="curve" smooth="yes"/>
      <point x="275" y="263"/>
      <point x="328" y="309"/>
      <point x="328" y="408" type="curve" smooth="yes"/>
      <point x="328" y="461"/>
      <point x="306" y="515"/>
      <point x="269" y="544" type="curve"/>
      <point x="235" y="542" type="line"/>
      <point x="281" y="512"/>
      <point x="301" y="459"/>
      <point x="301" y="405" type="curve" smooth="yes"/>
      <point x="301" y="336"/>
      <point x="270" y="288"/>
      <point x="192" y="288" type="curve" smooth="yes"/>
      <point x="111" y="288"/>
      <point x="84" y="342"/>
      <point x="84" y="404" type="curve" smooth="yes"/>
      <point x="84" y="497"/>
      <point x="159" y="533"/>
      <point x="267" y="533" type="curve" smooth="yes"/>
      <point x="270" y="533"/>
      <point x="272" y="533"/>
      <point x="275" y="533" type="curve"/>
      <point x="279" y="533" type="line"/>
      <point x="397" y="530"/>
      <point x="510" y="479"/>
      <point x="510" y="352" type="curve" smooth="yes"/>
      <point x="510" y="264"/>
      <point x="467" y="194"/>
      <point x="292" y="175" type="curve" smooth="yes"/>
      <point x="191" y="164" type="line" smooth="yes"/>
      <point x="103" y="154"/>
      <point x="62" y="128"/>
      <point x="62" y="74" type="curve" smooth="yes"/>
      <point x="62" y="29"/>
      <point x="95" y="0"/>
      <point x="168" y="0" type="curve" smooth="yes"/>
      <point x="993" y="0" type="line"/>
      <point x="993" y="25" type="line"/>
      <point x="165" y="25" type="line" smooth="yes"/>
      <point x="104" y="25"/>
      <point x="88" y="49"/>
      <point x="88" y="74" type="curve" smooth="yes"/>
      <point x="88" y="107"/>
      <point x="111" y="130"/>
      <point x="196" y="139" type="curve" smooth="yes"/>
      <point x="284" y="148" type="line" smooth="yes"/>
      <point x="422" y="162"/>
      <point x="537" y="208"/>
      <point x="537" y="352" type="curve" smooth="yes"/>
      <point x="537" y="468"/>
      <point x="447" y="558"/>
    </contour>
  </outline>
</glyph>
<glyph name="uutamil" format="2">
  <advance width="1418"/>
  <unicode hex="0B8A"/>
  <outline>
    <contour>
      <point x="265" y="558" type="curve" smooth="yes"/>
      <point x="137" y="558"/>
      <point x="57" y="506"/>
      <point x="57" y="404" type="curve" smooth="yes"/>
      <point x="57" y="313"/>
      <point x="108" y="263"/>
      <point x="193" y="263" type="curve" smooth="yes"/>
      <point x="275" y="263"/>
      <point x="328" y="309"/>
      <point x="328" y="408" type="curve" smooth="yes"/>
      <point x="328" y="461"/>
      <point x="306" y="515"/>
      <point x="269" y="544" type="curve"/>
      <point x="235" y="542" type="line"/>
      <point x="281" y="512"/>
      <point x="301" y="459"/>
      <point x="301" y="405" type="curve" smooth="yes"/>
      <point x="301" y="336"/>
      <point x="270" y="288"/>
      <point x="192" y="288" type="curve" smooth="yes"/>
      <point x="111" y="288"/>
      <point x="84" y="342"/>
      <point x="84" y="404" type="curve" smooth="yes"/>
      <point x="84" y="497"/>
      <point x="159" y="533"/>
      <point x="267" y="533" type="curve" smooth="yes"/>
      <point x="270" y="533"/>
      <point x="272" y="533"/>
      <point x="275" y="533" type="curve" smooth="yes"/>
      <point x="279" y="533" type="line" smooth="yes"/>
      <point x="397" y="530"/>
      <point x="510" y="479"/>
      <point x="510" y="352" type="curve" smooth="yes"/>
      <point x="510" y="264"/>
      <point x="467" y="194"/>
      <point x="292" y="175" type="curve" smooth="yes"/>
      <point x="191" y="164" type="line" smooth="yes"/>
      <point x="103" y="154"/>
      <point x="62" y="128"/>
      <point x="62" y="74" type="curve" smooth="yes"/>
      <point x="62" y="29"/>
      <point x="95" y="0"/>
      <point x="168" y="0" type="curve" smooth="yes"/>
      <point x="1372" y="0" type="line"/>
      <point x="1372" y="25" type="line"/>
      <point x="165" y="25" type="line" smooth="yes"/>
      <point x="104" y="25"/>
      <point x="88" y="49"/>
      <point x="88" y="74" type="curve" smooth="yes"/>
      <point x="88" y="107"/>
      <point x="111" y="130"/>
      <point x="196" y="139" type="curve" smooth="yes"/>
      <point x="284" y="148" type="line" smooth="yes"/>
      <point x="422" y="162"/>
      <point x="537" y="208"/>
      <point x="537" y="352" type="curve" smooth="yes"/>
      <point x="537" y="468"/>
      <point x="447" y="558"/>
    </contour>
    <contour>
      <point x="786" y="124" type="curve" smooth="yes"/>
      <point x="850" y="124"/>
      <point x="905" y="168"/>
      <point x="905" y="251" type="curve" smooth="yes"/>
      <point x="905" y="326"/>
      <point x="856" y="372"/>
      <point x="785" y="372" type="curve" smooth="yes"/>
      <point x="730" y="372"/>
      <point x="680" y="337"/>
      <point x="655" y="302" type="curve"/>
      <point x="663" y="278" type="line"/>
      <point x="705" y="326"/>
      <point x="740" y="347"/>
      <point x="784" y="347" type="curve" smooth="yes"/>
      <point x="836" y="347"/>
      <point x="878" y="319"/>
      <point x="878" y="248" type="curve" smooth="yes"/>
      <point x="878" y="177"/>
      <point x="830" y="149"/>
      <point x="786" y="149" type="curve" smooth="yes"/>
      <point x="730" y="149"/>
      <point x="677" y="180"/>
      <point x="677" y="315" type="curve"/>
      <point x="677" y="320" type="line"/>
      <point x="676" y="428"/>
      <point x="745" y="533"/>
      <point x="875" y="533" type="curve" smooth="yes"/>
      <point x="944" y="533"/>
      <point x="991" y="502"/>
      <point x="1030" y="461" type="curve"/>
      <point x="1032" y="494" type="line"/>
      <point x="990" y="534"/>
      <point x="941" y="558"/>
      <point x="873" y="558" type="curve" smooth="yes"/>
      <point x="747" y="558"/>
      <point x="651" y="463"/>
      <point x="651" y="319" type="curve" smooth="yes"/>
      <point x="651" y="165"/>
      <point x="716" y="124"/>
    </contour>
    <contour>
      <point x="1011" y="134" type="line"/>
      <point x="1037" y="134" type="line"/>
      <point x="1037" y="521" type="line"/>
      <point x="1210" y="521" type="line"/>
      <point x="1210" y="134" type="line"/>
      <point x="1236" y="134" type="line"/>
      <point x="1236" y="521" type="line"/>
      <point x="1372" y="521" type="line"/>
      <point x="1372" y="546" type="line"/>
      <point x="1012" y="546" type="line"/>
      <point x="1012" y="497" type="line"/>
      <point x="1011" y="479" type="line"/>
    </contour>
  </outline>
</glyph>
<glyph name="etamil" format="2">
  <advance width="745"/>
  <unicode hex="0B8E"/>
  <outline>
    <contour>
      <point x="227" y="-12" type="curve" smooth="yes"/>
      <point x="303" y="-12"/>
      <point x="374" y="22"/>
      <point x="374" y="152" type="curve" smooth="yes"/>
      <point x="374" y="259"/>
      <point x="309" y="312"/>
      <point x="229" y="312" type="curve" smooth="yes"/>
      <point x="159" y="312"/>
      <point x="102" y="273"/>
      <point x="70" y="235" type="curve"/>
      <point x="83" y="214" type="line"/>
      <point x="123" y="260"/>
      <point x="169" y="287"/>
      <point x="229" y="287" type="curve" smooth="yes"/>
      <point x="304" y="287"/>
      <point x="347" y="236"/>
      <point x="347" y="153" type="curve" smooth="yes"/>
      <point x="347" y="42"/>
      <point x="295" y="13"/>
      <point x="229" y="13" type="curve" smooth="yes"/>
      <point x="147" y="13"/>
      <point x="87" y="70"/>
      <point x="87" y="235" type="curve" smooth="yes"/>
      <point x="87" y="326"/>
      <point x="117" y="400"/>
      <point x="177" y="450" type="curve" smooth="yes"/>
      <point x="232" y="496"/>
      <point x="312" y="521"/>
      <point x="433" y="521" type="curve" smooth="yes"/>
      <point x="510" y="521" type="line"/>
      <point x="503" y="546" type="line"/>
      <point x="438" y="546" type="line" smooth="yes"/>
      <point x="297" y="546"/>
      <point x="211" y="516"/>
      <point x="150" y="461" type="curve" smooth="yes"/>
      <point x="92" y="408"/>
      <point x="61" y="332"/>
      <point x="61" y="238" type="curve" smooth="yes"/>
      <point x="61" y="50"/>
      <point x="135" y="-12"/>
    </contour>
    <contour>
      <point x="507" y="0" type="line"/>
      <point x="533" y="0" type="line"/>
      <point x="533" y="521" type="line"/>
      <point x="728" y="521" type="line"/>
      <point x="728" y="546" type="line"/>
      <point x="487" y="546" type="line"/>
      <point x="489" y="521" type="line"/>
      <point x="507" y="521" type="line"/>
    </contour>
  </outline>
</glyph>
<glyph name="aitamil" format="2">
  <advance width="958"/>
  <unicode hex="0B90"/>
  <outline>
    <contour>
      <point x="301" y="-321" type="curve" smooth="yes"/>
      <point x="425" y="-321"/>
      <point x="502" y="-265"/>
      <point x="522" y="-156" type="curve"/>
      <point x="518" y="-154" type="line"/>
      <point x="529" y="-238"/>
      <point x="579" y="-321"/>
      <point x="711" y="-321" type="curve" smooth="yes"/>
      <point x="817" y="-321"/>
      <point x="890" y="-263"/>
      <point x="890" y="-126" type="curve" smooth="yes"/>
      <point x="890" y="-59"/>
      <point x="872" y="-11"/>
      <point x="850" y="38" type="curve"/>
      <point x="826" y="27" type="line"/>
      <point x="849" y="-20"/>
      <point x="863" y="-70"/>
      <point x="863" y="-127" type="curve" smooth="yes"/>
      <point x="863" y="-256"/>
      <point x="797" y="-296"/>
      <point x="711" y="-296" type="curve" smooth="yes"/>
      <point x="638" y="-296"/>
      <point x="593" y="-268"/>
      <point x="567" y="-223" type="curve" smooth="yes"/>
      <point x="543" y="-182"/>
      <point x="535" y="-142"/>
      <point x="535" y="-66" type="curve" smooth="yes"/>
      <point x="535" y="-7" type="line"/>
      <point x="509" y="-7" type="line"/>
      <point x="509" y="-74" type="line" smooth="yes"/>
      <point x="509" y="-150"/>
      <point x="492" y="-193"/>
      <point x="463" y="-231" type="curve" smooth="yes"/>
      <point x="427" y="-277"/>
      <point x="373" y="-296"/>
      <point x="305" y="-296" type="curve" smooth="yes"/>
      <point x="184" y="-296"/>
      <point x="95" y="-241"/>
      <point x="95" y="-109" type="curve" smooth="yes"/>
      <point x="95" y="-43"/>
      <point x="119" y="2"/>
      <point x="156" y="31" type="curve" smooth="yes"/>
      <point x="214" y="76"/>
      <point x="291" y="85"/>
      <point x="394" y="85" type="curve" smooth="yes"/>
      <point x="507" y="85" type="line" smooth="yes"/>
      <point x="629" y="85"/>
      <point x="734" y="91"/>
      <point x="808" y="146" type="curve" smooth="yes"/>
      <point x="859" y="184"/>
      <point x="890" y="244"/>
      <point x="890" y="342" type="curve" smooth="yes"/>
      <point x="890" y="478"/>
      <point x="811" y="558"/>
      <point x="694" y="558" type="curve" smooth="yes"/>
      <point x="587" y="558"/>
      <point x="525" y="494"/>
      <point x="513" y="376" type="curve"/>
      <point x="524" y="369" type="line"/>
      <point x="515" y="468"/>
      <point x="459" y="558"/>
      <point x="309" y="558" type="curve" smooth="yes"/>
      <point x="176" y="558"/>
      <point x="68" y="485"/>
      <point x="68" y="344" type="curve" smooth="yes"/>
      <point x="68" y="248"/>
      <point x="118" y="196"/>
      <point x="207" y="196" type="curve" smooth="yes"/>
      <point x="294" y="196"/>
      <point x="353" y="249"/>
      <point x="353" y="339" type="curve" smooth="yes"/>
      <point x="353" y="430"/>
      <point x="286" y="491"/>
      <point x="167" y="496" type="curve"/>
      <point x="137" y="473" type="line"/>
      <point x="265" y="473"/>
      <point x="326" y="421"/>
      <point x="326" y="338" type="curve" smooth="yes"/>
      <point x="326" y="258"/>
      <point x="276" y="221"/>
      <point x="207" y="221" type="curve" smooth="yes"/>
      <point x="136" y="221"/>
      <point x="95" y="261"/>
      <point x="95" y="344" type="curve" smooth="yes"/>
      <point x="95" y="404"/>
      <point x="114" y="450"/>
      <point x="153" y="484" type="curve" smooth="yes"/>
      <point x="160" y="490" type="line" smooth="yes"/>
      <point x="196" y="519"/>
      <point x="244" y="533"/>
      <point x="309" y="533" type="curve" smooth="yes"/>
      <point x="404" y="533"/>
      <point x="509" y="491"/>
      <point x="509" y="299" type="curve" smooth="yes"/>
      <point x="509" y="202" type="line"/>
      <point x="535" y="202" type="line"/>
      <point x="535" y="328" type="line" smooth="yes"/>
      <point x="535" y="413"/>
      <point x="555" y="461"/>
      <point x="587" y="493" type="curve" smooth="yes"/>
      <point x="613" y="519"/>
      <point x="647" y="533"/>
      <point x="693" y="533" type="curve" smooth="yes"/>
      <point x="788" y="533"/>
      <point x="863" y="474"/>
      <point x="863" y="342" type="curve" smooth="yes"/>
      <point x="863" y="253"/>
      <point x="837" y="197"/>
      <point x="788" y="163" type="curve" smooth="yes"/>
      <point x="725" y="119"/>
      <point x="640" y="110"/>
      <point x="492" y="110" type="curve" smooth="yes"/>
      <point x="385" y="110" type="line" smooth="yes"/>
      <point x="279" y="110"/>
      <point x="200" y="97"/>
      <point x="139" y="50" type="curve" smooth="yes"/>
      <point x="96" y="17"/>
      <point x="68" y="-33"/>
      <point x="68" y="-108" type="curve" smooth="yes"/>
      <point x="68" y="-238"/>
      <point x="152" y="-321"/>
    </contour>
  </outline>
</glyph>
<glyph name="otamil" format="2">
  <advance width="925"/>
  <unicode hex="0B92"/>
  <outline>
    <contour>
      <point x="732" y="86" type="curve" smooth="yes"/>
      <point x="823" y="86"/>
      <point x="869" y="148"/>
      <point x="869" y="250" type="curve" smooth="yes"/>
      <point x="869" y="342"/>
      <point x="830" y="415"/>
      <point x="767" y="467" type="curve" smooth="yes"/>
      <point x="694" y="527"/>
      <point x="587" y="558"/>
      <point x="464" y="558" type="curve" smooth="yes"/>
      <point x="349" y="558"/>
      <point x="253" y="535"/>
      <point x="181" y="487" type="curve" smooth="yes"/>
      <point x="103" y="435"/>
      <point x="56" y="361"/>
      <point x="56" y="266" type="curve" smooth="yes"/>
      <point x="56" y="133"/>
      <point x="124" y="73"/>
      <point x="208" y="73" type="curve" smooth="yes"/>
      <point x="290" y="73"/>
      <point x="353" y="119"/>
      <point x="353" y="229" type="curve" smooth="yes"/>
      <point x="353" y="321"/>
      <point x="301" y="378"/>
      <point x="215" y="378" type="curve" smooth="yes"/>
      <point x="152" y="378"/>
      <point x="101" y="345"/>
      <point x="61" y="300" type="curve"/>
      <point x="74" y="283" type="line"/>
      <point x="120" y="328"/>
      <point x="159" y="353"/>
      <point x="216" y="353" type="curve" smooth="yes"/>
      <point x="276" y="353"/>
      <point x="326" y="318"/>
      <point x="326" y="228" type="curve" smooth="yes"/>
      <point x="326" y="133"/>
      <point x="275" y="98"/>
      <point x="209" y="98" type="curve" smooth="yes"/>
      <point x="130" y="98"/>
      <point x="83" y="156"/>
      <point x="83" y="265" type="curve" smooth="yes"/>
      <point x="83" y="278"/>
      <point x="84" y="291"/>
      <point x="86" y="303" type="curve" smooth="yes"/>
      <point x="89" y="324" type="line"/>
      <point x="125" y="456"/>
      <point x="264" y="533"/>
      <point x="463" y="533" type="curve" smooth="yes"/>
      <point x="693" y="533"/>
      <point x="842" y="424"/>
      <point x="842" y="249" type="curve" smooth="yes"/>
      <point x="842" y="157"/>
      <point x="804" y="111"/>
      <point x="734" y="111" type="curve" smooth="yes"/>
      <point x="657" y="111"/>
      <point x="627" y="156"/>
      <point x="627" y="212" type="curve" smooth="yes"/>
      <point x="627" y="257"/>
      <point x="637" y="294"/>
      <point x="661" y="328" type="curve"/>
      <point x="639" y="345" type="line"/>
      <point x="547" y="320"/>
      <point x="462" y="255"/>
      <point x="462" y="128" type="curve" smooth="yes"/>
      <point x="462" y="32"/>
      <point x="510" y="-69"/>
      <point x="684" y="-80" type="curve"/>
      <point x="696" y="-82"/>
      <point x="712" y="-83"/>
      <point x="727" y="-83" type="curve" smooth="yes"/>
      <point x="812" y="-83" type="line"/>
      <point x="812" y="-59" type="line"/>
      <point x="738" y="-59" type="line" smooth="yes"/>
      <point x="633" y="-59"/>
      <point x="574" y="-38"/>
      <point x="534" y="2" type="curve" smooth="yes"/>
      <point x="504" y="32"/>
      <point x="489" y="73"/>
      <point x="489" y="128" type="curve" smooth="yes"/>
      <point x="489" y="232"/>
      <point x="551" y="297"/>
      <point x="646" y="322" type="curve"/>
      <point x="633" y="330" type="line"/>
      <point x="612" y="298"/>
      <point x="600" y="255"/>
      <point x="600" y="214" type="curve" smooth="yes"/>
      <point x="600" y="135"/>
      <point x="650" y="86"/>
    </contour>
    <contour>
      <point x="381" y="-321" type="curve" smooth="yes"/>
      <point x="487" y="-321"/>
      <point x="559" y="-271"/>
      <point x="628" y="-165" type="curve" smooth="yes"/>
      <point x="668" y="-104"/>
      <point x="695" y="-81"/>
      <point x="727" y="-67" type="curve"/>
      <point x="690" y="-62" type="line"/>
      <point x="664" y="-77"/>
      <point x="641" y="-99"/>
      <point x="610" y="-144" type="curve" smooth="yes"/>
      <point x="559" y="-218"/>
      <point x="505" y="-296"/>
      <point x="380" y="-296" type="curve" smooth="yes"/>
      <point x="295" y="-296"/>
      <point x="238" y="-248"/>
      <point x="238" y="-153" type="curve" smooth="yes"/>
      <point x="238" y="-106"/>
      <point x="253" y="-57"/>
      <point x="300" y="2" type="curve"/>
      <point x="278" y="17" type="line"/>
      <point x="234" y="-39"/>
      <point x="211" y="-97"/>
      <point x="211" y="-153" type="curve" smooth="yes"/>
      <point x="211" y="-265"/>
      <point x="284" y="-321"/>
    </contour>
  </outline>
</glyph>
<glyph name="katamil" format="2">
  <advance width="754"/>
  <unicode hex="0B95"/>
  <outline>
    <contour>
      <point x="234" y="-12" type="curve" smooth="yes"/>
      <point x="302" y="-12"/>
      <point x="357" y="10"/>
      <point x="388" y="51" type="curve" smooth="yes"/>
      <point x="415" y="86"/>
      <point x="428" y="130"/>
      <point x="428" y="194" type="curve" smooth="yes"/>
      <point x="428" y="521" type="line"/>
      <point x="632" y="521" type="line"/>
      <point x="632" y="546" type="line"/>
      <point x="158" y="546" type="line"/>
      <point x="158" y="276" type="line"/>
      <point x="184" y="284" type="line"/>
      <point x="184" y="521" type="line"/>
      <point x="402" y="521" type="line"/>
      <point x="402" y="196" type="line" smooth="yes"/>
      <point x="402" y="62"/>
      <point x="334" y="13"/>
      <point x="235" y="13" type="curve" smooth="yes"/>
      <point x="132" y="13"/>
      <point x="80" y="67"/>
      <point x="80" y="146" type="curve" smooth="yes"/>
      <point x="80" y="190"/>
      <point x="96" y="221"/>
      <point x="123" y="243" type="curve" smooth="yes"/>
      <point x="160" y="275"/>
      <point x="219" y="287"/>
      <point x="290" y="287" type="curve" smooth="yes"/>
      <point x="474" y="287" type="line" smooth="yes"/>
      <point x="569" y="287"/>
      <point x="674" y="266"/>
      <point x="674" y="149" type="curve" smooth="yes"/>
      <point x="674" y="63"/>
      <point x="630" y="15"/>
      <point x="551" y="15" type="curve" smooth="yes"/>
      <point x="521" y="15"/>
      <point x="492" y="19"/>
      <point x="465" y="28" type="curve"/>
      <point x="458" y="4" type="line"/>
      <point x="486" y="-5"/>
      <point x="519" y="-10"/>
      <point x="552" y="-10" type="curve" smooth="yes"/>
      <point x="639" y="-10"/>
      <point x="701" y="43"/>
      <point x="701" y="149" type="curve" smooth="yes"/>
      <point x="701" y="202"/>
      <point x="683" y="238"/>
      <point x="651" y="265" type="curve" smooth="yes"/>
      <point x="612" y="299"/>
      <point x="554" y="312"/>
      <point x="468" y="312" type="curve" smooth="yes"/>
      <point x="299" y="312" type="line" smooth="yes"/>
      <point x="135" y="312"/>
      <point x="53" y="252"/>
      <point x="53" y="145" type="curve" smooth="yes"/>
      <point x="53" y="49"/>
      <point x="124" y="-12"/>
    </contour>
  </outline>
</glyph>
<glyph name="catamil" format="2">
  <advance width="672"/>
  <unicode hex="0B9A"/>
  <outline>
    <contour>
      <point x="234" y="-12" type="curve" smooth="yes"/>
      <point x="302" y="-12"/>
      <point x="357" y="10"/>
      <point x="388" y="51" type="curve" smooth="yes"/>
      <point x="415" y="86"/>
      <point x="428" y="130"/>
      <point x="428" y="194" type="curve" smooth="yes"/>
      <point x="428" y="521" type="line"/>
      <point x="632" y="521" type="line"/>
      <point x="632" y="546" type="line"/>
      <point x="158" y="546" type="line"/>
      <point x="158" y="276" type="line"/>
      <point x="184" y="284" type="line"/>
      <point x="184" y="521" type="line"/>
      <point x="402" y="521" type="line"/>
      <point x="402" y="196" type="line" smooth="yes"/>
      <point x="402" y="62"/>
      <point x="334" y="13"/>
      <point x="235" y="13" type="curve" smooth="yes"/>
      <point x="132" y="13"/>
      <point x="80" y="67"/>
      <point x="80" y="146" type="curve" smooth="yes"/>
      <point x="80" y="190"/>
      <point x="96" y="221"/>
      <point x="123" y="243" type="curve" smooth="yes"/>
      <point x="160" y="275"/>
      <point x="219" y="287"/>
      <point x="290" y="287" type="curve" smooth="yes"/>
      <point x="632" y="287" type="line"/>
      <point x="632" y="312" type="line"/>
      <point x="299" y="312" type="line" smooth="yes"/>
      <point x="135" y="312"/>
      <point x="53" y="252"/>
      <point x="53" y="145" type="curve" smooth="yes"/>
      <point x="53" y="49"/>
      <point x="124" y="-12"/>
    </contour>
  </outline>
</glyph>
<glyph name="jatamil" format="2">
  <advance width="958"/>
  <unicode hex="0B9C"/>
  <outline>
    <contour>
      <point x="309" y="558" type="curve" smooth="yes"/>
      <point x="176" y="558"/>
      <point x="68" y="485"/>
      <point x="68" y="344" type="curve" smooth="yes"/>
      <point x="68" y="248"/>
      <point x="118" y="196"/>
      <point x="207" y="196" type="curve" smooth="yes"/>
      <point x="294" y="196"/>
      <point x="353" y="249"/>
      <point x="353" y="339" type="curve" smooth="yes"/>
      <point x="353" y="430"/>
      <point x="286" y="491"/>
      <point x="167" y="496" type="curve"/>
      <point x="137" y="473" type="line"/>
      <point x="265" y="473"/>
      <point x="326" y="421"/>
      <point x="326" y="338" type="curve" smooth="yes"/>
      <point x="326" y="258"/>
      <point x="276" y="221"/>
      <point x="207" y="221" type="curve" smooth="yes"/>
      <point x="136" y="221"/>
      <point x="95" y="261"/>
      <point x="95" y="344" type="curve" smooth="yes"/>
      <point x="95" y="404"/>
      <point x="114" y="450"/>
      <point x="153" y="484" type="curve"/>
      <point x="160" y="490" type="line"/>
      <point x="196" y="519"/>
      <point x="244" y="533"/>
      <point x="309" y="533" type="curve" smooth="yes"/>
      <point x="404" y="533"/>
      <point x="509" y="491"/>
      <point x="509" y="299" type="curve" smooth="yes"/>
      <point x="509" y="202" type="line"/>
      <point x="535" y="202" type="line"/>
      <point x="535" y="328" type="line" smooth="yes"/>
      <point x="535" y="413"/>
      <point x="555" y="461"/>
      <point x="587" y="493" type="curve" smooth="yes"/>
      <point x="613" y="519"/>
      <point x="647" y="533"/>
      <point x="693" y="533" type="curve" smooth="yes"/>
      <point x="788" y="533"/>
      <point x="863" y="474"/>
      <point x="863" y="342" type="curve" smooth="yes"/>
      <point x="863" y="253"/>
      <point x="837" y="197"/>
      <point x="788" y="163" type="curve" smooth="yes"/>
      <point x="725" y="119"/>
      <point x="640" y="110"/>
      <point x="492" y="110" type="curve" smooth="yes"/>
      <point x="385" y="110" type="line" smooth="yes"/>
      <point x="279" y="110"/>
      <point x="200" y="97"/>
      <point x="139" y="50" type="curve" smooth="yes"/>
      <point x="96" y="17"/>
      <point x="68" y="-33"/>
      <point x="68" y="-108" type="curve" smooth="yes"/>
      <point x="68" y="-250"/>
      <point x="153" y="-311"/>
      <point x="262" y="-311" type="curve" smooth="yes"/>
      <point x="360" y="-311"/>
      <point x="406" y="-267"/>
      <point x="490" y="-171" type="curve" smooth="yes"/>
      <point x="554" y="-98"/>
      <point x="609" y="-42"/>
      <point x="687" y="-40" type="curve"/>
      <point x="691" y="-40"/>
      <point x="695" y="-40"/>
      <point x="707" y="-40" type="curve" smooth="yes"/>
      <point x="760" y="-40"/>
      <point x="850" y="-68"/>
      <point x="850" y="-175" type="curve" smooth="yes"/>
      <point x="850" y="-259"/>
      <point x="801" y="-286"/>
      <point x="749" y="-286" type="curve" smooth="yes"/>
      <point x="677" y="-286"/>
      <point x="641" y="-238"/>
      <point x="641" y="-176" type="curve" smooth="yes"/>
      <point x="641" y="-115"/>
      <point x="673" y="-73"/>
      <point x="727" y="-31" type="curve"/>
      <point x="698" y="-27" type="line"/>
      <point x="643" y="-66"/>
      <point x="614" y="-119"/>
      <point x="614" y="-176" type="curve" smooth="yes"/>
      <point x="614" y="-262"/>
      <point x="672" y="-311"/>
      <point x="750" y="-311" type="curve" smooth="yes"/>
      <point x="808" y="-311"/>
      <point x="877" y="-278"/>
      <point x="877" y="-175" type="curve" smooth="yes"/>
      <point x="877" y="-50"/>
      <point x="770" y="-16"/>
      <point x="708" y="-16" type="curve" smooth="yes"/>
      <point x="591" y="-16"/>
      <point x="536" y="-80"/>
      <point x="469" y="-157" type="curve" smooth="yes"/>
      <point x="389" y="-247"/>
      <point x="353" y="-286"/>
      <point x="259" y="-286" type="curve" smooth="yes"/>
      <point x="174" y="-286"/>
      <point x="95" y="-242"/>
      <point x="95" y="-109" type="curve" smooth="yes"/>
      <point x="95" y="-43"/>
      <point x="119" y="2"/>
      <point x="156" y="31" type="curve" smooth="yes"/>
      <point x="214" y="76"/>
      <point x="291" y="85"/>
      <point x="394" y="85" type="curve" smooth="yes"/>
      <point x="507" y="85" type="line" smooth="yes"/>
      <point x="629" y="85"/>
      <point x="734" y="91"/>
      <point x="808" y="146" type="curve" smooth="yes"/>
      <point x="859" y="184"/>
      <point x="890" y="244"/>
      <point x="890" y="342" type="curve" smooth="yes"/>
      <point x="890" y="478"/>
      <point x="811" y="558"/>
      <point x="694" y="558" type="curve" smooth="yes"/>
      <point x="587" y="558"/>
      <point x="525" y="494"/>
      <point x="513" y="376" type="curve"/>
      <point x="524" y="369" type="line"/>
      <point x="515" y="468"/>
      <point x="459" y="558"/>
    </contour>
  </outline>
</glyph>
<glyph name="nyatamil" format="2">
  <advance width="1115"/>
  <unicode hex="0B9E"/>
  <outline>
    <contour>
      <point x="896" y="299" type="curve" smooth="yes"/>
      <point x="842" y="299"/>
      <point x="797" y="274"/>
      <point x="760" y="244" type="curve"/>
      <point x="764" y="217" type="line"/>
      <point x="802" y="250"/>
      <point x="844" y="274"/>
      <point x="894" y="274" type="curve" smooth="yes"/>
      <point x="971" y="274"/>
      <point x="1033" y="217"/>
      <point x="1033" y="81" type="curve" smooth="yes"/>
      <point x="1033" y="-185"/>
      <point x="830" y="-296"/>
      <point x="579" y="-296" type="curve" smooth="yes"/>
      <point x="568" y="-296" type="line" smooth="yes"/>
      <point x="235" y="-296"/>
      <point x="97" y="-106"/>
      <point x="97" y="137" type="curve" smooth="yes"/>
      <point x="97" y="147" type="line" smooth="yes"/>
      <point x="97" y="297"/>
      <point x="146" y="403"/>
      <point x="230" y="531" type="curve"/>
      <point x="209" y="546" type="line"/>
      <point x="137" y="441"/>
      <point x="71" y="314"/>
      <point x="71" y="149" type="curve" smooth="yes"/>
      <point x="71" y="130" type="line" smooth="yes"/>
      <point x="71" y="-121"/>
      <point x="221" y="-321"/>
      <point x="563" y="-321" type="curve" smooth="yes"/>
      <point x="580" y="-321" type="line" smooth="yes"/>
      <point x="838" y="-321"/>
      <point x="1060" y="-205"/>
      <point x="1060" y="82" type="curve" smooth="yes"/>
      <point x="1060" y="235"/>
      <point x="982" y="299"/>
    </contour>
    <contour>
      <point x="472" y="-12" type="curve" smooth="yes"/>
      <point x="548" y="-12"/>
      <point x="619" y="22"/>
      <point x="619" y="152" type="curve" smooth="yes"/>
      <point x="619" y="259"/>
      <point x="554" y="312"/>
      <point x="474" y="312" type="curve" smooth="yes"/>
      <point x="404" y="312"/>
      <point x="347" y="273"/>
      <point x="315" y="235" type="curve"/>
      <point x="328" y="214" type="line"/>
      <point x="368" y="260"/>
      <point x="414" y="287"/>
      <point x="474" y="287" type="curve" smooth="yes"/>
      <point x="549" y="287"/>
      <point x="592" y="236"/>
      <point x="592" y="153" type="curve" smooth="yes"/>
      <point x="592" y="42"/>
      <point x="540" y="13"/>
      <point x="474" y="13" type="curve" smooth="yes"/>
      <point x="392" y="13"/>
      <point x="332" y="70"/>
      <point x="332" y="235" type="curve" smooth="yes"/>
      <point x="332" y="326"/>
      <point x="362" y="400"/>
      <point x="422" y="450" type="curve" smooth="yes"/>
      <point x="477" y="496"/>
      <point x="557" y="521"/>
      <point x="678" y="521" type="curve" smooth="yes"/>
      <point x="755" y="521" type="line"/>
      <point x="748" y="546" type="line"/>
      <point x="683" y="546" type="line" smooth="yes"/>
      <point x="542" y="546"/>
      <point x="456" y="516"/>
      <point x="395" y="461" type="curve" smooth="yes"/>
      <point x="337" y="408"/>
      <point x="306" y="332"/>
      <point x="306" y="238" type="curve" smooth="yes"/>
      <point x="306" y="50"/>
      <point x="380" y="-12"/>
    </contour>
    <contour>
      <point x="752" y="0" type="line"/>
      <point x="778" y="0" type="line"/>
      <point x="778" y="521" type="line"/>
      <point x="973" y="521" type="line"/>
      <point x="973" y="546" type="line"/>
      <point x="732" y="546" type="line"/>
      <point x="734" y="521" type="line"/>
      <point x="752" y="521" type="line"/>
    </contour>
  </outline>
</glyph>
<glyph name="ttatamil" format="2">
  <advance width="668"/>
  <unicode hex="0B9F"/>
  <outline>
    <contour>
      <point x="94" y="0" type="line"/>
      <point x="651" y="0" type="line"/>
      <point x="651" y="25" type="line"/>
      <point x="120" y="25" type="line"/>
      <point x="120" y="546" type="line"/>
      <point x="94" y="546" type="line"/>
    </contour>
  </outline>
</glyph>
<glyph name="nnatamil" format="2">
  <advance width="1527"/>
  <unicode hex="0BA3"/>
  <outline>
    <contour>
      <point x="227" y="-12" type="curve" smooth="yes"/>
      <point x="303" y="-12"/>
      <point x="374" y="22"/>
      <point x="374" y="152" type="curve" smooth="yes"/>
      <point x="374" y="259"/>
      <point x="310" y="312"/>
      <point x="229" y="312" type="curve" smooth="yes"/>
      <point x="159" y="312"/>
      <point x="102" y="272"/>
      <point x="70" y="235" type="curve"/>
      <point x="83" y="214" type="line"/>
      <point x="123" y="260"/>
      <point x="169" y="287"/>
      <point x="229" y="287" type="curve" smooth="yes"/>
      <point x="304" y="287"/>
      <point x="347" y="236"/>
      <point x="347" y="153" type="curve" smooth="yes"/>
      <point x="347" y="42"/>
      <point x="295" y="13"/>
      <point x="229" y="13" type="curve" smooth="yes"/>
      <point x="147" y="13"/>
      <point x="87" y="70"/>
      <point x="87" y="235" type="curve" smooth="yes"/>
      <point x="87" y="238"/>
      <point x="87" y="240"/>
      <point x="87" y="244" type="curve"/>
      <point x="90" y="417"/>
      <point x="202" y="533"/>
      <point x="371" y="533" type="curve" smooth="yes"/>
      <point x="464" y="533"/>
      <point x="537" y="498"/>
      <point x="593" y="450" type="curve"/>
      <point x="674" y="380"/>
      <point x="716" y="278"/>
      <point x="716" y="174" type="curve" smooth="yes"/>
      <point x="716" y="67"/>
      <point x="684" y="13"/>
      <point x="607" y="13" type="curve" smooth="yes"/>
      <point x="542" y="13"/>
      <point x="499" y="57"/>
      <point x="499" y="183" type="curve" smooth="yes"/>
      <point x="499" y="295"/>
      <point x="537" y="393"/>
      <point x="603" y="457" type="curve"/>
      <point x="653" y="505"/>
      <point x="719" y="533"/>
      <point x="798" y="533" type="curve" smooth="yes"/>
      <point x="874" y="533"/>
      <point x="936" y="505"/>
      <point x="984" y="460" type="curve"/>
      <point x="1058" y="390"/>
      <point x="1097" y="281"/>
      <point x="1097" y="180" type="curve" smooth="yes"/>
      <point x="1097" y="67"/>
      <point x="1065" y="13"/>
      <point x="988" y="13" type="curve" smooth="yes"/>
      <point x="923" y="13"/>
      <point x="880" y="57"/>
      <point x="880" y="178" type="curve" smooth="yes"/>
      <point x="880" y="287"/>
      <point x="915" y="391"/>
      <point x="1001" y="456" type="curve"/>
      <point x="1052" y="494"/>
      <point x="1119" y="521"/>
      <point x="1243" y="521" type="curve" smooth="yes"/>
      <point x="1289" y="521" type="line"/>
      <point x="1289" y="0" type="line"/>
      <point x="1315" y="0" type="line"/>
      <point x="1315" y="521" type="line"/>
      <point x="1510" y="521" type="line"/>
      <point x="1510" y="546" type="line"/>
      <point x="1249" y="546" type="line" smooth="yes"/>
      <point x="1121" y="546"/>
      <point x="1046" y="517"/>
      <point x="990" y="478" type="curve"/>
      <point x="978" y="469" type="line"/>
      <point x="883" y="392"/>
      <point x="853" y="283"/>
      <point x="853" y="178" type="curve" smooth="yes"/>
      <point x="853" y="50"/>
      <point x="900" y="-12"/>
      <point x="990" y="-12" type="curve" smooth="yes"/>
      <point x="1073" y="-12"/>
      <point x="1124" y="43"/>
      <point x="1124" y="180" type="curve" smooth="yes"/>
      <point x="1124" y="284"/>
      <point x="1084" y="397"/>
      <point x="1007" y="472" type="curve"/>
      <point x="1001" y="478" type="line"/>
      <point x="949" y="527"/>
      <point x="881" y="558"/>
      <point x="798" y="558" type="curve" smooth="yes"/>
      <point x="715" y="558"/>
      <point x="643" y="528"/>
      <point x="589" y="477" type="curve"/>
      <point x="581" y="469" type="line"/>
      <point x="512" y="401"/>
      <point x="472" y="299"/>
      <point x="472" y="182" type="curve" smooth="yes"/>
      <point x="472" y="50"/>
      <point x="519" y="-12"/>
      <point x="608" y="-12" type="curve" smooth="yes"/>
      <point x="692" y="-12"/>
      <point x="743" y="43"/>
      <point x="743" y="175" type="curve" smooth="yes"/>
      <point x="743" y="282"/>
      <point x="703" y="385"/>
      <point x="608" y="471" type="curve"/>
      <point x="598" y="479" type="line"/>
      <point x="540" y="525"/>
      <point x="462" y="558"/>
      <point x="373" y="558" type="curve" smooth="yes"/>
      <point x="185" y="558"/>
      <point x="61" y="429"/>
      <point x="61" y="240" type="curve" smooth="yes"/>
      <point x="61" y="50"/>
      <point x="135" y="-12"/>
    </contour>
  </outline>
</glyph>
<glyph name="tatamil" format="2">
  <advance width="754"/>
  <unicode hex="0BA4"/>
  <outline>
    <contour>
      <point x="234" y="-12" type="curve" smooth="yes"/>
      <point x="302" y="-12"/>
      <point x="357" y="10"/>
      <point x="388" y="51" type="curve" smooth="yes"/>
      <point x="415" y="86"/>
      <point x="428" y="130"/>
      <point x="428" y="194" type="curve" smooth="yes"/>
      <point x="428" y="521" type="line"/>
      <point x="632" y="521" type="line"/>
      <point x="632" y="546" type="line"/>
      <point x="158" y="546" type="line"/>
      <point x="158" y="276" type="line"/>
      <point x="184" y="284" type="line"/>
      <point x="184" y="521" type="line"/>
      <point x="402" y="521" type="line"/>
      <point x="402" y="196" type="line" smooth="yes"/>
      <point x="402" y="62"/>
      <point x="334" y="13"/>
      <point x="235" y="13" type="curve" smooth="yes"/>
      <point x="132" y="13"/>
      <point x="80" y="67"/>
      <point x="80" y="146" type="curve" smooth="yes"/>
      <point x="80" y="190"/>
      <point x="96" y="221"/>
      <point x="123" y="243" type="curve" smooth="yes"/>
      <point x="160" y="275"/>
      <point x="219" y="287"/>
      <point x="290" y="287" type="curve" smooth="yes"/>
      <point x="426" y="287" type="line" smooth="yes"/>
      <point x="550" y="287"/>
      <point x="674" y="248"/>
      <point x="674" y="103" type="curve" smooth="yes"/>
      <point x="674" y="49"/>
      <point x="660" y="7"/>
      <point x="636" y="-23" type="curve" smooth="yes"/>
      <point x="580" y="-93"/>
      <point x="469" y="-106"/>
      <point x="331" y="-106" type="curve" smooth="yes"/>
      <point x="235" y="-106" type="line" smooth="yes"/>
      <point x="169" y="-106"/>
      <point x="126" y="-118"/>
      <point x="96" y="-142" type="curve" smooth="yes"/>
      <point x="67" y="-166"/>
      <point x="51" y="-202"/>
      <point x="51" y="-251" type="curve" smooth="yes"/>
      <point x="51" y="-277"/>
      <point x="55" y="-301"/>
      <point x="59" y="-321" type="curve"/>
      <point x="84" y="-320" type="line"/>
      <point x="80" y="-299"/>
      <point x="77" y="-279"/>
      <point x="77" y="-251" type="curve" smooth="yes"/>
      <point x="77" y="-209"/>
      <point x="88" y="-180"/>
      <point x="115" y="-160" type="curve" smooth="yes"/>
      <point x="139" y="-142"/>
      <point x="170" y="-131"/>
      <point x="243" y="-131" type="curve" smooth="yes"/>
      <point x="337" y="-131" type="line" smooth="yes"/>
      <point x="473" y="-131"/>
      <point x="598" y="-117"/>
      <point x="660" y="-35" type="curve" smooth="yes"/>
      <point x="685" y="-2"/>
      <point x="701" y="42"/>
      <point x="701" y="101" type="curve" smooth="yes"/>
      <point x="701" y="249"/>
      <point x="586" y="312"/>
      <point x="427" y="312" type="curve" smooth="yes"/>
      <point x="299" y="312" type="line" smooth="yes"/>
      <point x="135" y="312"/>
      <point x="53" y="252"/>
      <point x="53" y="145" type="curve" smooth="yes"/>
      <point x="53" y="49"/>
      <point x="124" y="-12"/>
    </contour>
  </outline>
</glyph>
<glyph name="natamil" format="2">
  <advance width="724"/>
  <unicode hex="0BA8"/>
  <outline>
    <contour>
      <point x="508" y="356" type="curve" smooth="yes"/>
      <point x="452" y="356"/>
      <point x="406" y="330"/>
      <point x="365" y="300" type="curve"/>
      <point x="367" y="270" type="line"/>
      <point x="412" y="309"/>
      <point x="457" y="331"/>
      <point x="506" y="331" type="curve" smooth="yes"/>
      <point x="601" y="331"/>
      <point x="643" y="250"/>
      <point x="643" y="141" type="curve" smooth="yes"/>
      <point x="643" y="58"/>
      <point x="621" y="1"/>
      <point x="580" y="-37" type="curve" smooth="yes"/>
      <point x="523" y="-89"/>
      <point x="437" y="-106"/>
      <point x="295" y="-106" type="curve" smooth="yes"/>
      <point x="235" y="-106" type="line" smooth="yes"/>
      <point x="169" y="-106"/>
      <point x="126" y="-118"/>
      <point x="96" y="-142" type="curve" smooth="yes"/>
      <point x="67" y="-166"/>
      <point x="51" y="-202"/>
      <point x="51" y="-251" type="curve" smooth="yes"/>
      <point x="51" y="-277"/>
      <point x="55" y="-301"/>
      <point x="59" y="-321" type="curve"/>
      <point x="84" y="-320" type="line"/>
      <point x="80" y="-299"/>
      <point x="77" y="-278"/>
      <point x="77" y="-251" type="curve" smooth="yes"/>
      <point x="77" y="-209"/>
      <point x="88" y="-180"/>
      <point x="115" y="-160" type="curve" smooth="yes"/>
      <point x="139" y="-142"/>
      <point x="170" y="-131"/>
      <point x="243" y="-131" type="curve" smooth="yes"/>
      <point x="308" y="-131" type="line" smooth="yes"/>
      <point x="424" y="-131"/>
      <point x="528" y="-118"/>
      <point x="596" y="-57" type="curve" smooth="yes"/>
      <point x="642" y="-16"/>
      <point x="670" y="47"/>
      <point x="670" y="143" type="curve" smooth="yes"/>
      <point x="670" y="284"/>
      <point x="601" y="356"/>
    </contour>
    <contour>
      <point x="94" y="0" type="line"/>
      <point x="120" y="0" type="line"/>
      <point x="120" y="521" type="line"/>
      <point x="347" y="521" type="line"/>
      <point x="347" y="0" type="line"/>
      <point x="373" y="0" type="line"/>
      <point x="373" y="521" type="line"/>
      <point x="568" y="521" type="line"/>
      <point x="568" y="546" type="line"/>
      <point x="94" y="546" type="line"/>
    </contour>
  </outline>
</glyph>
<glyph name="nnnatamil" format="2">
  <advance width="1146"/>
  <unicode hex="0BA9"/>
  <outline>
    <contour>
      <point x="227" y="-12" type="curve" smooth="yes"/>
      <point x="303" y="-12"/>
      <point x="374" y="22"/>
      <point x="374" y="152" type="curve" smooth="yes"/>
      <point x="374" y="259"/>
      <point x="310" y="312"/>
      <point x="229" y="312" type="curve" smooth="yes"/>
      <point x="159" y="312"/>
      <point x="102" y="272"/>
      <point x="70" y="235" type="curve"/>
      <point x="83" y="214" type="line"/>
      <point x="123" y="260"/>
      <point x="169" y="287"/>
      <point x="229" y="287" type="curve" smooth="yes"/>
      <point x="304" y="287"/>
      <point x="347" y="236"/>
      <point x="347" y="153" type="curve" smooth="yes"/>
      <point x="347" y="42"/>
      <point x="295" y="13"/>
      <point x="229" y="13" type="curve" smooth="yes"/>
      <point x="147" y="13"/>
      <point x="87" y="70"/>
      <point x="87" y="235" type="curve" smooth="yes"/>
      <point x="87" y="238"/>
      <point x="87" y="241"/>
      <point x="87" y="244" type="curve"/>
      <point x="90" y="417"/>
      <point x="201" y="533"/>
      <point x="371" y="533" type="curve" smooth="yes"/>
      <point x="464" y="533"/>
      <point x="537" y="498"/>
      <point x="593" y="450" type="curve"/>
      <point x="674" y="380"/>
      <point x="716" y="278"/>
      <point x="716" y="174" type="curve" smooth="yes"/>
      <point x="716" y="67"/>
      <point x="684" y="13"/>
      <point x="607" y="13" type="curve" smooth="yes"/>
      <point x="542" y="13"/>
      <point x="499" y="57"/>
      <point x="499" y="178" type="curve" smooth="yes"/>
      <point x="499" y="275"/>
      <point x="526" y="377"/>
      <point x="611" y="449" type="curve"/>
      <point x="663" y="490"/>
      <point x="733" y="521"/>
      <point x="862" y="521" type="curve" smooth="yes"/>
      <point x="908" y="521" type="line"/>
      <point x="908" y="0" type="line"/>
      <point x="934" y="0" type="line"/>
      <point x="934" y="521" type="line"/>
      <point x="1129" y="521" type="line"/>
      <point x="1129" y="546" type="line"/>
      <point x="867" y="546" type="line" smooth="yes"/>
      <point x="730" y="546"/>
      <point x="654" y="513"/>
      <point x="597" y="469" type="curve"/>
      <point x="587" y="461" type="line"/>
      <point x="502" y="386"/>
      <point x="472" y="283"/>
      <point x="472" y="178" type="curve" smooth="yes"/>
      <point x="472" y="50"/>
      <point x="519" y="-12"/>
      <point x="609" y="-12" type="curve" smooth="yes"/>
      <point x="692" y="-12"/>
      <point x="743" y="43"/>
      <point x="743" y="175" type="curve" smooth="yes"/>
      <point x="743" y="282"/>
      <point x="702" y="384"/>
      <point x="616" y="463" type="curve"/>
      <point x="608" y="471" type="line"/>
      <point x="549" y="521"/>
      <point x="467" y="558"/>
      <point x="373" y="558" type="curve" smooth="yes"/>
      <point x="185" y="558"/>
      <point x="61" y="429"/>
      <point x="61" y="240" type="curve" smooth="yes"/>
      <point x="61" y="50"/>
      <point x="135" y="-12"/>
    </contour>
  </outline>
</glyph>
<glyph name="patamil" format="2">
  <advance width="728"/>
  <unicode hex="0BAA"/>
  <outline>
    <contour>
      <point x="94" y="0" type="line"/>
      <point x="634" y="0" type="line"/>
      <point x="634" y="546" type="line"/>
      <point x="608" y="546" type="line"/>
      <point x="608" y="25" type="line"/>
      <point x="120" y="25" type="line"/>
      <point x="120" y="546" type="line"/>
      <point x="94" y="546" type="line"/>
    </contour>
  </outline>
</glyph>
<glyph name="matamil" format="2">
  <advance width="801"/>
  <unicode hex="0BAE"/>
  <outline>
    <contour>
      <point x="544" y="558" type="curve" smooth="yes"/>
      <point x="506" y="558"/>
      <point x="476" y="547"/>
      <point x="453" y="526" type="curve" smooth="yes"/>
      <point x="417" y="494"/>
      <point x="399" y="443"/>
      <point x="399" y="353" type="curve" smooth="yes"/>
      <point x="399" y="25" type="line"/>
      <point x="120" y="25" type="line"/>
      <point x="120" y="546" type="line"/>
      <point x="94" y="546" type="line"/>
      <point x="94" y="0" type="line"/>
      <point x="495" y="0" type="line" smooth="yes"/>
      <point x="590" y="0"/>
      <point x="647" y="28"/>
      <point x="680" y="70" type="curve" smooth="yes"/>
      <point x="724" y="125"/>
      <point x="733" y="193"/>
      <point x="733" y="263" type="curve" smooth="yes"/>
      <point x="733" y="432"/>
      <point x="665" y="558"/>
    </contour>
    <contour>
      <point x="544" y="533" type="curve" smooth="yes"/>
      <point x="652" y="533"/>
      <point x="706" y="409"/>
      <point x="706" y="264" type="curve" smooth="yes"/>
      <point x="706" y="99"/>
      <point x="646" y="25"/>
      <point x="495" y="25" type="curve" smooth="yes"/>
      <point x="425" y="25" type="line"/>
      <point x="425" y="339" type="line" smooth="yes"/>
      <point x="425" y="418"/>
      <point x="435" y="471"/>
      <point x="466" y="503" type="curve" smooth="yes"/>
      <point x="484" y="522"/>
      <point x="509" y="533"/>
    </contour>
  </outline>
</glyph>
<glyph name="ratamil" format="2">
  <advance width="603"/>
  <unicode hex="0BB0"/>
  <outline>
    <contour>
      <point x="170" y="-211" type="line"/>
      <point x="391" y="0" type="line"/>
      <point x="391" y="521" type="line"/>
      <point x="586" y="521" type="line"/>
      <point x="586" y="546" type="line"/>
      <point x="94" y="546" type="line"/>
      <point x="94" y="0" type="line"/>
      <point x="120" y="0" type="line"/>
      <point x="120" y="521" type="line"/>
      <point x="365" y="521" type="line"/>
      <point x="365" y="12" type="line"/>
      <point x="152" y="-192" type="line"/>
    </contour>
  </outline>
</glyph>
<glyph name="rratamil" format="2">
  <advance width="810"/>
  <unicode hex="0BB1"/>
  <outline>
    <contour>
      <point x="533" y="558" type="curve" smooth="yes"/>
      <point x="430" y="558"/>
      <point x="374" y="488"/>
      <point x="360" y="404" type="curve"/>
      <point x="367" y="405" type="line"/>
      <point x="362" y="482"/>
      <point x="328" y="558"/>
      <point x="235" y="558" type="curve" smooth="yes"/>
      <point x="192" y="558"/>
      <point x="157" y="541"/>
      <point x="133" y="512" type="curve" smooth="yes"/>
      <point x="105" y="476"/>
      <point x="92" y="430"/>
      <point x="92" y="344" type="curve" smooth="yes"/>
      <point x="92" y="0" type="line"/>
      <point x="118" y="0" type="line"/>
      <point x="118" y="334" type="line" smooth="yes"/>
      <point x="118" y="409"/>
      <point x="126" y="463"/>
      <point x="155" y="498" type="curve" smooth="yes"/>
      <point x="173" y="518"/>
      <point x="196" y="533"/>
      <point x="236" y="533" type="curve" smooth="yes"/>
      <point x="267" y="533"/>
      <point x="293" y="521"/>
      <point x="312" y="498" type="curve" smooth="yes"/>
      <point x="337" y="466"/>
      <point x="349" y="419"/>
      <point x="349" y="331" type="curve" smooth="yes"/>
      <point x="349" y="0" type="line"/>
      <point x="375" y="0" type="line"/>
      <point x="375" y="334" type="line" smooth="yes"/>
      <point x="375" y="406"/>
      <point x="394" y="463"/>
      <point x="436" y="499" type="curve" smooth="yes"/>
      <point x="460" y="520"/>
      <point x="491" y="533"/>
      <point x="531" y="533" type="curve" smooth="yes"/>
      <point x="636" y="533"/>
      <point x="711" y="455"/>
      <point x="711" y="254" type="curve" smooth="yes"/>
      <point x="711" y="-16"/>
      <point x="608" y="-106"/>
      <point x="357" y="-106" type="curve" smooth="yes"/>
      <point x="233" y="-106" type="line" smooth="yes"/>
      <point x="167" y="-106"/>
      <point x="124" y="-118"/>
      <point x="94" y="-142" type="curve" smooth="yes"/>
      <point x="65" y="-166"/>
      <point x="49" y="-202"/>
      <point x="49" y="-251" type="curve" smooth="yes"/>
      <point x="49" y="-277"/>
      <point x="53" y="-301"/>
      <point x="57" y="-321" type="curve"/>
      <point x="82" y="-320" type="line"/>
      <point x="78" y="-299"/>
      <point x="75" y="-279"/>
      <point x="75" y="-251" type="curve" smooth="yes"/>
      <point x="75" y="-209"/>
      <point x="86" y="-180"/>
      <point x="113" y="-160" type="curve" smooth="yes"/>
      <point x="137" y="-142"/>
      <point x="168" y="-131"/>
      <point x="241" y="-131" type="curve" smooth="yes"/>
      <point x="358" y="-131" type="line" smooth="yes"/>
      <point x="494" y="-131"/>
      <point x="579" y="-107"/>
      <point x="641" y="-50" type="curve" smooth="yes"/>
      <point x="706" y="10"/>
      <point x="738" y="110"/>
      <point x="738" y="252" type="curve" smooth="yes"/>
      <point x="738" y="472"/>
      <point x="650" y="558"/>
    </contour>
  </outline>
</glyph>
<glyph name="llatamil" format="2">
  <advance width="1008"/>
  <unicode hex="0BB3"/>
  <outline>
    <contour>
      <point x="227" y="-12" type="curve" smooth="yes"/>
      <point x="303" y="-12"/>
      <point x="374" y="22"/>
      <point x="374" y="152" type="curve" smooth="yes"/>
      <point x="374" y="259"/>
      <point x="310" y="312"/>
      <point x="229" y="312" type="curve" smooth="yes"/>
      <point x="159" y="312"/>
      <point x="102" y="272"/>
      <point x="70" y="235" type="curve"/>
      <point x="83" y="214" type="line"/>
      <point x="123" y="260"/>
      <point x="169" y="287"/>
      <point x="229" y="287" type="curve" smooth="yes"/>
      <point x="304" y="287"/>
      <point x="347" y="236"/>
      <point x="347" y="153" type="curve" smooth="yes"/>
      <point x="347" y="42"/>
      <point x="295" y="13"/>
      <point x="229" y="13" type="curve" smooth="yes"/>
      <point x="147" y="13"/>
      <point x="87" y="70"/>
      <point x="87" y="235" type="curve" smooth="yes"/>
      <point x="87" y="433"/>
      <point x="193" y="533"/>
      <point x="339" y="533" type="curve" smooth="yes"/>
      <point x="409" y="533"/>
      <point x="472" y="500"/>
      <point x="525" y="442" type="curve"/>
      <point x="525" y="476" type="line"/>
      <point x="490" y="512"/>
      <point x="426" y="558"/>
      <point x="340" y="558" type="curve" smooth="yes"/>
      <point x="183" y="558"/>
      <point x="61" y="453"/>
      <point x="61" y="237" type="curve" smooth="yes"/>
      <point x="61" y="50"/>
      <point x="135" y="-12"/>
    </contour>
    <contour>
      <point x="517" y="0" type="line"/>
      <point x="543" y="0" type="line"/>
      <point x="543" y="521" type="line"/>
      <point x="770" y="521" type="line"/>
      <point x="770" y="0" type="line"/>
      <point x="796" y="0" type="line"/>
      <point x="796" y="521" type="line"/>
      <point x="991" y="521" type="line"/>
      <point x="991" y="546" type="line"/>
      <point x="517" y="546" type="line"/>
      <point x="517" y="477" type="line"/>
      <point x="517" y="462" type="line"/>
    </contour>
  </outline>
</glyph>
<glyph name="lllatamil" format="2">
  <advance width="801"/>
  <unicode hex="0BB4"/>
  <outline>
    <contour>
      <point x="544" y="558" type="curve" smooth="yes"/>
      <point x="506" y="558"/>
      <point x="476" y="547"/>
      <point x="453" y="526" type="curve" smooth="yes"/>
      <point x="417" y="494"/>
      <point x="399" y="443"/>
      <point x="399" y="353" type="curve" smooth="yes"/>
      <point x="399" y="25" type="line"/>
      <point x="120" y="25" type="line"/>
      <point x="120" y="546" type="line"/>
      <point x="94" y="546" type="line"/>
      <point x="94" y="0" type="line"/>
      <point x="495" y="0" type="line" smooth="yes"/>
      <point x="590" y="0"/>
      <point x="647" y="28"/>
      <point x="680" y="70" type="curve" smooth="yes"/>
      <point x="724" y="125"/>
      <point x="733" y="193"/>
      <point x="733" y="263" type="curve" smooth="yes"/>
      <point x="733" y="432"/>
      <point x="665" y="558"/>
    </contour>
    <contour>
      <point x="544" y="533" type="curve" smooth="yes"/>
      <point x="652" y="533"/>
      <point x="706" y="409"/>
      <point x="706" y="264" type="curve" smooth="yes"/>
      <point x="706" y="99"/>
      <point x="646" y="25"/>
      <point x="495" y="25" type="curve" smooth="yes"/>
      <point x="425" y="25" type="line"/>
      <point x="425" y="339" type="line" smooth="yes"/>
      <point x="425" y="418"/>
      <point x="435" y="471"/>
      <point x="466" y="503" type="curve" smooth="yes"/>
      <point x="484" y="522"/>
      <point x="509" y="533"/>
    </contour>
    <contour>
      <point x="204" y="-83" type="curve" smooth="yes"/>
      <point x="123" y="-83"/>
      <point x="70" y="-126"/>
      <point x="70" y="-194" type="curve" smooth="yes"/>
      <point x="70" y="-231"/>
      <point x="82" y="-259"/>
      <point x="103" y="-279" type="curve" smooth="yes"/>
      <point x="133" y="-308"/>
      <point x="181" y="-321"/>
      <point x="250" y="-321" type="curve" smooth="yes"/>
      <point x="270" y="-321" type="line" smooth="yes"/>
      <point x="413" y="-321"/>
      <point x="457" y="-261"/>
      <point x="506" y="-175" type="curve" smooth="yes"/>
      <point x="520" y="-151"/>
      <point x="533" y="-135"/>
      <point x="553" y="-122" type="curve"/>
      <point x="524" y="-117" type="line"/>
      <point x="508" y="-126"/>
      <point x="496" y="-139"/>
      <point x="482" y="-164" type="curve" smooth="yes"/>
      <point x="434" y="-251"/>
      <point x="395" y="-296"/>
      <point x="269" y="-296" type="curve" smooth="yes"/>
      <point x="251" y="-296" type="line" smooth="yes"/>
      <point x="161" y="-296"/>
      <point x="97" y="-273"/>
      <point x="97" y="-194" type="curve" smooth="yes"/>
      <point x="97" y="-139"/>
      <point x="138" y="-108"/>
      <point x="206" y="-108" type="curve" smooth="yes"/>
      <point x="229" y="-108"/>
      <point x="245" y="-109"/>
      <point x="261" y="-112" type="curve"/>
      <point x="264" y="-87" type="line"/>
      <point x="245" y="-84"/>
      <point x="231" y="-83"/>
    </contour>
    <contour>
      <point x="529" y="-139" type="line"/>
      <point x="688" y="-139" type="line"/>
      <point x="688" y="-114" type="line"/>
      <point x="568" y="-114" type="line" smooth="yes"/>
      <point x="524" y="-114"/>
      <point x="497" y="-108"/>
      <point x="476" y="-97" type="curve" smooth="yes"/>
      <point x="442" y="-79"/>
      <point x="426" y="-46"/>
      <point x="425" y="2" type="curve"/>
      <point x="399" y="3" type="line"/>
      <point x="401" y="-86"/>
      <point x="448" y="-125"/>
      <point x="519" y="-135" type="curve"/>
    </contour>
  </outline>
</glyph>
<glyph name="shatamil" format="2">
  <advance width="1097"/>
  <unicode hex="0BB6"/>
  <outline>
    <contour>
      <point x="273" y="-12" type="curve" smooth="yes"/>
      <point x="327" y="-12"/>
      <point x="370" y="1"/>
      <point x="400" y="32" type="curve" smooth="yes"/>
      <point x="436" y="69"/>
      <point x="455" y="127"/>
      <point x="455" y="235" type="curve" smooth="yes"/>
      <point x="455" y="521" type="line"/>
      <point x="642" y="521" type="line"/>
      <point x="642" y="235" type="line" smooth="yes"/>
      <point x="642" y="127"/>
      <point x="661" y="69"/>
      <point x="697" y="32" type="curve" smooth="yes"/>
      <point x="727" y="1"/>
      <point x="770" y="-12"/>
      <point x="823" y="-12" type="curve" smooth="yes"/>
      <point x="877" y="-12"/>
      <point x="920" y="1"/>
      <point x="950" y="32" type="curve" smooth="yes"/>
      <point x="986" y="69"/>
      <point x="1005" y="127"/>
      <point x="1005" y="235" type="curve" smooth="yes"/>
      <point x="1005" y="546" type="line"/>
      <point x="429" y="546" type="line"/>
      <point x="429" y="238" type="line" smooth="yes"/>
      <point x="429" y="144"/>
      <point x="415" y="86"/>
      <point x="383" y="52" type="curve" smooth="yes"/>
      <point x="358" y="25"/>
      <point x="321" y="13"/>
      <point x="273" y="13" type="curve" smooth="yes"/>
      <point x="225" y="13"/>
      <point x="189" y="25"/>
      <point x="164" y="52" type="curve" smooth="yes"/>
      <point x="132" y="86"/>
      <point x="118" y="144"/>
      <point x="118" y="238" type="curve" smooth="yes"/>
      <point x="118" y="546" type="line"/>
      <point x="92" y="546" type="line"/>
      <point x="92" y="235" type="line" smooth="yes"/>
      <point x="92" y="127"/>
      <point x="111" y="69"/>
      <point x="147" y="32" type="curve" smooth="yes"/>
      <point x="177" y="1"/>
      <point x="220" y="-12"/>
    </contour>
    <contour>
      <point x="823" y="13" type="curve" smooth="yes"/>
      <point x="775" y="13"/>
      <point x="739" y="25"/>
      <point x="714" y="52" type="curve" smooth="yes"/>
      <point x="682" y="86"/>
      <point x="668" y="144"/>
      <point x="668" y="239" type="curve" smooth="yes"/>
      <point x="668" y="521" type="line"/>
      <point x="979" y="521" type="line"/>
      <point x="979" y="238" type="line" smooth="yes"/>
      <point x="979" y="144"/>
      <point x="965" y="86"/>
      <point x="933" y="52" type="curve" smooth="yes"/>
      <point x="908" y="25"/>
      <point x="871" y="13"/>
    </contour>
  </outline>
</glyph>
<glyph name="ssatamil" format="2">
  <advance width="1252"/>
  <unicode hex="0BB7"/>
  <outline>
    <contour>
      <point x="860" y="558" type="curve" smooth="yes"/>
      <point x="777" y="558"/>
      <point x="716" y="492"/>
      <point x="716" y="389" type="curve" smooth="yes"/>
      <point x="716" y="242"/>
      <point x="840" y="203"/>
      <point x="938" y="203" type="curve" smooth="yes"/>
      <point x="946" y="203" type="line" smooth="yes"/>
      <point x="1035" y="203"/>
      <point x="1095" y="230"/>
      <point x="1144" y="271" type="curve"/>
      <point x="1143" y="235"/>
      <point x="1143" y="217"/>
      <point x="1143" y="175" type="curve" smooth="yes"/>
      <point x="1143" y="25" type="line"/>
      <point x="817" y="25" type="line"/>
      <point x="816" y="0" type="line"/>
      <point x="1169" y="0" type="line"/>
      <point x="1169" y="305" type="line"/>
      <point x="1143" y="305" type="line"/>
      <point x="1092" y="258"/>
      <point x="1038" y="228"/>
      <point x="949" y="228" type="curve" smooth="yes"/>
      <point x="938" y="228" type="line" smooth="yes"/>
      <point x="842" y="228"/>
      <point x="743" y="264"/>
      <point x="743" y="389" type="curve" smooth="yes"/>
      <point x="743" y="481"/>
      <point x="794" y="533"/>
      <point x="860" y="533" type="curve" smooth="yes"/>
      <point x="918" y="533"/>
      <point x="959" y="495"/>
      <point x="959" y="409" type="curve" smooth="yes"/>
      <point x="959" y="346"/>
      <point x="948" y="283"/>
      <point x="934" y="229" type="curve" smooth="yes"/>
      <point x="882" y="18" type="line"/>
      <point x="880" y="10" type="line"/>
      <point x="809" y="-277" type="line"/>
      <point x="835" y="-284" type="line"/>
      <point x="958" y="213" type="line"/>
      <point x="963" y="235" type="line" smooth="yes"/>
      <point x="972" y="273"/>
      <point x="986" y="340"/>
      <point x="986" y="409" type="curve" smooth="yes"/>
      <point x="986" y="501"/>
      <point x="939" y="558"/>
    </contour>
    <contour>
      <point x="227" y="-12" type="curve" smooth="yes"/>
      <point x="303" y="-12"/>
      <point x="374" y="22"/>
      <point x="374" y="152" type="curve" smooth="yes"/>
      <point x="374" y="259"/>
      <point x="310" y="312"/>
      <point x="229" y="312" type="curve" smooth="yes"/>
      <point x="159" y="312"/>
      <point x="102" y="272"/>
      <point x="70" y="235" type="curve"/>
      <point x="83" y="214" type="line"/>
      <point x="123" y="260"/>
      <point x="169" y="287"/>
      <point x="229" y="287" type="curve" smooth="yes"/>
      <point x="304" y="287"/>
      <point x="347" y="235"/>
      <point x="347" y="153" type="curve" smooth="yes"/>
      <point x="347" y="42"/>
      <point x="295" y="13"/>
      <point x="229" y="13" type="curve" smooth="yes"/>
      <point x="147" y="13"/>
      <point x="87" y="70"/>
      <point x="87" y="235" type="curve" smooth="yes"/>
      <point x="87" y="433"/>
      <point x="193" y="533"/>
      <point x="342" y="533" type="curve" smooth="yes"/>
      <point x="484" y="533"/>
      <point x="570" y="433"/>
      <point x="570" y="284" type="curve" smooth="yes"/>
      <point x="570" y="167"/>
      <point x="533" y="87"/>
      <point x="498" y="24" type="curve"/>
      <point x="501" y="0" type="line"/>
      <point x="861" y="0" type="line"/>
      <point x="863" y="25" type="line"/>
      <point x="528" y="25" type="line"/>
      <point x="558" y="78"/>
      <point x="597" y="170"/>
      <point x="597" y="285" type="curve" smooth="yes"/>
      <point x="597" y="441"/>
      <point x="503" y="558"/>
      <point x="342" y="558" type="curve" smooth="yes"/>
      <point x="183" y="558"/>
      <point x="61" y="453"/>
      <point x="61" y="237" type="curve" smooth="yes"/>
      <point x="61" y="50"/>
      <point x="135" y="-12"/>
    </contour>
  </outline>
</glyph>
<glyph name="satamil" format="2">
  <advance width="1196"/>
  <unicode hex="0BB8"/>
  <outline>
    <contour>
      <point x="227" y="-12" type="curve" smooth="yes"/>
      <point x="303" y="-12"/>
      <point x="374" y="22"/>
      <point x="374" y="152" type="curve" smooth="yes"/>
      <point x="374" y="259"/>
      <point x="310" y="312"/>
      <point x="229" y="312" type="curve" smooth="yes"/>
      <point x="159" y="312"/>
      <point x="102" y="272"/>
      <point x="70" y="235" type="curve"/>
      <point x="83" y="214" type="line"/>
      <point x="123" y="260"/>
      <point x="169" y="287"/>
      <point x="229" y="287" type="curve" smooth="yes"/>
      <point x="304" y="287"/>
      <point x="347" y="236"/>
      <point x="347" y="153" type="curve" smooth="yes"/>
      <point x="347" y="42"/>
      <point x="295" y="13"/>
      <point x="229" y="13" type="curve" smooth="yes"/>
      <point x="147" y="13"/>
      <point x="87" y="70"/>
      <point x="87" y="236" type="curve" smooth="yes"/>
      <point x="87" y="434"/>
      <point x="189" y="533"/>
      <point x="326" y="533" type="curve" smooth="yes"/>
      <point x="380" y="533"/>
      <point x="414" y="520"/>
      <point x="447" y="497" type="curve" smooth="yes"/>
      <point x="498" y="462"/>
      <point x="528" y="396"/>
      <point x="528" y="287" type="curve" smooth="yes"/>
      <point x="528" y="0" type="line"/>
      <point x="554" y="0" type="line"/>
      <point x="554" y="332" type="line" smooth="yes"/>
      <point x="554" y="423"/>
      <point x="571" y="470"/>
      <point x="597" y="499" type="curve" smooth="yes"/>
      <point x="618" y="522"/>
      <point x="645" y="533"/>
      <point x="675" y="533" type="curve" smooth="yes"/>
      <point x="697" y="533"/>
      <point x="717" y="527"/>
      <point x="732" y="516" type="curve" smooth="yes"/>
      <point x="766" y="491"/>
      <point x="782" y="437"/>
      <point x="782" y="344" type="curve" smooth="yes"/>
      <point x="782" y="244" type="line" smooth="yes"/>
      <point x="782" y="154"/>
      <point x="791" y="80"/>
      <point x="839" y="31" type="curve" smooth="yes"/>
      <point x="865" y="4"/>
      <point x="902" y="-12"/>
      <point x="957" y="-12" type="curve" smooth="yes"/>
      <point x="1060" y="-12"/>
      <point x="1132" y="61"/>
      <point x="1132" y="235" type="curve" smooth="yes"/>
      <point x="1132" y="377"/>
      <point x="1072" y="490"/>
      <point x="983" y="573" type="curve"/>
      <point x="963" y="555" type="line"/>
      <point x="1039" y="484"/>
      <point x="1105" y="388"/>
      <point x="1105" y="234" type="curve" smooth="yes"/>
      <point x="1105" y="75"/>
      <point x="1044" y="13"/>
      <point x="958" y="13" type="curve" smooth="yes"/>
      <point x="908" y="13"/>
      <point x="880" y="26"/>
      <point x="858" y="48" type="curve" smooth="yes"/>
      <point x="812" y="94"/>
      <point x="808" y="171"/>
      <point x="808" y="252" type="curve" smooth="yes"/>
      <point x="808" y="359" type="line" smooth="yes"/>
      <point x="808" y="440"/>
      <point x="793" y="505"/>
      <point x="744" y="539" type="curve" smooth="yes"/>
      <point x="726" y="552"/>
      <point x="702" y="558"/>
      <point x="675" y="558" type="curve" smooth="yes"/>
      <point x="578" y="558"/>
      <point x="537" y="470"/>
      <point x="533" y="384" type="curve"/>
      <point x="540" y="392" type="line"/>
      <point x="510" y="511"/>
      <point x="427" y="558"/>
      <point x="326" y="558" type="curve" smooth="yes"/>
      <point x="179" y="558"/>
      <point x="61" y="453"/>
      <point x="61" y="241" type="curve" smooth="yes"/>
      <point x="61" y="50"/>
      <point x="133" y="-12"/>
    </contour>
  </outline>
</glyph>
<glyph name="hatamil" format="2">
  <advance width="1549"/>
  <unicode hex="0BB9"/>
  <outline>
    <contour>
      <point x="1272" y="558" type="curve" smooth="yes"/>
      <point x="1169" y="558"/>
      <point x="1113" y="488"/>
      <point x="1099" y="404" type="curve"/>
      <point x="1106" y="405" type="line"/>
      <point x="1101" y="482"/>
      <point x="1067" y="558"/>
      <point x="974" y="558" type="curve" smooth="yes"/>
      <point x="931" y="558"/>
      <point x="896" y="541"/>
      <point x="872" y="512" type="curve" smooth="yes"/>
      <point x="844" y="476"/>
      <point x="831" y="430"/>
      <point x="831" y="344" type="curve" smooth="yes"/>
      <point x="831" y="0" type="line"/>
      <point x="857" y="0" type="line"/>
      <point x="857" y="334" type="line" smooth="yes"/>
      <point x="857" y="409"/>
      <point x="865" y="463"/>
      <point x="894" y="498" type="curve" smooth="yes"/>
      <point x="912" y="518"/>
      <point x="935" y="533"/>
      <point x="975" y="533" type="curve" smooth="yes"/>
      <point x="1006" y="533"/>
      <point x="1032" y="521"/>
      <point x="1051" y="498" type="curve" smooth="yes"/>
      <point x="1076" y="466"/>
      <point x="1088" y="419"/>
      <point x="1088" y="331" type="curve" smooth="yes"/>
      <point x="1088" y="0" type="line"/>
      <point x="1114" y="0" type="line"/>
      <point x="1114" y="334" type="line" smooth="yes"/>
      <point x="1114" y="406"/>
      <point x="1133" y="463"/>
      <point x="1175" y="499" type="curve" smooth="yes"/>
      <point x="1199" y="520"/>
      <point x="1230" y="533"/>
      <point x="1270" y="533" type="curve" smooth="yes"/>
      <point x="1375" y="533"/>
      <point x="1450" y="455"/>
      <point x="1450" y="254" type="curve" smooth="yes"/>
      <point x="1450" y="-16"/>
      <point x="1347" y="-106"/>
      <point x="1096" y="-106" type="curve" smooth="yes"/>
      <point x="236" y="-106" type="line" smooth="yes"/>
      <point x="170" y="-106"/>
      <point x="127" y="-118"/>
      <point x="97" y="-142" type="curve" smooth="yes"/>
      <point x="68" y="-166"/>
      <point x="52" y="-202"/>
      <point x="52" y="-251" type="curve" smooth="yes"/>
      <point x="52" y="-277"/>
      <point x="56" y="-301"/>
      <point x="60" y="-321" type="curve"/>
      <point x="85" y="-320" type="line"/>
      <point x="81" y="-299"/>
      <point x="78" y="-279"/>
      <point x="78" y="-251" type="curve" smooth="yes"/>
      <point x="78" y="-209"/>
      <point x="89" y="-180"/>
      <point x="116" y="-160" type="curve" smooth="yes"/>
      <point x="140" y="-142"/>
      <point x="171" y="-131"/>
      <point x="244" y="-131" type="curve" smooth="yes"/>
      <point x="1097" y="-131" type="line" smooth="yes"/>
      <point x="1233" y="-131"/>
      <point x="1318" y="-107"/>
      <point x="1380" y="-50" type="curve" smooth="yes"/>
      <point x="1445" y="10"/>
      <point x="1477" y="110"/>
      <point x="1477" y="252" type="curve" smooth="yes"/>
      <point x="1477" y="472"/>
      <point x="1389" y="558"/>
    </contour>
    <contour>
      <point x="227" y="-12" type="curve" smooth="yes"/>
      <point x="303" y="-12"/>
      <point x="374" y="22"/>
      <point x="374" y="152" type="curve" smooth="yes"/>
      <point x="374" y="259"/>
      <point x="310" y="312"/>
      <point x="229" y="312" type="curve" smooth="yes"/>
      <point x="159" y="312"/>
      <point x="102" y="272"/>
      <point x="70" y="235" type="curve"/>
      <point x="83" y="214" type="line"/>
      <point x="123" y="260"/>
      <point x="169" y="287"/>
      <point x="229" y="287" type="curve" smooth="yes"/>
      <point x="304" y="287"/>
      <point x="347" y="235"/>
      <point x="347" y="153" type="curve" smooth="yes"/>
      <point x="347" y="42"/>
      <point x="295" y="13"/>
      <point x="229" y="13" type="curve" smooth="yes"/>
      <point x="147" y="13"/>
      <point x="87" y="70"/>
      <point x="87" y="235" type="curve" smooth="yes"/>
      <point x="87" y="433"/>
      <point x="193" y="533"/>
      <point x="342" y="533" type="curve" smooth="yes"/>
      <point x="484" y="533"/>
      <point x="570" y="433"/>
      <point x="570" y="284" type="curve" smooth="yes"/>
      <point x="570" y="167"/>
      <point x="533" y="87"/>
      <point x="498" y="24" type="curve"/>
      <point x="501" y="0" type="line"/>
      <point x="842" y="0" type="line"/>
      <point x="842" y="25" type="line"/>
      <point x="528" y="25" type="line"/>
      <point x="558" y="78"/>
      <point x="597" y="170"/>
      <point x="597" y="285" type="curve" smooth="yes"/>
      <point x="597" y="441"/>
      <point x="503" y="558"/>
      <point x="342" y="558" type="curve" smooth="yes"/>
      <point x="183" y="558"/>
      <point x="61" y="453"/>
      <point x="61" y="237" type="curve" smooth="yes"/>
      <point x="61" y="50"/>
      <point x="135" y="-12"/>
    </contour>
  </outline>
</glyph>
<glyph name="aavowelsigntamil" format="2">
  <advance width="603"/>
  <unicode hex="0BBE"/>
  <outline>
    <contour>
      <point x="94" y="0" type="line"/>
      <point x="120" y="0" type="line"/>
      <point x="120" y="521" type="line"/>
      <point x="365" y="521" type="line"/>
      <point x="365" y="0" type="line"/>
      <point x="391" y="0" type="line"/>
      <point x="391" y="521" type="line"/>
      <point x="586" y="521" type="line"/>
      <point x="586" y="546" type="line"/>
      <point x="94" y="546" type="line"/>
    </contour>
  </outline>
</glyph>
<glyph name="ivowelsigntamil" format="2">
  <advance width="214"/>
  <unicode hex="0BBF"/>
  <outline>
    <contour>
      <point x="-89" y="839" type="curve" smooth="yes"/>
      <point x="-191" y="839"/>
      <point x="-265" y="778"/>
      <point x="-265" y="660" type="curve" smooth="yes"/>
      <point x="-265" y="605"/>
      <point x="-251" y="564"/>
      <point x="-232" y="526" type="curve"/>
      <point x="-204" y="526" type="line"/>
      <point x="-228" y="571"/>
      <point x="-239" y="610"/>
      <point x="-239" y="659" type="curve" smooth="yes"/>
      <point x="-239" y="755"/>
      <point x="-185" y="814"/>
      <point x="-88" y="814" type="curve" smooth="yes"/>
      <point x="-30" y="814"/>
      <point x="10" y="793"/>
      <point x="38" y="758" type="curve" smooth="yes"/>
      <point x="80" y="704"/>
      <point x="94" y="616"/>
      <point x="94" y="495" type="curve" smooth="yes"/>
      <point x="94" y="0" type="line"/>
      <point x="120" y="0" type="line"/>
      <point x="120" y="506" type="line" smooth="yes"/>
      <point x="120" y="634"/>
      <point x="102" y="720"/>
      <point x="58" y="775" type="curve" smooth="yes"/>
      <point x="25" y="817"/>
      <point x="-23" y="839"/>
    </contour>
  </outline>
</glyph>
<glyph name="iivowelsigntamil" format="2">
  <unicode hex="0BC0"/>
  <outline>
    <contour>
      <point x="-142" y="839" type="curve" smooth="yes"/>
      <point x="-288" y="839"/>
      <point x="-370" y="754"/>
      <point x="-370" y="632" type="curve" smooth="yes"/>
      <point x="-370" y="594"/>
      <point x="-360" y="560"/>
      <point x="-353" y="537" type="curve"/>
      <point x="-327" y="540" type="line"/>
      <point x="-338" y="569"/>
      <point x="-344" y="599"/>
      <point x="-344" y="631" type="curve" smooth="yes"/>
      <point x="-344" y="728"/>
      <point x="-290" y="805"/>
      <point x="-165" y="814" type="curve"/>
      <point x="-157" y="814"/>
      <point x="-145" y="814"/>
      <point x="-136" y="814" type="curve" smooth="yes"/>
      <point x="-66" y="814"/>
      <point x="-19" y="777"/>
      <point x="-19" y="718" type="curve" smooth="yes"/>
      <point x="-19" y="664"/>
      <point x="-49" y="636"/>
      <point x="-103" y="636" type="curve" smooth="yes"/>
      <point x="-143" y="636"/>
      <point x="-186" y="651"/>
      <point x="-186" y="722" type="curve" smooth="yes"/>
      <point x="-186" y="764"/>
      <point x="-166" y="799"/>
      <point x="-140" y="823" type="curve"/>
      <point x="-170" y="826" type="line"/>
      <point x="-194" y="799"/>
      <point x="-213" y="766"/>
      <point x="-213" y="721" type="curve" smooth="yes"/>
      <point x="-213" y="646"/>
      <point x="-168" y="611"/>
      <point x="-103" y="611" type="curve" smooth="yes"/>
      <point x="-41" y="611"/>
      <point x="8" y="645"/>
      <point x="8" y="719" type="curve" smooth="yes"/>
      <point x="8" y="794"/>
      <point x="-55" y="839"/>
    </contour>
  </outline>
</glyph>
<glyph name="uvowelsigntamil" format="2">
  <advance width="465"/>
  <unicode hex="0BC1"/>
  <outline>
    <contour>
      <point x="281" y="240" type="curve" smooth="yes"/>
      <point x="362" y="240"/>
      <point x="420" y="289"/>
      <point x="420" y="386" type="curve" smooth="yes"/>
      <point x="420" y="447"/>
      <point x="397" y="486"/>
      <point x="360" y="510" type="curve" smooth="yes"/>
      <point x="317" y="538"/>
      <point x="269" y="546"/>
      <point x="187" y="546" type="curve" smooth="yes"/>
      <point x="-204" y="546" type="line"/>
      <point x="-187" y="521" type="line"/>
      <point x="185" y="521" type="line" smooth="yes"/>
      <point x="261" y="521"/>
      <point x="308" y="515"/>
      <point x="345" y="489" type="curve" smooth="yes"/>
      <point x="374" y="469"/>
      <point x="393" y="436"/>
      <point x="393" y="385" type="curve" smooth="yes"/>
      <point x="393" y="301"/>
      <point x="346" y="265"/>
      <point x="281" y="265" type="curve" smooth="yes"/>
      <point x="202" y="265"/>
      <point x="152" y="324"/>
      <point x="152" y="417" type="curve" smooth="yes"/>
      <point x="152" y="472"/>
      <point x="161" y="506"/>
      <point x="169" y="536" type="curve"/>
      <point x="144" y="544" type="line"/>
      <point x="134" y="513"/>
      <point x="125" y="469"/>
      <point x="125" y="417" type="curve" smooth="yes"/>
      <point x="125" y="312"/>
      <point x="185" y="240"/>
    </contour>
  </outline>
</glyph>
<glyph name="uuvowelsigntamil" format="2">
  <advance width="801"/>
  <unicode hex="0BC2"/>
  <outline>
    <contour>
      <point x="381" y="39" type="curve" smooth="yes"/>
      <point x="568" y="39"/>
      <point x="737" y="117"/>
      <point x="737" y="418" type="curve" smooth="yes"/>
      <point x="737" y="599"/>
      <point x="641" y="743"/>
      <point x="445" y="743" type="curve" smooth="yes"/>
      <point x="290" y="743"/>
      <point x="195" y="659"/>
      <point x="162" y="540" type="curve"/>
      <point x="159" y="530" type="line"/>
      <point x="152" y="500"/>
      <point x="148" y="468"/>
      <point x="148" y="434" type="curve" smooth="yes"/>
      <point x="148" y="307"/>
      <point x="210" y="240"/>
      <point x="304" y="240" type="curve" smooth="yes"/>
      <point x="385" y="240"/>
      <point x="443" y="289"/>
      <point x="443" y="386" type="curve" smooth="yes"/>
      <point x="443" y="445"/>
      <point x="420" y="486"/>
      <point x="383" y="510" type="curve" smooth="yes"/>
      <point x="340" y="538"/>
      <point x="292" y="546"/>
      <point x="210" y="546" type="curve" smooth="yes"/>
      <point x="-205" y="546" type="line"/>
      <point x="-187" y="521" type="line"/>
      <point x="208" y="521" type="line" smooth="yes"/>
      <point x="284" y="521"/>
      <point x="331" y="515"/>
      <point x="368" y="489" type="curve" smooth="yes"/>
      <point x="397" y="469"/>
      <point x="416" y="436"/>
      <point x="416" y="385" type="curve" smooth="yes"/>
      <point x="416" y="301"/>
      <point x="369" y="265"/>
      <point x="304" y="265" type="curve" smooth="yes"/>
      <point x="228" y="265"/>
      <point x="175" y="317"/>
      <point x="175" y="435" type="curve" smooth="yes"/>
      <point x="175" y="470"/>
      <point x="179" y="502"/>
      <point x="187" y="532" type="curve"/>
      <point x="189" y="540" type="line"/>
      <point x="222" y="650"/>
      <point x="313" y="719"/>
      <point x="444" y="719" type="curve" smooth="yes"/>
      <point x="630" y="719"/>
      <point x="710" y="577"/>
      <point x="710" y="418" type="curve" smooth="yes"/>
      <point x="710" y="131"/>
      <point x="555" y="64"/>
      <point x="379" y="64" type="curve" smooth="yes"/>
      <point x="259" y="64"/>
      <point x="174" y="101"/>
      <point x="104" y="149" type="curve"/>
      <point x="89" y="127" type="line"/>
      <point x="144" y="89"/>
      <point x="244" y="39"/>
    </contour>
  </outline>
</glyph>
<glyph name="evowelsigntamil" format="2">
  <advance width="849"/>
  <unicode hex="0BC6"/>
  <outline>
    <contour>
      <point x="377" y="-12" type="curve" smooth="yes"/>
      <point x="473" y="-12"/>
      <point x="556" y="37"/>
      <point x="556" y="159" type="curve" smooth="yes"/>
      <point x="556" y="258"/>
      <point x="496" y="318"/>
      <point x="408" y="318" type="curve" smooth="yes"/>
      <point x="316" y="318"/>
      <point x="256" y="254"/>
      <point x="256" y="163" type="curve" smooth="yes"/>
      <point x="256" y="105"/>
      <point x="279" y="45"/>
      <point x="328" y="2" type="curve"/>
      <point x="350" y="7" type="line"/>
      <point x="301" y="58"/>
      <point x="283" y="103"/>
      <point x="283" y="162" type="curve" smooth="yes"/>
      <point x="283" y="238"/>
      <point x="328" y="293"/>
      <point x="408" y="293" type="curve" smooth="yes"/>
      <point x="485" y="293"/>
      <point x="529" y="239"/>
      <point x="529" y="160" type="curve" smooth="yes"/>
      <point x="529" y="56"/>
      <point x="464" y="13"/>
      <point x="377" y="13" type="curve" smooth="yes"/>
      <point x="362" y="13"/>
      <point x="346" y="14"/>
      <point x="332" y="16" type="curve" smooth="yes"/>
      <point x="319" y="18" type="line"/>
      <point x="156" y="52"/>
      <point x="98" y="232"/>
      <point x="98" y="381" type="curve" smooth="yes"/>
      <point x="98" y="686"/>
      <point x="307" y="814"/>
      <point x="461" y="814" type="curve" smooth="yes"/>
      <point x="549" y="814"/>
      <point x="607" y="790"/>
      <point x="647" y="747" type="curve" smooth="yes"/>
      <point x="711" y="677"/>
      <point x="729" y="560"/>
      <point x="729" y="377" type="curve" smooth="yes"/>
      <point x="729" y="0" type="line"/>
      <point x="755" y="0" type="line"/>
      <point x="755" y="403" type="line" smooth="yes"/>
      <point x="755" y="581"/>
      <point x="734" y="697"/>
      <point x="661" y="770" type="curve" smooth="yes"/>
      <point x="616" y="815"/>
      <point x="552" y="839"/>
      <point x="462" y="839" type="curve" smooth="yes"/>
      <point x="286" y="839"/>
      <point x="71" y="695"/>
      <point x="71" y="380" type="curve" smooth="yes"/>
      <point x="71" y="189"/>
      <point x="159" y="-12"/>
    </contour>
  </outline>
</glyph>
<glyph name="eevowelsigntamil" format="2">
  <advance width="681"/>
  <unicode hex="0BC7"/>
  <outline>
    <contour>
      <point x="435" y="-12" type="curve" smooth="yes"/>
      <point x="546" y="-12"/>
      <point x="632" y="43"/>
      <point x="632" y="159" type="curve" smooth="yes"/>
      <point x="632" y="263"/>
      <point x="569" y="315"/>
      <point x="487" y="315" type="curve" smooth="yes"/>
      <point x="405" y="315"/>
      <point x="341" y="259"/>
      <point x="341" y="160" type="curve" smooth="yes"/>
      <point x="341" y="88"/>
      <point x="366" y="43"/>
      <point x="414" y="-3" type="curve"/>
      <point x="439" y="3" type="line"/>
      <point x="390" y="51"/>
      <point x="368" y="100"/>
      <point x="368" y="160" type="curve" smooth="yes"/>
      <point x="368" y="246"/>
      <point x="419" y="290"/>
      <point x="487" y="290" type="curve" smooth="yes"/>
      <point x="562" y="290"/>
      <point x="605" y="240"/>
      <point x="605" y="160" type="curve" smooth="yes"/>
      <point x="605" y="56"/>
      <point x="532" y="13"/>
      <point x="435" y="13" type="curve" smooth="yes"/>
      <point x="428" y="13"/>
      <point x="421" y="13"/>
      <point x="413" y="13" type="curve"/>
      <point x="215" y="22"/>
      <point x="96" y="178"/>
      <point x="96" y="418" type="curve" smooth="yes"/>
      <point x="96" y="647"/>
      <point x="231" y="795"/>
      <point x="420" y="813" type="curve" smooth="yes"/>
      <point x="432" y="814"/>
      <point x="444" y="814"/>
      <point x="456" y="814" type="curve" smooth="yes"/>
      <point x="546" y="814"/>
      <point x="618" y="775"/>
      <point x="618" y="677" type="curve" smooth="yes"/>
      <point x="618" y="600"/>
      <point x="573" y="559"/>
      <point x="506" y="559" type="curve" smooth="yes"/>
      <point x="430" y="559"/>
      <point x="390" y="605"/>
      <point x="390" y="676" type="curve" smooth="yes"/>
      <point x="390" y="746"/>
      <point x="414" y="780"/>
      <point x="454" y="827" type="curve"/>
      <point x="429" y="831" type="line"/>
      <point x="383" y="787"/>
      <point x="363" y="737"/>
      <point x="363" y="675" type="curve" smooth="yes"/>
      <point x="363" y="581"/>
      <point x="425" y="534"/>
      <point x="506" y="534" type="curve" smooth="yes"/>
      <point x="579" y="534"/>
      <point x="645" y="577"/>
      <point x="645" y="678" type="curve" smooth="yes"/>
      <point x="645" y="794"/>
      <point x="552" y="839"/>
      <point x="457" y="839" type="curve" smooth="yes"/>
      <point x="257" y="839"/>
      <point x="69" y="698"/>
      <point x="69" y="418" type="curve" smooth="yes"/>
      <point x="69" y="144"/>
      <point x="217" y="-12"/>
    </contour>
  </outline>
</glyph>
<glyph name="aivowelsigntamil" format="2">
  <advance width="1081"/>
  <unicode hex="0BC8"/>
  <outline>
    <contour>
      <point x="227" y="-12" type="curve" smooth="yes"/>
      <point x="300" y="-12"/>
      <point x="374" y="22"/>
      <point x="374" y="152" type="curve" smooth="yes"/>
      <point x="374" y="259"/>
      <point x="310" y="312"/>
      <point x="229" y="312" type="curve" smooth="yes"/>
      <point x="159" y="312"/>
      <point x="102" y="272"/>
      <point x="70" y="235" type="curve"/>
      <point x="83" y="214" type="line"/>
      <point x="123" y="260"/>
      <point x="169" y="287"/>
      <point x="229" y="287" type="curve" smooth="yes"/>
      <point x="304" y="287"/>
      <point x="347" y="236"/>
      <point x="347" y="153" type="curve" smooth="yes"/>
      <point x="347" y="42"/>
      <point x="295" y="13"/>
      <point x="229" y="13" type="curve" smooth="yes"/>
      <point x="147" y="13"/>
      <point x="87" y="70"/>
      <point x="87" y="235" type="curve" smooth="yes"/>
      <point x="87" y="238"/>
      <point x="87" y="241"/>
      <point x="87" y="244" type="curve"/>
      <point x="90" y="417"/>
      <point x="201" y="533"/>
      <point x="371" y="533" type="curve" smooth="yes"/>
      <point x="464" y="533"/>
      <point x="537" y="498"/>
      <point x="593" y="450" type="curve"/>
      <point x="674" y="380"/>
      <point x="716" y="278"/>
      <point x="716" y="174" type="curve" smooth="yes"/>
      <point x="716" y="67"/>
      <point x="684" y="13"/>
      <point x="607" y="13" type="curve" smooth="yes"/>
      <point x="542" y="13"/>
      <point x="499" y="57"/>
      <point x="499" y="178" type="curve" smooth="yes"/>
      <point x="499" y="279"/>
      <point x="533" y="391"/>
      <point x="601" y="461" type="curve" smooth="yes"/>
      <point x="643" y="505"/>
      <point x="699" y="533"/>
      <point x="767" y="533" type="curve" smooth="yes"/>
      <point x="914" y="533"/>
      <point x="984" y="425"/>
      <point x="984" y="284" type="curve" smooth="yes"/>
      <point x="984" y="169"/>
      <point x="949" y="79"/>
      <point x="897" y="4" type="curve"/>
      <point x="920" y="-12" type="line"/>
      <point x="966" y="59"/>
      <point x="1011" y="156"/>
      <point x="1011" y="286" type="curve" smooth="yes"/>
      <point x="1011" y="434"/>
      <point x="932" y="558"/>
      <point x="768" y="558" type="curve" smooth="yes"/>
      <point x="692" y="558"/>
      <point x="631" y="528"/>
      <point x="586" y="481" type="curve"/>
      <point x="577" y="471" type="line"/>
      <point x="502" y="390"/>
      <point x="472" y="273"/>
      <point x="472" y="178" type="curve" smooth="yes"/>
      <point x="472" y="50"/>
      <point x="519" y="-12"/>
      <point x="610" y="-12" type="curve" smooth="yes"/>
      <point x="692" y="-12"/>
      <point x="743" y="43"/>
      <point x="743" y="175" type="curve" smooth="yes"/>
      <point x="743" y="280"/>
      <point x="703" y="385"/>
      <point x="608" y="471" type="curve"/>
      <point x="600" y="478" type="line"/>
      <point x="541" y="525"/>
      <point x="463" y="558"/>
      <point x="373" y="558" type="curve" smooth="yes"/>
      <point x="185" y="558"/>
      <point x="61" y="429"/>
      <point x="61" y="240" type="curve" smooth="yes"/>
      <point x="61" y="50"/>
      <point x="135" y="-12"/>
    </contour>
  </outline>
</glyph>
<glyph name="viramatamil" format="2">
  <unicode hex="0BCD"/>
  <outline>
    <contour>
      <point x="-279" y="696" type="curve" smooth="yes"/>
      <point x="-257" y="696"/>
      <point x="-243" y="709"/>
      <point x="-243" y="734" type="curve" smooth="yes"/>
      <point x="-243" y="759"/>
      <point x="-257" y="772"/>
      <point x="-279" y="772" type="curve" smooth="yes"/>
      <point x="-301" y="772"/>
      <point x="-315" y="759"/>
      <point x="-315" y="734" type="curve" smooth="yes"/>
      <point x="-315" y="709"/>
      <point x="-301" y="696"/>
    </contour>
  </outline>
</glyph>
<glyph name="ohmsigntamil" format="2">
  <advance width="1062"/>
  <unicode hex="0BD0"/>
  <outline>
    <contour>
      <point x="539" y="558" type="curve" smooth="yes"/>
      <point x="403" y="558"/>
      <point x="278" y="539"/>
      <point x="184" y="482" type="curve" smooth="yes"/>
      <point x="107" y="435"/>
      <point x="56" y="361"/>
      <point x="56" y="257" type="curve" smooth="yes"/>
      <point x="56" y="133"/>
      <point x="123" y="73"/>
      <point x="208" y="73" type="curve" smooth="yes"/>
      <point x="290" y="73"/>
      <point x="353" y="119"/>
      <point x="353" y="229" type="curve" smooth="yes"/>
      <point x="353" y="321"/>
      <point x="301" y="378"/>
      <point x="215" y="378" type="curve" smooth="yes"/>
      <point x="152" y="378"/>
      <point x="101" y="345"/>
      <point x="61" y="300" type="curve"/>
      <point x="74" y="283" type="line"/>
      <point x="120" y="328"/>
      <point x="159" y="353"/>
      <point x="216" y="353" type="curve" smooth="yes"/>
      <point x="276" y="353"/>
      <point x="326" y="318"/>
      <point x="326" y="228" type="curve" smooth="yes"/>
      <point x="326" y="133"/>
      <point x="275" y="98"/>
      <point x="209" y="98" type="curve" smooth="yes"/>
      <point x="130" y="98"/>
      <point x="83" y="156"/>
      <point x="83" y="259" type="curve" smooth="yes"/>
      <point x="83" y="278"/>
      <point x="84" y="299"/>
      <point x="89" y="319" type="curve"/>
      <point x="117" y="433"/>
      <point x="239" y="533"/>
      <point x="537" y="533" type="curve" smooth="yes"/>
      <point x="797" y="533"/>
      <point x="979" y="426"/>
      <point x="979" y="249" type="curve" smooth="yes"/>
      <point x="979" y="157"/>
      <point x="941" y="111"/>
      <point x="871" y="111" type="curve" smooth="yes"/>
      <point x="794" y="111"/>
      <point x="764" y="156"/>
      <point x="764" y="212" type="curve" smooth="yes"/>
      <point x="764" y="257"/>
      <point x="774" y="294"/>
      <point x="798" y="328" type="curve"/>
      <point x="776" y="345" type="line"/>
      <point x="684" y="320"/>
      <point x="599" y="255"/>
      <point x="599" y="128" type="curve" smooth="yes"/>
      <point x="599" y="41"/>
      <point x="637" y="-49"/>
      <point x="777" y="-75" type="curve" smooth="yes"/>
      <point x="809" y="-81"/>
      <point x="846" y="-83"/>
      <point x="864" y="-83" type="curve" smooth="yes"/>
      <point x="949" y="-83" type="line"/>
      <point x="949" y="-59" type="line"/>
      <point x="875" y="-59" type="line" smooth="yes"/>
      <point x="770" y="-59"/>
      <point x="711" y="-38"/>
      <point x="671" y="2" type="curve" smooth="yes"/>
      <point x="641" y="32"/>
      <point x="626" y="73"/>
      <point x="626" y="128" type="curve" smooth="yes"/>
      <point x="626" y="232"/>
      <point x="688" y="297"/>
      <point x="783" y="322" type="curve"/>
      <point x="770" y="330" type="line"/>
      <point x="749" y="298"/>
      <point x="737" y="255"/>
      <point x="737" y="214" type="curve" smooth="yes"/>
      <point x="737" y="135"/>
      <point x="787" y="86"/>
      <point x="869" y="86" type="curve" smooth="yes"/>
      <point x="960" y="86"/>
      <point x="1006" y="148"/>
      <point x="1006" y="250" type="curve" smooth="yes"/>
      <point x="1006" y="340"/>
      <point x="963" y="412"/>
      <point x="893" y="463" type="curve" smooth="yes"/>
      <point x="808" y="525"/>
      <point x="689" y="558"/>
    </contour>
    <contour>
      <point x="85" y="-136" type="curve" smooth="yes"/>
      <point x="85" y="-271"/>
      <point x="188" y="-321"/>
      <point x="376" y="-321" type="curve" smooth="yes"/>
      <point x="388" y="-321" type="line" smooth="yes"/>
      <point x="614" y="-321"/>
      <point x="707" y="-236"/>
      <point x="770" y="-107" type="curve" smooth="yes"/>
      <point x="786" y="-74" type="line"/>
      <point x="761" y="-67" type="line"/>
      <point x="686" y="-222"/>
      <point x="610" y="-296"/>
      <point x="381" y="-296" type="curve" smooth="yes"/>
      <point x="197" y="-296"/>
      <point x="112" y="-253"/>
      <point x="112" y="-137" type="curve" smooth="yes"/>
      <point x="112" y="-88"/>
      <point x="127" y="-46"/>
      <point x="155" y="2" type="curve"/>
      <point x="132" y="14" type="line"/>
      <point x="98" y="-40"/>
      <point x="85" y="-88"/>
    </contour>
    <contour>
      <point x="470" y="28" type="curve" smooth="yes"/>
      <point x="452" y="28"/>
      <point x="437" y="22"/>
      <point x="427" y="13" type="curve" smooth="yes"/>
      <point x="410" y="-2"/>
      <point x="404" y="-21"/>
      <point x="404" y="-51" type="curve" smooth="yes"/>
      <point x="404" y="-183" type="line"/>
      <point x="286" y="-183" type="line"/>
      <point x="286" y="21" type="line"/>
      <point x="260" y="21" type="line"/>
      <point x="260" y="-207" type="line"/>
      <point x="465" y="-207" type="line" smooth="yes"/>
      <point x="504" y="-207"/>
      <point x="532" y="-199"/>
      <point x="550" y="-178" type="curve" smooth="yes"/>
      <point x="564" y="-161"/>
      <point x="572" y="-137"/>
      <point x="572" y="-101" type="curve" smooth="yes"/>
      <point x="572" y="-65"/>
      <point x="559" y="-26"/>
      <point x="535" y="-1" type="curve" smooth="yes"/>
      <point x="519" y="15"/>
      <point x="499" y="28"/>
    </contour>
    <contour>
      <point x="470" y="4" type="curve" smooth="yes"/>
      <point x="517" y="4"/>
      <point x="545" y="-49"/>
      <point x="545" y="-101" type="curve" smooth="yes"/>
      <point x="545" y="-166"/>
      <point x="520" y="-183"/>
      <point x="466" y="-183" type="curve" smooth="yes"/>
      <point x="430" y="-183" type="line"/>
      <point x="430" y="-53" type="line" smooth="yes"/>
      <point x="430" y="-13"/>
      <point x="443" y="4"/>
    </contour>
    <contour>
      <point x="456" y="84" type="curve" smooth="yes"/>
      <point x="476" y="84"/>
      <point x="485" y="99"/>
      <point x="485" y="118" type="curve" smooth="yes"/>
      <point x="485" y="138"/>
      <point x="475" y="153"/>
      <point x="456" y="153" type="curve" smooth="yes"/>
      <point x="436" y="153"/>
      <point x="426" y="138"/>
      <point x="426" y="118" type="curve" smooth="yes"/>
      <point x="426" y="99"/>
      <point x="436" y="84"/>
    </contour>
  </outline>
</glyph>
<glyph name="zerotamil" format="2">
  <advance width="609"/>
  <unicode hex="0BE6"/>
  <outline>
    <contour>
      <point x="304" y="-12" type="curve" smooth="yes"/>
      <point x="446" y="-12"/>
      <point x="546" y="97"/>
      <point x="546" y="273" type="curve" smooth="yes"/>
      <point x="546" y="449"/>
      <point x="446" y="558"/>
      <point x="304" y="558" type="curve" smooth="yes"/>
      <point x="163" y="558"/>
      <point x="63" y="449"/>
      <point x="63" y="273" type="curve" smooth="yes"/>
      <point x="63" y="97"/>
      <point x="163" y="-12"/>
    </contour>
    <contour>
      <point x="304" y="533" type="curve" smooth="yes"/>
      <point x="436" y="533"/>
      <point x="519" y="431"/>
      <point x="519" y="273" type="curve" smooth="yes"/>
      <point x="519" y="115"/>
      <point x="436" y="13"/>
      <point x="304" y="13" type="curve" smooth="yes"/>
      <point x="173" y="13"/>
      <point x="90" y="115"/>
      <point x="90" y="273" type="curve" smooth="yes"/>
      <point x="90" y="431"/>
      <point x="173" y="533"/>
    </contour>
  </outline>
</glyph>
<glyph name="twotamil" format="2">
  <advance width="1010"/>
  <unicode hex="0BE8"/>
  <outline>
    <contour>
      <point x="294" y="558" type="curve" smooth="yes"/>
      <point x="161" y="558"/>
      <point x="73" y="482"/>
      <point x="73" y="365" type="curve" smooth="yes"/>
      <point x="73" y="282"/>
      <point x="114" y="204"/>
      <point x="241" y="146" type="curve"/>
      <point x="254" y="164" type="line"/>
      <point x="152" y="215"/>
      <point x="100" y="276"/>
      <point x="100" y="364" type="curve" smooth="yes"/>
      <point x="100" y="468"/>
      <point x="175" y="533"/>
      <point x="294" y="533" type="curve" smooth="yes"/>
      <point x="436" y="533"/>
      <point x="510" y="449"/>
      <point x="510" y="352" type="curve" smooth="yes"/>
      <point x="510" y="264"/>
      <point x="467" y="194"/>
      <point x="292" y="175" type="curve" smooth="yes"/>
      <point x="191" y="164" type="line" smooth="yes"/>
      <point x="103" y="154"/>
      <point x="62" y="128"/>
      <point x="62" y="74" type="curve" smooth="yes"/>
      <point x="62" y="29"/>
      <point x="95" y="0"/>
      <point x="168" y="0" type="curve" smooth="yes"/>
      <point x="993" y="0" type="line"/>
      <point x="993" y="25" type="line"/>
      <point x="165" y="25" type="line" smooth="yes"/>
      <point x="104" y="25"/>
      <point x="88" y="49"/>
      <point x="88" y="74" type="curve" smooth="yes"/>
      <point x="88" y="107"/>
      <point x="111" y="130"/>
      <point x="196" y="139" type="curve" smooth="yes"/>
      <point x="284" y="148" type="line" smooth="yes"/>
      <point x="422" y="162"/>
      <point x="537" y="208"/>
      <point x="537" y="352" type="curve" smooth="yes"/>
      <point x="537" y="471"/>
      <point x="441" y="558"/>
    </contour>
  </outline>
</glyph>
<glyph name="fivetamil" format="2">
  <advance width="970"/>
  <unicode hex="0BEB"/>
  <outline>
    <contour>
      <point x="517" y="-321" type="curve" smooth="yes"/>
      <point x="533" y="-321" type="line" smooth="yes"/>
      <point x="760" y="-321"/>
      <point x="915" y="-199"/>
      <point x="915" y="74" type="curve" smooth="yes"/>
      <point x="915" y="234"/>
      <point x="837" y="299"/>
      <point x="751" y="299" type="curve" smooth="yes"/>
      <point x="697" y="299"/>
      <point x="652" y="274"/>
      <point x="615" y="244" type="curve"/>
      <point x="619" y="217" type="line"/>
      <point x="657" y="250"/>
      <point x="699" y="274"/>
      <point x="749" y="274" type="curve" smooth="yes"/>
      <point x="826" y="274"/>
      <point x="888" y="214"/>
      <point x="888" y="73" type="curve" smooth="yes"/>
      <point x="888" y="-190"/>
      <point x="739" y="-296"/>
      <point x="532" y="-296" type="curve" smooth="yes"/>
      <point x="519" y="-296" type="line" smooth="yes"/>
      <point x="249" y="-296"/>
      <point x="99" y="-99"/>
      <point x="99" y="240" type="curve" smooth="yes"/>
      <point x="99" y="253" type="line" smooth="yes"/>
      <point x="99" y="574"/>
      <point x="265" y="814"/>
      <point x="554" y="814" type="curve" smooth="yes"/>
      <point x="687" y="814"/>
      <point x="785" y="774"/>
      <point x="891" y="709" type="curve"/>
      <point x="905" y="731" type="line"/>
      <point x="799" y="795"/>
      <point x="699" y="839"/>
      <point x="554" y="839" type="curve" smooth="yes"/>
      <point x="247" y="839"/>
      <point x="73" y="585"/>
      <point x="73" y="262" type="curve" smooth="yes"/>
      <point x="73" y="234" type="line" smooth="yes"/>
      <point x="73" y="-106"/>
      <point x="229" y="-321"/>
    </contour>
    <contour>
      <point x="354" y="0" type="line"/>
      <point x="380" y="0" type="line"/>
      <point x="380" y="521" type="line"/>
      <point x="607" y="521" type="line"/>
      <point x="607" y="0" type="line"/>
      <point x="633" y="0" type="line"/>
      <point x="633" y="521" type="line"/>
      <point x="828" y="521" type="line"/>
      <point x="828" y="546" type="line"/>
      <point x="354" y="546" type="line"/>
    </contour>
  </outline>
</glyph>
<glyph name="sixtamil" format="2">
  <advance width="953"/>
  <unicode hex="0BEC"/>
  <outline>
    <contour>
      <point x="234" y="-12" type="curve" smooth="yes"/>
      <point x="302" y="-12"/>
      <point x="357" y="10"/>
      <point x="388" y="51" type="curve" smooth="yes"/>
      <point x="415" y="86"/>
      <point x="428" y="130"/>
      <point x="428" y="194" type="curve" smooth="yes"/>
      <point x="428" y="521" type="line"/>
      <point x="632" y="521" type="line"/>
      <point x="632" y="546" type="line"/>
      <point x="158" y="546" type="line"/>
      <point x="158" y="276" type="line"/>
      <point x="184" y="284" type="line"/>
      <point x="184" y="521" type="line"/>
      <point x="402" y="521" type="line"/>
      <point x="402" y="196" type="line" smooth="yes"/>
      <point x="402" y="62"/>
      <point x="334" y="13"/>
      <point x="235" y="13" type="curve" smooth="yes"/>
      <point x="132" y="13"/>
      <point x="80" y="67"/>
      <point x="80" y="146" type="curve" smooth="yes"/>
      <point x="80" y="190"/>
      <point x="96" y="221"/>
      <point x="123" y="243" type="curve" smooth="yes"/>
      <point x="160" y="275"/>
      <point x="219" y="287"/>
      <point x="290" y="287" type="curve" smooth="yes"/>
      <point x="929" y="287" type="line"/>
      <point x="929" y="312" type="line"/>
      <point x="299" y="312" type="line" smooth="yes"/>
      <point x="135" y="312"/>
      <point x="53" y="252"/>
      <point x="53" y="145" type="curve" smooth="yes"/>
      <point x="53" y="49"/>
      <point x="124" y="-12"/>
    </contour>
    <contour>
      <point x="598" y="0" type="line"/>
      <point x="625" y="0" type="line"/>
      <point x="625" y="292" type="line"/>
      <point x="598" y="295" type="line"/>
    </contour>
    <contour>
      <point x="793" y="0" type="line"/>
      <point x="820" y="0" type="line"/>
      <point x="820" y="292" type="line"/>
      <point x="793" y="295" type="line"/>
    </contour>
  </outline>
</glyph>
<glyph name="eighttamil" format="2">
  <advance width="1058"/>
  <unicode hex="0BEE"/>
  <outline>
    <contour>
      <point x="296" y="-96" type="curve" smooth="yes"/>
      <point x="317" y="-96" type="line"/>
      <point x="546" y="-96"/>
      <point x="703" y="-2"/>
      <point x="753" y="151" type="curve"/>
      <point x="756" y="163" type="line"/>
      <point x="764" y="193"/>
      <point x="769" y="225"/>
      <point x="769" y="260" type="curve" smooth="yes"/>
      <point x="769" y="434"/>
      <point x="664" y="558"/>
      <point x="509" y="558" type="curve" smooth="yes"/>
      <point x="395" y="558"/>
      <point x="316" y="485"/>
      <point x="316" y="370" type="curve" smooth="yes"/>
      <point x="316" y="277"/>
      <point x="372" y="204"/>
      <point x="449" y="150" type="curve"/>
      <point x="480" y="156" type="line"/>
      <point x="407" y="206"/>
      <point x="343" y="274"/>
      <point x="343" y="371" type="curve" smooth="yes"/>
      <point x="343" y="482"/>
      <point x="421" y="533"/>
      <point x="509" y="533" type="curve" smooth="yes"/>
      <point x="646" y="533"/>
      <point x="742" y="421"/>
      <point x="742" y="260" type="curve" smooth="yes"/>
      <point x="742" y="224"/>
      <point x="737" y="192"/>
      <point x="728" y="163" type="curve"/>
      <point x="725" y="150" type="line"/>
      <point x="673" y="6"/>
      <point x="518" y="-71"/>
      <point x="314" y="-71" type="curve" smooth="yes"/>
      <point x="295" y="-71" type="line" smooth="yes"/>
      <point x="144" y="-71"/>
      <point x="53" y="-14"/>
      <point x="53" y="66" type="curve" smooth="yes"/>
      <point x="53" y="91"/>
      <point x="62" y="111"/>
      <point x="79" y="124" type="curve" smooth="yes"/>
      <point x="98" y="139"/>
      <point x="126" y="144"/>
      <point x="179" y="144" type="curve" smooth="yes"/>
      <point x="958" y="144" type="line"/>
      <point x="951" y="169" type="line"/>
      <point x="183" y="169" type="line" smooth="yes"/>
      <point x="118" y="169"/>
      <point x="85" y="161"/>
      <point x="63" y="144" type="curve" smooth="yes"/>
      <point x="40" y="126"/>
      <point x="27" y="100"/>
      <point x="27" y="68" type="curve" smooth="yes"/>
      <point x="27" y="-30"/>
      <point x="126" y="-96"/>
    </contour>
    <contour>
      <point x="938" y="-154" type="line"/>
      <point x="964" y="-154" type="line"/>
      <point x="964" y="546" type="line"/>
      <point x="938" y="546" type="line"/>
    </contour>
  </outline>
</glyph>
<glyph name="ninetamil" format="2">
  <advance width="1055"/>
  <unicode hex="0BEF"/>
  <outline>
    <contour>
      <point x="234" y="-12" type="curve" smooth="yes"/>
      <point x="302" y="-12"/>
      <point x="357" y="10"/>
      <point x="388" y="51" type="curve" smooth="yes"/>
      <point x="415" y="86"/>
      <point x="428" y="130"/>
      <point x="428" y="194" type="curve" smooth="yes"/>
      <point x="428" y="521" type="line"/>
      <point x="632" y="521" type="line"/>
      <point x="632" y="546" type="line"/>
      <point x="158" y="546" type="line"/>
      <point x="158" y="276" type="line"/>
      <point x="184" y="284" type="line"/>
      <point x="184" y="521" type="line"/>
      <point x="402" y="521" type="line"/>
      <point x="402" y="196" type="line" smooth="yes"/>
      <point x="402" y="62"/>
      <point x="334" y="13"/>
      <point x="235" y="13" type="curve" smooth="yes"/>
      <point x="132" y="13"/>
      <point x="80" y="67"/>
      <point x="80" y="146" type="curve" smooth="yes"/>
      <point x="80" y="190"/>
      <point x="96" y="221"/>
      <point x="123" y="243" type="curve" smooth="yes"/>
      <point x="160" y="275"/>
      <point x="219" y="287"/>
      <point x="290" y="287" type="curve" smooth="yes"/>
      <point x="518" y="287" type="line"/>
      <point x="518" y="312" type="line"/>
      <point x="299" y="312" type="line" smooth="yes"/>
      <point x="135" y="312"/>
      <point x="53" y="252"/>
      <point x="53" y="145" type="curve" smooth="yes"/>
      <point x="53" y="49"/>
      <point x="124" y="-12"/>
    </contour>
    <contour>
      <point x="693" y="-12" type="curve" smooth="yes"/>
      <point x="771" y="-12"/>
      <point x="819" y="35"/>
      <point x="819" y="131" type="curve" smooth="yes"/>
      <point x="819" y="241"/>
      <point x="741" y="299"/>
      <point x="638" y="309" type="curve" smooth="yes"/>
      <point x="624" y="310" type="line" smooth="yes"/>
      <point x="614" y="311"/>
      <point x="595" y="312"/>
      <point x="578" y="312" type="curve" smooth="yes"/>
      <point x="495" y="312" type="line"/>
      <point x="495" y="287" type="line"/>
      <point x="600" y="287" type="line" smooth="yes"/>
      <point x="710" y="287"/>
      <point x="792" y="238"/>
      <point x="792" y="131" type="curve" smooth="yes"/>
      <point x="792" y="46"/>
      <point x="751" y="13"/>
      <point x="694" y="13" type="curve" smooth="yes"/>
      <point x="626" y="13"/>
      <point x="577" y="60"/>
      <point x="577" y="153" type="curve" smooth="yes"/>
      <point x="577" y="206"/>
      <point x="597" y="256"/>
      <point x="634" y="293" type="curve" smooth="yes"/>
      <point x="639" y="298" type="line" smooth="yes"/>
      <point x="676" y="332"/>
      <point x="729" y="355"/>
      <point x="792" y="355" type="curve" smooth="yes"/>
      <point x="894" y="355"/>
      <point x="975" y="298"/>
      <point x="975" y="189" type="curve" smooth="yes"/>
      <point x="975" y="120"/>
      <point x="952" y="61"/>
      <point x="912" y="6" type="curve"/>
      <point x="935" y="-8" type="line"/>
      <point x="975" y="48"/>
      <point x="1002" y="111"/>
      <point x="1002" y="190" type="curve" smooth="yes"/>
      <point x="1002" y="313"/>
      <point x="908" y="380"/>
      <point x="792" y="380" type="curve" smooth="yes"/>
      <point x="718" y="380"/>
      <point x="655" y="350"/>
      <point x="610" y="303" type="curve" smooth="yes"/>
      <point x="603" y="296" type="line" smooth="yes"/>
      <point x="570" y="257"/>
      <point x="550" y="207"/>
      <point x="550" y="153" type="curve" smooth="yes"/>
      <point x="550" y="44"/>
      <point x="614" y="-12"/>
    </contour>
  </outline>
</glyph>
<glyph name="tentamil" format="2">
  <advance width="812"/>
  <unicode hex="0BF0"/>
  <outline>
    <contour>
      <point x="237" y="-12" type="curve" smooth="yes"/>
      <point x="330" y="-12"/>
      <point x="364" y="64"/>
      <point x="369" y="141" type="curve"/>
      <point x="361" y="142" type="line"/>
      <point x="375" y="58"/>
      <point x="430" y="-12"/>
      <point x="532" y="-12" type="curve" smooth="yes"/>
      <point x="655" y="-12"/>
      <point x="738" y="85"/>
      <point x="738" y="389" type="curve" smooth="yes"/>
      <point x="738" y="397" type="line" smooth="yes"/>
      <point x="738" y="570"/>
      <point x="699" y="689"/>
      <point x="637" y="759" type="curve" smooth="yes"/>
      <point x="588" y="814"/>
      <point x="524" y="839"/>
      <point x="453" y="839" type="curve" smooth="yes"/>
      <point x="379" y="839"/>
      <point x="320" y="819"/>
      <point x="268" y="791" type="curve"/>
      <point x="278" y="768" type="line"/>
      <point x="329" y="795"/>
      <point x="373" y="814"/>
      <point x="454" y="814" type="curve" smooth="yes"/>
      <point x="596" y="814"/>
      <point x="712" y="698"/>
      <point x="712" y="392" type="curve" smooth="yes"/>
      <point x="712" y="109"/>
      <point x="643" y="13"/>
      <point x="532" y="13" type="curve" smooth="yes"/>
      <point x="495" y="13"/>
      <point x="460" y="25"/>
      <point x="436" y="46" type="curve" smooth="yes"/>
      <point x="394" y="82"/>
      <point x="377" y="140"/>
      <point x="377" y="212" type="curve" smooth="yes"/>
      <point x="377" y="546" type="line"/>
      <point x="351" y="546" type="line"/>
      <point x="351" y="215" type="line" smooth="yes"/>
      <point x="351" y="127"/>
      <point x="339" y="80"/>
      <point x="314" y="48" type="curve"/>
      <point x="295" y="25"/>
      <point x="269" y="13"/>
      <point x="239" y="13" type="curve" smooth="yes"/>
      <point x="198" y="13"/>
      <point x="175" y="28"/>
      <point x="157" y="48" type="curve"/>
      <point x="128" y="83"/>
      <point x="120" y="137"/>
      <point x="120" y="212" type="curve" smooth="yes"/>
      <point x="120" y="546" type="line"/>
      <point x="94" y="546" type="line"/>
      <point x="94" y="202" type="line" smooth="yes"/>
      <point x="94" y="116"/>
      <point x="106" y="70"/>
      <point x="135" y="34" type="curve" smooth="yes"/>
      <point x="159" y="5"/>
      <point x="194" y="-12"/>
    </contour>
  </outline>
</glyph>
<glyph name="hundredtamil" format="2">
  <advance width="844"/>
  <unicode hex="0BF1"/>
  <outline>
    <contour>
      <point x="353" y="0" type="line"/>
      <point x="379" y="0" type="line"/>
      <point x="379" y="521" type="line"/>
      <point x="606" y="521" type="line"/>
      <point x="606" y="0" type="line"/>
      <point x="632" y="0" type="line"/>
      <point x="632" y="521" type="line"/>
      <point x="827" y="521" type="line"/>
      <point x="827" y="546" type="line"/>
      <point x="353" y="546" type="line"/>
    </contour>
    <contour>
      <point x="230" y="558" type="curve" smooth="yes"/>
      <point x="185" y="558"/>
      <point x="150" y="542"/>
      <point x="127" y="512" type="curve" smooth="yes"/>
      <point x="103" y="480"/>
      <point x="92" y="439"/>
      <point x="92" y="350" type="curve" smooth="yes"/>
      <point x="92" y="0" type="line"/>
      <point x="118" y="0" type="line"/>
      <point x="118" y="355" type="line" smooth="yes"/>
      <point x="118" y="420"/>
      <point x="124" y="465"/>
      <point x="147" y="495" type="curve" smooth="yes"/>
      <point x="165" y="518"/>
      <point x="193" y="533"/>
      <point x="233" y="533" type="curve" smooth="yes"/>
      <point x="290" y="533"/>
      <point x="331" y="506"/>
      <point x="362" y="456" type="curve"/>
      <point x="362" y="492" type="line"/>
      <point x="335" y="525"/>
      <point x="294" y="558"/>
    </contour>
  </outline>
</glyph>
<glyph name="thousandtamil" format="2">
  <advance width="887"/>
  <unicode hex="0BF2"/>
  <outline>
    <contour>
      <point x="737" y="166" type="curve" smooth="yes"/>
      <point x="696" y="166"/>
      <point x="654" y="149"/>
      <point x="619" y="127" type="curve"/>
      <point x="630" y="106" type="line"/>
      <point x="661" y="127"/>
      <point x="696" y="141"/>
      <point x="737" y="141" type="curve" smooth="yes"/>
      <point x="795" y="141"/>
      <point x="842" y="107"/>
      <point x="842" y="35" type="curve" smooth="yes"/>
      <point x="842" y="-11"/>
      <point x="830" y="-43"/>
      <point x="805" y="-65" type="curve" smooth="yes"/>
      <point x="770" y="-96"/>
      <point x="724" y="-106"/>
      <point x="626" y="-106" type="curve" smooth="yes"/>
      <point x="235" y="-106" type="line" smooth="yes"/>
      <point x="169" y="-106"/>
      <point x="126" y="-118"/>
      <point x="96" y="-142" type="curve" smooth="yes"/>
      <point x="67" y="-166"/>
      <point x="51" y="-202"/>
      <point x="51" y="-251" type="curve" smooth="yes"/>
      <point x="51" y="-277"/>
      <point x="55" y="-301"/>
      <point x="59" y="-321" type="curve"/>
      <point x="84" y="-320" type="line"/>
      <point x="80" y="-299"/>
      <point x="77" y="-278"/>
      <point x="77" y="-251" type="curve" smooth="yes"/>
      <point x="77" y="-209"/>
      <point x="88" y="-180"/>
      <point x="115" y="-160" type="curve" smooth="yes"/>
      <point x="139" y="-142"/>
      <point x="170" y="-131"/>
      <point x="243" y="-131" type="curve" smooth="yes"/>
      <point x="627" y="-131" type="line" smooth="yes"/>
      <point x="708" y="-131"/>
      <point x="778" y="-124"/>
      <point x="824" y="-83" type="curve" smooth="yes"/>
      <point x="851" y="-58"/>
      <point x="869" y="-21"/>
      <point x="869" y="35" type="curve" smooth="yes"/>
      <point x="869" y="114"/>
      <point x="817" y="166"/>
    </contour>
    <contour>
      <point x="234" y="-12" type="curve" smooth="yes"/>
      <point x="302" y="-12"/>
      <point x="357" y="10"/>
      <point x="388" y="51" type="curve" smooth="yes"/>
      <point x="415" y="86"/>
      <point x="428" y="130"/>
      <point x="428" y="194" type="curve" smooth="yes"/>
      <point x="428" y="521" type="line"/>
      <point x="632" y="521" type="line"/>
      <point x="632" y="546" type="line"/>
      <point x="158" y="546" type="line"/>
      <point x="158" y="276" type="line"/>
      <point x="184" y="284" type="line"/>
      <point x="184" y="521" type="line"/>
      <point x="402" y="521" type="line"/>
      <point x="402" y="196" type="line" smooth="yes"/>
      <point x="402" y="62"/>
      <point x="334" y="13"/>
      <point x="235" y="13" type="curve" smooth="yes"/>
      <point x="132" y="13"/>
      <point x="80" y="67"/>
      <point x="80" y="146" type="curve" smooth="yes"/>
      <point x="80" y="190"/>
      <point x="96" y="221"/>
      <point x="123" y="243" type="curve" smooth="yes"/>
      <point x="160" y="275"/>
      <point x="219" y="287"/>
      <point x="290" y="287" type="curve" smooth="yes"/>
      <point x="797" y="287" type="line"/>
      <point x="797" y="312" type="line"/>
      <point x="299" y="312" type="line" smooth="yes"/>
      <point x="135" y="312"/>
      <point x="53" y="252"/>
      <point x="53" y="145" type="curve" smooth="yes"/>
      <point x="53" y="49"/>
      <point x="124" y="-12"/>
    </contour>
    <contour>
      <point x="608" y="0" type="line"/>
      <point x="635" y="0" type="line"/>
      <point x="635" y="292" type="line"/>
      <point x="608" y="295" type="line"/>
    </contour>
  </outline>
</glyph>
<glyph name="daysigntamil" format="2">
  <advance width="934"/>
  <unicode hex="0BF3"/>
  <outline>
    <contour>
      <point x="227" y="-12" type="curve" smooth="yes"/>
      <point x="303" y="-12"/>
      <point x="374" y="22"/>
      <point x="374" y="152" type="curve" smooth="yes"/>
      <point x="374" y="259"/>
      <point x="310" y="312"/>
      <point x="229" y="312" type="curve" smooth="yes"/>
      <point x="159" y="312"/>
      <point x="102" y="272"/>
      <point x="70" y="235" type="curve"/>
      <point x="83" y="214" type="line"/>
      <point x="123" y="260"/>
      <point x="169" y="287"/>
      <point x="229" y="287" type="curve" smooth="yes"/>
      <point x="304" y="287"/>
      <point x="347" y="235"/>
      <point x="347" y="153" type="curve" smooth="yes"/>
      <point x="347" y="42"/>
      <point x="295" y="13"/>
      <point x="229" y="13" type="curve" smooth="yes"/>
      <point x="147" y="13"/>
      <point x="87" y="70"/>
      <point x="87" y="235" type="curve" smooth="yes"/>
      <point x="87" y="433"/>
      <point x="193" y="533"/>
      <point x="342" y="533" type="curve" smooth="yes"/>
      <point x="484" y="533"/>
      <point x="570" y="433"/>
      <point x="570" y="284" type="curve" smooth="yes"/>
      <point x="570" y="167"/>
      <point x="533" y="87"/>
      <point x="498" y="24" type="curve"/>
      <point x="501" y="0" type="line"/>
      <point x="917" y="0" type="line"/>
      <point x="917" y="25" type="line"/>
      <point x="528" y="25" type="line"/>
      <point x="558" y="78"/>
      <point x="597" y="170"/>
      <point x="597" y="285" type="curve" smooth="yes"/>
      <point x="597" y="441"/>
      <point x="503" y="558"/>
      <point x="342" y="558" type="curve" smooth="yes"/>
      <point x="183" y="558"/>
      <point x="61" y="453"/>
      <point x="61" y="237" type="curve" smooth="yes"/>
      <point x="61" y="50"/>
      <point x="135" y="-12"/>
    </contour>
  </outline>
</glyph>
<glyph name="monthsigntamil" format="2">
  <advance width="1168"/>
  <unicode hex="0BF4"/>
  <outline>
    <contour>
      <point x="544" y="558" type="curve" smooth="yes"/>
      <point x="506" y="558"/>
      <point x="476" y="547"/>
      <point x="453" y="526" type="curve" smooth="yes"/>
      <point x="417" y="494"/>
      <point x="399" y="443"/>
      <point x="399" y="353" type="curve" smooth="yes"/>
      <point x="399" y="25" type="line"/>
      <point x="120" y="25" type="line"/>
      <point x="120" y="546" type="line"/>
      <point x="94" y="546" type="line"/>
      <point x="94" y="0" type="line"/>
      <point x="495" y="0" type="line" smooth="yes"/>
      <point x="590" y="0"/>
      <point x="647" y="28"/>
      <point x="680" y="70" type="curve" smooth="yes"/>
      <point x="724" y="125"/>
      <point x="733" y="193"/>
      <point x="733" y="263" type="curve" smooth="yes"/>
      <point x="733" y="432"/>
      <point x="665" y="558"/>
    </contour>
    <contour>
      <point x="544" y="533" type="curve" smooth="yes"/>
      <point x="652" y="533"/>
      <point x="706" y="409"/>
      <point x="706" y="264" type="curve" smooth="yes"/>
      <point x="706" y="99"/>
      <point x="646" y="25"/>
      <point x="495" y="25" type="curve" smooth="yes"/>
      <point x="425" y="25" type="line"/>
      <point x="425" y="339" type="line" smooth="yes"/>
      <point x="425" y="418"/>
      <point x="435" y="471"/>
      <point x="466" y="503" type="curve" smooth="yes"/>
      <point x="484" y="522"/>
      <point x="509" y="533"/>
    </contour>
    <contour>
      <point x="782" y="497" type="curve" smooth="yes"/>
      <point x="841" y="497"/>
      <point x="877" y="529"/>
      <point x="877" y="595" type="curve" smooth="yes"/>
      <point x="877" y="630"/>
      <point x="863" y="653"/>
      <point x="843" y="668" type="curve" smooth="yes"/>
      <point x="816" y="688"/>
      <point x="782" y="694"/>
      <point x="743" y="694" type="curve" smooth="yes"/>
      <point x="737" y="694" type="line" smooth="yes"/>
      <point x="669" y="694"/>
      <point x="570" y="671"/>
      <point x="570" y="544" type="curve"/>
      <point x="596" y="536" type="line"/>
      <point x="596" y="550" type="line" smooth="yes"/>
      <point x="596" y="615"/>
      <point x="633" y="669"/>
      <point x="733" y="669" type="curve" smooth="yes"/>
      <point x="742" y="669" type="line" smooth="yes"/>
      <point x="781" y="669"/>
      <point x="809" y="662"/>
      <point x="827" y="648" type="curve" smooth="yes"/>
      <point x="842" y="636"/>
      <point x="850" y="619"/>
      <point x="850" y="595" type="curve" smooth="yes"/>
      <point x="850" y="551"/>
      <point x="832" y="522"/>
      <point x="782" y="522" type="curve" smooth="yes"/>
      <point x="726" y="522"/>
      <point x="703" y="571"/>
      <point x="703" y="640" type="curve" smooth="yes"/>
      <point x="703" y="655"/>
      <point x="705" y="670"/>
      <point x="707" y="683" type="curve" smooth="yes"/>
      <point x="722" y="766"/>
      <point x="778" y="814"/>
      <point x="866" y="814" type="curve" smooth="yes"/>
      <point x="958" y="814"/>
      <point x="1006" y="745"/>
      <point x="1006" y="666" type="curve" smooth="yes"/>
      <point x="1006" y="606"/>
      <point x="987" y="570"/>
      <point x="962" y="523" type="curve"/>
      <point x="962" y="500" type="line"/>
      <point x="1153" y="500" type="line"/>
      <point x="1153" y="525" type="line"/>
      <point x="979" y="525" type="line"/>
      <point x="981" y="510" type="line"/>
      <point x="1016" y="559"/>
      <point x="1033" y="613"/>
      <point x="1033" y="667" type="curve" smooth="yes"/>
      <point x="1033" y="765"/>
      <point x="968" y="839"/>
      <point x="866" y="839" type="curve" smooth="yes"/>
      <point x="764" y="839"/>
      <point x="697" y="781"/>
      <point x="681" y="684" type="curve" smooth="yes"/>
      <point x="679" y="670"/>
      <point x="677" y="656"/>
      <point x="677" y="640" type="curve" smooth="yes"/>
      <point x="677" y="532"/>
      <point x="729" y="497"/>
    </contour>
  </outline>
</glyph>
<glyph name="yearsigntamil" format="2">
  <advance width="2111"/>
  <unicode hex="0BF5"/>
  <outline>
    <contour>
      <point x="893" y="814" type="curve" smooth="yes"/>
      <point x="1192" y="814"/>
      <point x="1395" y="776"/>
      <point x="1541" y="655" type="curve" smooth="yes"/>
      <point x="1643" y="570"/>
      <point x="1693" y="455"/>
      <point x="1697" y="258" type="curve" smooth="yes"/>
      <point x="1699" y="158"/>
      <point x="1706" y="80"/>
      <point x="1754" y="31" type="curve" smooth="yes"/>
      <point x="1780" y="4"/>
      <point x="1817" y="-12"/>
      <point x="1872" y="-12" type="curve" smooth="yes"/>
      <point x="1975" y="-12"/>
      <point x="2047" y="61"/>
      <point x="2047" y="235" type="curve" smooth="yes"/>
      <point x="2047" y="377"/>
      <point x="1987" y="490"/>
      <point x="1898" y="573" type="curve"/>
      <point x="1878" y="555" type="line"/>
      <point x="1954" y="484"/>
      <point x="2020" y="388"/>
      <point x="2020" y="234" type="curve" smooth="yes"/>
      <point x="2020" y="75"/>
      <point x="1959" y="13"/>
      <point x="1873" y="13" type="curve" smooth="yes"/>
      <point x="1827" y="13"/>
      <point x="1795" y="26"/>
      <point x="1773" y="48" type="curve" smooth="yes"/>
      <point x="1727" y="94"/>
      <point x="1724" y="178"/>
      <point x="1723" y="255" type="curve" smooth="yes"/>
      <point x="1720" y="462"/>
      <point x="1669" y="577"/>
      <point x="1561" y="672" type="curve" smooth="yes"/>
      <point x="1417" y="799"/>
      <point x="1196" y="839"/>
      <point x="915" y="839" type="curve" smooth="yes"/>
      <point x="882" y="839" type="line" smooth="yes"/>
      <point x="266" y="839"/>
      <point x="68" y="584"/>
      <point x="68" y="283" type="curve" smooth="yes"/>
      <point x="68" y="266" type="line" smooth="yes"/>
      <point x="68" y="62"/>
      <point x="136" y="-321"/>
      <point x="849" y="-321" type="curve" smooth="yes"/>
      <point x="866" y="-321" type="line" smooth="yes"/>
      <point x="1293" y="-321"/>
      <point x="1559" y="-172"/>
      <point x="1559" y="100" type="curve" smooth="yes"/>
      <point x="1559" y="185"/>
      <point x="1528" y="303"/>
      <point x="1399" y="303" type="curve" smooth="yes"/>
      <point x="1363" y="303"/>
      <point x="1329" y="290"/>
      <point x="1303" y="274" type="curve"/>
      <point x="1303" y="521" type="line"/>
      <point x="1487" y="521" type="line"/>
      <point x="1487" y="546" type="line"/>
      <point x="1040" y="546" type="line"/>
      <point x="1040" y="0" type="line"/>
      <point x="1066" y="0" type="line"/>
      <point x="1066" y="521" type="line"/>
      <point x="1277" y="521" type="line"/>
      <point x="1277" y="0" type="line"/>
      <point x="1303" y="0" type="line"/>
      <point x="1303" y="247" type="line"/>
      <point x="1335" y="268"/>
      <point x="1367" y="278"/>
      <point x="1398" y="278" type="curve" smooth="yes"/>
      <point x="1500" y="278"/>
      <point x="1532" y="190"/>
      <point x="1532" y="98" type="curve" smooth="yes"/>
      <point x="1532" y="-163"/>
      <point x="1268" y="-296"/>
      <point x="866" y="-296" type="curve" smooth="yes"/>
      <point x="849" y="-296" type="line" smooth="yes"/>
      <point x="149" y="-296"/>
      <point x="95" y="78"/>
      <point x="95" y="266" type="curve" smooth="yes"/>
      <point x="95" y="283" type="line" smooth="yes"/>
      <point x="95" y="572"/>
      <point x="281" y="814"/>
    </contour>
    <contour>
      <point x="469" y="-12" type="curve" smooth="yes"/>
      <point x="545" y="-12"/>
      <point x="616" y="22"/>
      <point x="616" y="152" type="curve" smooth="yes"/>
      <point x="616" y="259"/>
      <point x="552" y="312"/>
      <point x="471" y="312" type="curve" smooth="yes"/>
      <point x="401" y="312"/>
      <point x="344" y="272"/>
      <point x="312" y="235" type="curve"/>
      <point x="325" y="214" type="line"/>
      <point x="365" y="260"/>
      <point x="411" y="287"/>
      <point x="471" y="287" type="curve" smooth="yes"/>
      <point x="546" y="287"/>
      <point x="589" y="235"/>
      <point x="589" y="153" type="curve" smooth="yes"/>
      <point x="589" y="42"/>
      <point x="537" y="13"/>
      <point x="471" y="13" type="curve" smooth="yes"/>
      <point x="389" y="13"/>
      <point x="329" y="70"/>
      <point x="329" y="235" type="curve" smooth="yes"/>
      <point x="329" y="433"/>
      <point x="435" y="533"/>
      <point x="584" y="533" type="curve" smooth="yes"/>
      <point x="726" y="533"/>
      <point x="812" y="433"/>
      <point x="812" y="284" type="curve" smooth="yes"/>
      <point x="812" y="167"/>
      <point x="775" y="87"/>
      <point x="740" y="24" type="curve"/>
      <point x="743" y="0" type="line"/>
      <point x="1055" y="0" type="line"/>
      <point x="1055" y="25" type="line"/>
      <point x="770" y="25" type="line"/>
      <point x="800" y="78"/>
      <point x="839" y="170"/>
      <point x="839" y="285" type="curve" smooth="yes"/>
      <point x="839" y="441"/>
      <point x="745" y="558"/>
      <point x="584" y="558" type="curve" smooth="yes"/>
      <point x="425" y="558"/>
      <point x="303" y="453"/>
      <point x="303" y="237" type="curve" smooth="yes"/>
      <point x="303" y="50"/>
      <point x="377" y="-12"/>
    </contour>
  </outline>
</glyph>
<glyph name="debitsigntamil" format="2">
  <advance width="812"/>
  <unicode hex="0BF6"/>
  <outline>
    <contour>
      <point x="211" y="-321" type="curve" smooth="yes"/>
      <point x="345" y="-321"/>
      <point x="425" y="-241"/>
      <point x="457" y="-123" type="curve"/>
      <point x="460" y="-113" type="line"/>
      <point x="469" y="-76"/>
      <point x="473" y="-42"/>
      <point x="473" y="5" type="curve" smooth="yes"/>
      <point x="473" y="119" type="line"/>
      <point x="447" y="70" type="line"/>
      <point x="447" y="11" type="line" smooth="yes"/>
      <point x="447" y="-33"/>
      <point x="443" y="-74"/>
      <point x="433" y="-112" type="curve"/>
      <point x="430" y="-124" type="line"/>
      <point x="400" y="-226"/>
      <point x="328" y="-296"/>
      <point x="211" y="-296" type="curve" smooth="yes"/>
      <point x="102" y="-296"/>
      <point x="70" y="-237"/>
      <point x="70" y="-186" type="curve" smooth="yes"/>
      <point x="70" y="-147"/>
      <point x="90" y="-131"/>
      <point x="147" y="-131" type="curve" smooth="yes"/>
      <point x="431" y="-131" type="line"/>
      <point x="445" y="-131" type="line"/>
      <point x="718" y="-131" type="line"/>
      <point x="718" y="320" type="line"/>
      <point x="692" y="320" type="line"/>
      <point x="692" y="-106" type="line"/>
      <point x="150" y="-106" type="line" smooth="yes"/>
      <point x="105" y="-106"/>
      <point x="83" y="-113"/>
      <point x="65" y="-129" type="curve"/>
      <point x="51" y="-142"/>
      <point x="43" y="-159"/>
      <point x="43" y="-183" type="curve" smooth="yes"/>
      <point x="43" y="-264"/>
      <point x="99" y="-321"/>
    </contour>
    <contour>
      <point x="324" y="-10" type="curve" smooth="yes"/>
      <point x="388" y="-10"/>
      <point x="429" y="23"/>
      <point x="456" y="56" type="curve"/>
      <point x="456" y="92" type="line"/>
      <point x="425" y="42"/>
      <point x="384" y="15"/>
      <point x="327" y="15" type="curve" smooth="yes"/>
      <point x="287" y="15"/>
      <point x="259" y="30"/>
      <point x="241" y="53" type="curve" smooth="yes"/>
      <point x="218" y="83"/>
      <point x="212" y="128"/>
      <point x="212" y="193" type="curve" smooth="yes"/>
      <point x="212" y="546" type="line"/>
      <point x="186" y="546" type="line"/>
      <point x="186" y="198" type="line" smooth="yes"/>
      <point x="186" y="109"/>
      <point x="197" y="68"/>
      <point x="221" y="36" type="curve" smooth="yes"/>
      <point x="244" y="6"/>
      <point x="279" y="-10"/>
    </contour>
    <contour>
      <point x="473" y="546" type="line"/>
      <point x="447" y="546" type="line"/>
      <point x="447" y="50" type="line"/>
      <point x="473" y="109" type="line"/>
    </contour>
  </outline>
</glyph>
<glyph name="creditsigntamil" format="2">
  <advance width="1290"/>
  <unicode hex="0BF7"/>
  <outline>
    <contour>
      <point x="227" y="-12" type="curve" smooth="yes"/>
      <point x="303" y="-12"/>
      <point x="374" y="22"/>
      <point x="374" y="152" type="curve" smooth="yes"/>
      <point x="374" y="259"/>
      <point x="309" y="312"/>
      <point x="229" y="312" type="curve" smooth="yes"/>
      <point x="159" y="312"/>
      <point x="102" y="273"/>
      <point x="70" y="235" type="curve"/>
      <point x="83" y="214" type="line"/>
      <point x="123" y="260"/>
      <point x="169" y="287"/>
      <point x="229" y="287" type="curve" smooth="yes"/>
      <point x="304" y="287"/>
      <point x="347" y="236"/>
      <point x="347" y="153" type="curve" smooth="yes"/>
      <point x="347" y="42"/>
      <point x="295" y="13"/>
      <point x="229" y="13" type="curve" smooth="yes"/>
      <point x="147" y="13"/>
      <point x="87" y="70"/>
      <point x="87" y="235" type="curve" smooth="yes"/>
      <point x="87" y="326"/>
      <point x="117" y="400"/>
      <point x="177" y="450" type="curve" smooth="yes"/>
      <point x="232" y="496"/>
      <point x="312" y="521"/>
      <point x="433" y="521" type="curve" smooth="yes"/>
      <point x="510" y="521" type="line"/>
      <point x="503" y="546" type="line"/>
      <point x="438" y="546" type="line" smooth="yes"/>
      <point x="297" y="546"/>
      <point x="211" y="516"/>
      <point x="150" y="461" type="curve" smooth="yes"/>
      <point x="92" y="408"/>
      <point x="61" y="332"/>
      <point x="61" y="238" type="curve" smooth="yes"/>
      <point x="61" y="50"/>
      <point x="135" y="-12"/>
    </contour>
    <contour>
      <point x="507" y="0" type="line"/>
      <point x="533" y="0" type="line"/>
      <point x="533" y="521" type="line"/>
      <point x="728" y="521" type="line"/>
      <point x="728" y="546" type="line"/>
      <point x="487" y="546" type="line"/>
      <point x="489" y="521" type="line"/>
      <point x="507" y="521" type="line"/>
    </contour>
    <contour>
      <point x="762" y="-3" type="curve" smooth="yes"/>
      <point x="821" y="-3"/>
      <point x="857" y="29"/>
      <point x="857" y="95" type="curve" smooth="yes"/>
      <point x="857" y="130"/>
      <point x="843" y="153"/>
      <point x="823" y="168" type="curve" smooth="yes"/>
      <point x="796" y="188"/>
      <point x="762" y="194"/>
      <point x="723" y="194" type="curve" smooth="yes"/>
      <point x="516" y="194" type="line"/>
      <point x="514" y="169" type="line"/>
      <point x="722" y="169" type="line" smooth="yes"/>
      <point x="761" y="169"/>
      <point x="789" y="162"/>
      <point x="807" y="148" type="curve" smooth="yes"/>
      <point x="822" y="136"/>
      <point x="830" y="119"/>
      <point x="830" y="95" type="curve" smooth="yes"/>
      <point x="830" y="51"/>
      <point x="812" y="22"/>
      <point x="762" y="22" type="curve" smooth="yes"/>
      <point x="706" y="22"/>
      <point x="683" y="71"/>
      <point x="683" y="140" type="curve" smooth="yes"/>
      <point x="683" y="155"/>
      <point x="685" y="170"/>
      <point x="687" y="183" type="curve" smooth="yes"/>
      <point x="702" y="266"/>
      <point x="758" y="314"/>
      <point x="846" y="314" type="curve" smooth="yes"/>
      <point x="938" y="314"/>
      <point x="986" y="245"/>
      <point x="986" y="166" type="curve" smooth="yes"/>
      <point x="986" y="106"/>
      <point x="967" y="70"/>
      <point x="942" y="23" type="curve"/>
      <point x="942" y="0" type="line"/>
      <point x="1206" y="0" type="line"/>
      <point x="1206" y="25" type="line"/>
      <point x="959" y="25" type="line"/>
      <point x="961" y="10" type="line"/>
      <point x="996" y="59"/>
      <point x="1013" y="113"/>
      <point x="1013" y="167" type="curve" smooth="yes"/>
      <point x="1013" y="265"/>
      <point x="948" y="339"/>
      <point x="846" y="339" type="curve" smooth="yes"/>
      <point x="744" y="339"/>
      <point x="677" y="281"/>
      <point x="661" y="184" type="curve" smooth="yes"/>
      <point x="659" y="170"/>
      <point x="657" y="156"/>
      <point x="657" y="140" type="curve" smooth="yes"/>
      <point x="657" y="32"/>
      <point x="709" y="-3"/>
    </contour>
    <contour>
      <point x="1186" y="0" type="line"/>
      <point x="1212" y="0" type="line"/>
      <point x="1212" y="329" type="line"/>
      <point x="1186" y="329" type="line"/>
    </contour>
  </outline>
</glyph>
<glyph name="asabovesigntamil" format="2">
  <advance width="1851"/>
  <unicode hex="0BF8"/>
  <outline>
    <contour>
      <point x="377" y="-12" type="curve" smooth="yes"/>
      <point x="473" y="-12"/>
      <point x="556" y="37"/>
      <point x="556" y="159" type="curve" smooth="yes"/>
      <point x="556" y="258"/>
      <point x="496" y="318"/>
      <point x="408" y="318" type="curve" smooth="yes"/>
      <point x="316" y="318"/>
      <point x="256" y="254"/>
      <point x="256" y="163" type="curve" smooth="yes"/>
      <point x="256" y="105"/>
      <point x="279" y="45"/>
      <point x="328" y="2" type="curve"/>
      <point x="350" y="7" type="line"/>
      <point x="301" y="58"/>
      <point x="283" y="103"/>
      <point x="283" y="162" type="curve" smooth="yes"/>
      <point x="283" y="238"/>
      <point x="328" y="293"/>
      <point x="408" y="293" type="curve" smooth="yes"/>
      <point x="485" y="293"/>
      <point x="529" y="239"/>
      <point x="529" y="160" type="curve" smooth="yes"/>
      <point x="529" y="56"/>
      <point x="464" y="13"/>
      <point x="377" y="13" type="curve" smooth="yes"/>
      <point x="362" y="13"/>
      <point x="346" y="14"/>
      <point x="332" y="16" type="curve"/>
      <point x="319" y="18" type="line"/>
      <point x="156" y="52"/>
      <point x="98" y="232"/>
      <point x="98" y="381" type="curve" smooth="yes"/>
      <point x="98" y="666"/>
      <point x="299" y="814"/>
      <point x="505" y="814" type="curve" smooth="yes"/>
      <point x="718" y="814"/>
      <point x="846" y="698"/>
      <point x="906" y="551" type="curve"/>
      <point x="911" y="539" type="line"/>
      <point x="937" y="472"/>
      <point x="948" y="398"/>
      <point x="948" y="327" type="curve" smooth="yes"/>
      <point x="948" y="222"/>
      <point x="920" y="136"/>
      <point x="814" y="136" type="curve" smooth="yes"/>
      <point x="726" y="136"/>
      <point x="691" y="199"/>
      <point x="691" y="287" type="curve" smooth="yes"/>
      <point x="691" y="430"/>
      <point x="779" y="525"/>
      <point x="919" y="533" type="curve"/>
      <point x="939" y="533" type="line"/>
      <point x="1083" y="533"/>
      <point x="1169" y="433"/>
      <point x="1169" y="284" type="curve" smooth="yes"/>
      <point x="1169" y="167"/>
      <point x="1132" y="87"/>
      <point x="1097" y="24" type="curve"/>
      <point x="1100" y="0" type="line"/>
      <point x="1459" y="0" type="line"/>
      <point x="1462" y="25" type="line"/>
      <point x="1127" y="25" type="line"/>
      <point x="1157" y="78"/>
      <point x="1197" y="170"/>
      <point x="1197" y="285" type="curve" smooth="yes"/>
      <point x="1197" y="441"/>
      <point x="1102" y="558"/>
      <point x="942" y="558" type="curve" smooth="yes"/>
      <point x="933" y="558"/>
      <point x="924" y="558"/>
      <point x="915" y="557" type="curve" smooth="yes"/>
      <point x="764" y="546"/>
      <point x="664" y="445"/>
      <point x="664" y="287" type="curve" smooth="yes"/>
      <point x="664" y="172"/>
      <point x="721" y="111"/>
      <point x="814" y="111" type="curve" smooth="yes"/>
      <point x="928" y="111"/>
      <point x="975" y="194"/>
      <point x="975" y="327" type="curve" smooth="yes"/>
      <point x="975" y="402"/>
      <point x="962" y="474"/>
      <point x="937" y="541" type="curve"/>
      <point x="933" y="553" type="line"/>
      <point x="869" y="717"/>
      <point x="729" y="839"/>
      <point x="505" y="839" type="curve" smooth="yes"/>
      <point x="275" y="839"/>
      <point x="71" y="675"/>
      <point x="71" y="380" type="curve" smooth="yes"/>
      <point x="71" y="189"/>
      <point x="159" y="-12"/>
    </contour>
    <contour>
      <point x="1459" y="558" type="curve" smooth="yes"/>
      <point x="1376" y="558"/>
      <point x="1315" y="492"/>
      <point x="1315" y="389" type="curve" smooth="yes"/>
      <point x="1315" y="242"/>
      <point x="1439" y="203"/>
      <point x="1537" y="203" type="curve" smooth="yes"/>
      <point x="1545" y="203" type="line" smooth="yes"/>
      <point x="1634" y="203"/>
      <point x="1694" y="230"/>
      <point x="1743" y="271" type="curve"/>
      <point x="1742" y="235"/>
      <point x="1742" y="217"/>
      <point x="1742" y="175" type="curve" smooth="yes"/>
      <point x="1742" y="25" type="line"/>
      <point x="1416" y="25" type="line"/>
      <point x="1415" y="0" type="line"/>
      <point x="1768" y="0" type="line"/>
      <point x="1768" y="305" type="line"/>
      <point x="1742" y="305" type="line"/>
      <point x="1691" y="258"/>
      <point x="1637" y="228"/>
      <point x="1548" y="228" type="curve" smooth="yes"/>
      <point x="1537" y="228" type="line" smooth="yes"/>
      <point x="1441" y="228"/>
      <point x="1342" y="264"/>
      <point x="1342" y="389" type="curve" smooth="yes"/>
      <point x="1342" y="481"/>
      <point x="1393" y="533"/>
      <point x="1459" y="533" type="curve" smooth="yes"/>
      <point x="1517" y="533"/>
      <point x="1558" y="495"/>
      <point x="1558" y="409" type="curve" smooth="yes"/>
      <point x="1558" y="346"/>
      <point x="1547" y="283"/>
      <point x="1533" y="229" type="curve" smooth="yes"/>
      <point x="1481" y="18" type="line"/>
      <point x="1479" y="10" type="line"/>
      <point x="1408" y="-277" type="line"/>
      <point x="1434" y="-284" type="line"/>
      <point x="1557" y="213" type="line"/>
      <point x="1562" y="235" type="line" smooth="yes"/>
      <point x="1571" y="273"/>
      <point x="1585" y="340"/>
      <point x="1585" y="409" type="curve" smooth="yes"/>
      <point x="1585" y="501"/>
      <point x="1538" y="558"/>
    </contour>
  </outline>
</glyph>
<glyph name="rupeesigntamil" format="2">
  <advance width="970"/>
  <unicode hex="0BF9"/>
  <outline>
    <contour>
      <point x="751" y="288" type="curve" smooth="yes"/>
      <point x="697" y="288"/>
      <point x="652" y="263"/>
      <point x="615" y="233" type="curve"/>
      <point x="619" y="206" type="line"/>
      <point x="657" y="239"/>
      <point x="699" y="263"/>
      <point x="749" y="263" type="curve" smooth="yes"/>
      <point x="826" y="263"/>
      <point x="888" y="204"/>
      <point x="888" y="66" type="curve" smooth="yes"/>
      <point x="888" y="-192"/>
      <point x="741" y="-296"/>
      <point x="532" y="-296" type="curve" smooth="yes"/>
      <point x="519" y="-296" type="line" smooth="yes"/>
      <point x="249" y="-296"/>
      <point x="99" y="-99"/>
      <point x="99" y="189" type="curve" smooth="yes"/>
      <point x="99" y="217" type="line" smooth="yes"/>
      <point x="99" y="446"/>
      <point x="213" y="621"/>
      <point x="364" y="688" type="curve"/>
      <point x="367" y="716" type="line"/>
      <point x="223" y="653"/>
      <point x="73" y="498"/>
      <point x="73" y="218" type="curve" smooth="yes"/>
      <point x="73" y="189" type="line" smooth="yes"/>
      <point x="73" y="-109"/>
      <point x="229" y="-321"/>
      <point x="517" y="-321" type="curve" smooth="yes"/>
      <point x="533" y="-321" type="line" smooth="yes"/>
      <point x="760" y="-321"/>
      <point x="915" y="-201"/>
      <point x="915" y="67" type="curve" smooth="yes"/>
      <point x="915" y="222"/>
      <point x="837" y="288"/>
    </contour>
    <contour>
      <point x="354" y="0" type="line"/>
      <point x="380" y="0" type="line"/>
      <point x="380" y="499" type="line"/>
      <point x="607" y="499" type="line"/>
      <point x="607" y="0" type="line"/>
      <point x="633" y="0" type="line"/>
      <point x="633" y="499" type="line"/>
      <point x="828" y="499" type="line"/>
      <point x="828" y="524" type="line"/>
      <point x="354" y="524" type="line"/>
    </contour>
    <contour>
      <point x="457" y="567" type="curve" smooth="yes"/>
      <point x="524" y="567"/>
      <point x="546" y="614"/>
      <point x="546" y="651" type="curve" smooth="yes"/>
      <point x="546" y="714"/>
      <point x="496" y="736"/>
      <point x="457" y="736" type="curve" smooth="yes"/>
      <point x="413" y="736"/>
      <point x="386" y="724"/>
      <point x="373" y="717" type="curve"/>
      <point x="369" y="690" type="line"/>
      <point x="397" y="704"/>
      <point x="419" y="712"/>
      <point x="453" y="712" type="curve" smooth="yes"/>
      <point x="498" y="712"/>
      <point x="519" y="688"/>
      <point x="519" y="649" type="curve" smooth="yes"/>
      <point x="519" y="609"/>
      <point x="492" y="592"/>
      <point x="457" y="592" type="curve" smooth="yes"/>
      <point x="416" y="592"/>
      <point x="388" y="615"/>
      <point x="388" y="686" type="curve" smooth="yes"/>
      <point x="388" y="697"/>
      <point x="388" y="704"/>
      <point x="389" y="710" type="curve"/>
      <point x="391" y="718" type="line"/>
      <point x="405" y="785"/>
      <point x="464" y="814"/>
      <point x="530" y="814" type="curve" smooth="yes"/>
      <point x="610" y="814"/>
      <point x="654" y="767"/>
      <point x="654" y="705" type="curve" smooth="yes"/>
      <point x="654" y="655"/>
      <point x="638" y="623"/>
      <point x="613" y="588" type="curve"/>
      <point x="613" y="572" type="line"/>
      <point x="828" y="572" type="line"/>
      <point x="828" y="597" type="line"/>
      <point x="636" y="597" type="line"/>
      <point x="642" y="589" type="line"/>
      <point x="669" y="627"/>
      <point x="681" y="663"/>
      <point x="681" y="705" type="curve" smooth="yes"/>
      <point x="681" y="778"/>
      <point x="629" y="839"/>
      <point x="529" y="839" type="curve" smooth="yes"/>
      <point x="437" y="839"/>
      <point x="362" y="786"/>
      <point x="362" y="683" type="curve" smooth="yes"/>
      <point x="362" y="638"/>
      <point x="378" y="567"/>
    </contour>
  </outline>
</glyph>
<glyph name="numsigntamil" format="2">
  <advance width="1140"/>
  <unicode hex="0BFA"/>
  <outline>
    <contour>
      <point x="508" y="356" type="curve" smooth="yes"/>
      <point x="452" y="356"/>
      <point x="406" y="330"/>
      <point x="365" y="300" type="curve"/>
      <point x="367" y="270" type="line"/>
      <point x="412" y="309"/>
      <point x="457" y="331"/>
      <point x="506" y="331" type="curve" smooth="yes"/>
      <point x="601" y="331"/>
      <point x="643" y="250"/>
      <point x="643" y="141" type="curve" smooth="yes"/>
      <point x="643" y="58"/>
      <point x="621" y="1"/>
      <point x="580" y="-37" type="curve" smooth="yes"/>
      <point x="523" y="-89"/>
      <point x="437" y="-106"/>
      <point x="295" y="-106" type="curve" smooth="yes"/>
      <point x="235" y="-106" type="line" smooth="yes"/>
      <point x="169" y="-106"/>
      <point x="126" y="-118"/>
      <point x="96" y="-142" type="curve" smooth="yes"/>
      <point x="67" y="-166"/>
      <point x="51" y="-202"/>
      <point x="51" y="-251" type="curve" smooth="yes"/>
      <point x="51" y="-277"/>
      <point x="55" y="-301"/>
      <point x="59" y="-321" type="curve"/>
      <point x="84" y="-320" type="line"/>
      <point x="80" y="-299"/>
      <point x="77" y="-278"/>
      <point x="77" y="-251" type="curve" smooth="yes"/>
      <point x="77" y="-209"/>
      <point x="88" y="-180"/>
      <point x="115" y="-160" type="curve" smooth="yes"/>
      <point x="139" y="-142"/>
      <point x="170" y="-131"/>
      <point x="243" y="-131" type="curve" smooth="yes"/>
      <point x="308" y="-131" type="line" smooth="yes"/>
      <point x="424" y="-131"/>
      <point x="528" y="-118"/>
      <point x="596" y="-57" type="curve" smooth="yes"/>
      <point x="642" y="-16"/>
      <point x="670" y="47"/>
      <point x="670" y="143" type="curve" smooth="yes"/>
      <point x="670" y="284"/>
      <point x="601" y="356"/>
    </contour>
    <contour>
      <point x="94" y="0" type="line"/>
      <point x="120" y="0" type="line"/>
      <point x="120" y="521" type="line"/>
      <point x="347" y="521" type="line"/>
      <point x="347" y="0" type="line"/>
      <point x="373" y="0" type="line"/>
      <point x="373" y="521" type="line"/>
      <point x="568" y="521" type="line"/>
      <point x="568" y="546" type="line"/>
      <point x="94" y="546" type="line"/>
    </contour>
    <contour>
      <point x="754" y="497" type="curve" smooth="yes"/>
      <point x="813" y="497"/>
      <point x="849" y="529"/>
      <point x="849" y="595" type="curve" smooth="yes"/>
      <point x="849" y="630"/>
      <point x="835" y="653"/>
      <point x="815" y="668" type="curve" smooth="yes"/>
      <point x="788" y="688"/>
      <point x="754" y="694"/>
      <point x="715" y="694" type="curve" smooth="yes"/>
      <point x="709" y="694" type="line" smooth="yes"/>
      <point x="641" y="694"/>
      <point x="542" y="671"/>
      <point x="542" y="544" type="curve"/>
      <point x="568" y="536" type="line"/>
      <point x="568" y="550" type="line" smooth="yes"/>
      <point x="568" y="615"/>
      <point x="605" y="669"/>
      <point x="705" y="669" type="curve" smooth="yes"/>
      <point x="714" y="669" type="line" smooth="yes"/>
      <point x="753" y="669"/>
      <point x="781" y="662"/>
      <point x="799" y="648" type="curve" smooth="yes"/>
      <point x="814" y="636"/>
      <point x="822" y="619"/>
      <point x="822" y="595" type="curve" smooth="yes"/>
      <point x="822" y="551"/>
      <point x="804" y="522"/>
      <point x="754" y="522" type="curve" smooth="yes"/>
      <point x="698" y="522"/>
      <point x="675" y="571"/>
      <point x="675" y="640" type="curve" smooth="yes"/>
      <point x="675" y="655"/>
      <point x="677" y="670"/>
      <point x="679" y="683" type="curve" smooth="yes"/>
      <point x="694" y="766"/>
      <point x="750" y="814"/>
      <point x="838" y="814" type="curve" smooth="yes"/>
      <point x="930" y="814"/>
      <point x="978" y="745"/>
      <point x="978" y="666" type="curve" smooth="yes"/>
      <point x="978" y="606"/>
      <point x="959" y="570"/>
      <point x="934" y="523" type="curve"/>
      <point x="934" y="500" type="line"/>
      <point x="1125" y="500" type="line"/>
      <point x="1125" y="525" type="line"/>
      <point x="951" y="525" type="line"/>
      <point x="953" y="510" type="line"/>
      <point x="988" y="559"/>
      <point x="1005" y="613"/>
      <point x="1005" y="667" type="curve" smooth="yes"/>
      <point x="1005" y="765"/>
      <point x="940" y="839"/>
      <point x="838" y="839" type="curve" smooth="yes"/>
      <point x="736" y="839"/>
      <point x="669" y="781"/>
      <point x="653" y="684" type="curve" smooth="yes"/>
      <point x="651" y="670"/>
      <point x="649" y="656"/>
      <point x="649" y="640" type="curve" smooth="yes"/>
      <point x="649" y="532"/>
      <point x="701" y="497"/>
    </contour>
  </outline>
</glyph>
<glyph name="uni1CDA" format="2">
  <unicode hex="1CDA"/>
  <outline>
    <contour>
      <point x="-348" y="870" type="line"/>
      <point x="-348" y="659" type="line"/>
      <point x="-322" y="659" type="line"/>
      <point x="-322" y="870" type="line"/>
    </contour>
    <contour>
      <point x="-235" y="870" type="line"/>
      <point x="-235" y="659" type="line"/>
      <point x="-209" y="659" type="line"/>
      <point x="-209" y="870" type="line"/>
    </contour>
  </outline>
</glyph>
<glyph name="quotedblleft.tamil" format="2">
  <advance width="324"/>
  <unicode hex="201C"/>
  <outline>
    <contour>
      <point x="196" y="555" type="line"/>
      <point x="221" y="555" type="line"/>
      <point x="228" y="627"/>
      <point x="249" y="730"/>
      <point x="278" y="800" type="curve"/>
      <point x="256" y="800" type="line"/>
      <point x="226" y="731"/>
      <point x="201" y="646"/>
      <point x="190" y="564" type="curve"/>
    </contour>
    <contour>
      <point x="52" y="555" type="line"/>
      <point x="77" y="555" type="line"/>
      <point x="84" y="627"/>
      <point x="105" y="730"/>
      <point x="134" y="800" type="curve"/>
      <point x="112" y="800" type="line"/>
      <point x="82" y="731"/>
      <point x="57" y="646"/>
      <point x="46" y="564" type="curve"/>
    </contour>
  </outline>
</glyph>
<glyph name="quotedblright.tamil" format="2">
  <advance width="324"/>
  <unicode hex="201D"/>
  <outline>
    <contour>
      <point x="272" y="800" type="line"/>
      <point x="247" y="800" type="line"/>
      <point x="240" y="728"/>
      <point x="219" y="625"/>
      <point x="190" y="555" type="curve"/>
      <point x="212" y="555" type="line"/>
      <point x="242" y="624"/>
      <point x="267" y="709"/>
      <point x="278" y="791" type="curve"/>
    </contour>
    <contour>
      <point x="128" y="800" type="line"/>
      <point x="103" y="800" type="line"/>
      <point x="96" y="728"/>
      <point x="75" y="625"/>
      <point x="46" y="555" type="curve"/>
      <point x="68" y="555" type="line"/>
      <point x="98" y="624"/>
      <point x="123" y="709"/>
      <point x="134" y="791" type="curve"/>
    </contour>
  </outline>
</glyph>
<glyph name="ellipsis.tamil" format="2">
  <advance width="617"/>
  <unicode hex="2026"/>
  <outline>
    <contour>
      <point x="102" y="-8" type="curve" smooth="yes"/>
      <point x="126" y="-8"/>
      <point x="129" y="6"/>
      <point x="129" y="23" type="curve" smooth="yes"/>
      <point x="129" y="39"/>
      <point x="126" y="54"/>
      <point x="102" y="54" type="curve" smooth="yes"/>
      <point x="82" y="54"/>
      <point x="77" y="39"/>
      <point x="77" y="23" type="curve" smooth="yes"/>
      <point x="77" y="6"/>
      <point x="82" y="-8"/>
    </contour>
    <contour>
      <point x="307" y="-8" type="curve" smooth="yes"/>
      <point x="331" y="-8"/>
      <point x="334" y="6"/>
      <point x="334" y="23" type="curve" smooth="yes"/>
      <point x="334" y="39"/>
      <point x="331" y="54"/>
      <point x="307" y="54" type="curve" smooth="yes"/>
      <point x="287" y="54"/>
      <point x="282" y="39"/>
      <point x="282" y="23" type="curve" smooth="yes"/>
      <point x="282" y="6"/>
      <point x="287" y="-8"/>
    </contour>
    <contour>
      <point x="513" y="-8" type="curve" smooth="yes"/>
      <point x="537" y="-8"/>
      <point x="540" y="6"/>
      <point x="540" y="23" type="curve" smooth="yes"/>
      <point x="540" y="39"/>
      <point x="537" y="54"/>
      <point x="513" y="54" type="curve" smooth="yes"/>
      <point x="493" y="54"/>
      <point x="488" y="39"/>
      <point x="488" y="23" type="curve" smooth="yes"/>
      <point x="488" y="6"/>
      <point x="493" y="-8"/>
    </contour>
  </outline>
</glyph>
<glyph name="uni2074" format="2">
  <advance width="340"/>
  <unicode hex="2074"/>
  <outline>
    <contour>
      <point x="223" y="369" type="line"/>
      <point x="248" y="369" type="line"/>
      <point x="248" y="500" type="line"/>
      <point x="322" y="500" type="line"/>
      <point x="322" y="524" type="line"/>
      <point x="248" y="524" type="line"/>
      <point x="248" y="800" type="line"/>
      <point x="220" y="800" type="line"/>
      <point x="19" y="518" type="line"/>
      <point x="19" y="500" type="line"/>
      <point x="223" y="500" type="line"/>
    </contour>
    <contour>
      <point x="51" y="524" type="line"/>
      <point x="190" y="719" type="line" smooth="yes"/>
      <point x="204" y="739"/>
      <point x="211" y="749"/>
      <point x="224" y="771" type="curve" smooth="yes"/>
      <point x="223" y="745"/>
      <point x="223" y="720"/>
      <point x="223" y="688" type="curve" smooth="yes"/>
      <point x="223" y="524" type="line"/>
    </contour>
  </outline>
</glyph>
<glyph name="minus.tamil" format="2">
  <advance width="572"/>
  <unicode hex="2212"/>
  <outline>
    <contour>
      <point x="56" y="340" type="line"/>
      <point x="516" y="340" type="line"/>
      <point x="516" y="366" type="line"/>
      <point x="56" y="366" type="line"/>
    </contour>
  </outline>
</glyph>
<glyph name="uniA8F3" format="2">
  <advance width="438"/>
  <unicode hex="A8F3"/>
  <outline>
    <contour>
      <point x="210" y="309" type="curve" smooth="yes"/>
      <point x="310" y="309"/>
      <point x="380" y="363"/>
      <point x="380" y="465" type="curve" smooth="yes"/>
      <point x="380" y="490"/>
      <point x="377" y="514"/>
      <point x="371" y="535" type="curve"/>
      <point x="346" y="530" type="line"/>
      <point x="352" y="506"/>
      <point x="354" y="483"/>
      <point x="354" y="465" type="curve" smooth="yes"/>
      <point x="354" y="373"/>
      <point x="292" y="335"/>
      <point x="210" y="335" type="curve" smooth="yes"/>
      <point x="130" y="335"/>
      <point x="68" y="373"/>
      <point x="68" y="465" type="curve" smooth="yes"/>
      <point x="68" y="483"/>
      <point x="70" y="506"/>
      <point x="76" y="530" type="curve"/>
      <point x="51" y="535" type="line"/>
      <point x="45" y="514"/>
      <point x="42" y="490"/>
      <point x="42" y="465" type="curve" smooth="yes"/>
      <point x="42" y="363"/>
      <point x="111" y="309"/>
    </contour>
    <contour>
      <point x="211" y="433" type="curve" smooth="yes"/>
      <point x="231" y="433"/>
      <point x="243" y="444"/>
      <point x="243" y="467" type="curve" smooth="yes"/>
      <point x="243" y="489"/>
      <point x="231" y="501"/>
      <point x="211" y="501" type="curve" smooth="yes"/>
      <point x="191" y="501"/>
      <point x="179" y="489"/>
      <point x="179" y="467" type="curve" smooth="yes"/>
      <point x="179" y="444"/>
      <point x="191" y="433"/>
    </contour>
    <contour>
      <point x="396" y="36" type="line"/>
      <point x="138" y="232" type="line"/>
      <point x="123" y="212" type="line"/>
      <point x="381" y="16" type="line"/>
    </contour>
  </outline>
</glyph>
<glyph name="u11301" format="2">
  <unicode hex="11301"/>
  <outline>
    <contour>
      <point x="-278" y="677" type="curve" smooth="yes"/>
      <point x="-190" y="677"/>
      <point x="-131" y="722"/>
      <point x="-131" y="811" type="curve" smooth="yes"/>
      <point x="-131" y="823"/>
      <point x="-132" y="844"/>
      <point x="-136" y="860" type="curve"/>
      <point x="-162" y="854" type="line"/>
      <point x="-158" y="840"/>
      <point x="-157" y="825"/>
      <point x="-157" y="812" type="curve" smooth="yes"/>
      <point x="-157" y="744"/>
      <point x="-193" y="703"/>
      <point x="-278" y="703" type="curve" smooth="yes"/>
      <point x="-357" y="703"/>
      <point x="-398" y="734"/>
      <point x="-398" y="812" type="curve" smooth="yes"/>
      <point x="-398" y="824"/>
      <point x="-397" y="840"/>
      <point x="-393" y="854" type="curve"/>
      <point x="-418" y="860" type="line"/>
      <point x="-423" y="844"/>
      <point x="-424" y="824"/>
      <point x="-424" y="813" type="curve" smooth="yes"/>
      <point x="-424" y="721"/>
      <point x="-371" y="677"/>
    </contour>
    <contour>
      <point x="-278" y="784" type="curve" smooth="yes"/>
      <point x="-255" y="784"/>
      <point x="-252" y="798"/>
      <point x="-252" y="815" type="curve" smooth="yes"/>
      <point x="-252" y="831"/>
      <point x="-255" y="846"/>
      <point x="-278" y="846" type="curve" smooth="yes"/>
      <point x="-299" y="846"/>
      <point x="-304" y="831"/>
      <point x="-304" y="815" type="curve" smooth="yes"/>
      <point x="-304" y="798"/>
      <point x="-299" y="784"/>
    </contour>
  </outline>
</glyph>
<glyph name="u11303" format="2">
  <advance width="349"/>
  <unicode hex="11303"/>
  <outline>
    <contour>
      <point x="52" y="117" type="curve" smooth="yes"/>
      <point x="52" y="44"/>
      <point x="100" y="-12"/>
      <point x="174" y="-12" type="curve" smooth="yes"/>
      <point x="249" y="-12"/>
      <point x="297" y="43"/>
      <point x="297" y="117" type="curve" smooth="yes"/>
      <point x="297" y="186"/>
      <point x="249" y="239"/>
      <point x="174" y="239" type="curve" smooth="yes"/>
      <point x="100" y="239"/>
      <point x="52" y="186"/>
    </contour>
    <contour>
      <point x="79" y="114" type="curve" smooth="yes"/>
      <point x="79" y="172"/>
      <point x="113" y="214"/>
      <point x="174" y="214" type="curve" smooth="yes"/>
      <point x="236" y="214"/>
      <point x="270" y="172"/>
      <point x="270" y="114" type="curve" smooth="yes"/>
      <point x="270" y="57"/>
      <point x="237" y="13"/>
      <point x="174" y="13" type="curve" smooth="yes"/>
      <point x="112" y="13"/>
      <point x="79" y="57"/>
    </contour>
    <contour>
      <point x="52" y="436" type="curve" smooth="yes"/>
      <point x="52" y="363"/>
      <point x="100" y="307"/>
      <point x="174" y="307" type="curve" smooth="yes"/>
      <point x="249" y="307"/>
      <point x="297" y="362"/>
      <point x="297" y="436" type="curve" smooth="yes"/>
      <point x="297" y="505"/>
      <point x="249" y="558"/>
      <point x="174" y="558" type="curve" smooth="yes"/>
      <point x="100" y="558"/>
      <point x="52" y="505"/>
    </contour>
    <contour>
      <point x="79" y="433" type="curve" smooth="yes"/>
      <point x="79" y="491"/>
      <point x="113" y="533"/>
      <point x="174" y="533" type="curve" smooth="yes"/>
      <point x="236" y="533"/>
      <point x="270" y="491"/>
      <point x="270" y="433" type="curve" smooth="yes"/>
      <point x="270" y="376"/>
      <point x="237" y="332"/>
      <point x="174" y="332" type="curve" smooth="yes"/>
      <point x="112" y="332"/>
      <point x="79" y="376"/>
    </contour>
  </outline>
</glyph>
